<svg width="208" height="55" viewBox="0 0 208 55" fill="none" xmlns="http://www.w3.org/2000/svg">
<path d="M47.9576 34.8128C47.9544 33.2782 46.2956 32.3189 44.9639 33.0813L30.4082 41.4155C29.0679 42.1829 29.0662 44.1153 30.4052 44.885L44.9959 53.273C46.3309 54.0405 47.996 53.0747 47.9927 51.5349L47.9576 34.8128Z" fill="#3358D3"/>
<path fill-rule="evenodd" clip-rule="evenodd" d="M3.02642 25.6737C1.68577 26.4409 1.68386 28.3736 3.02299 29.1434L19.6227 38.6863C20.2385 39.0403 20.9959 39.0412 21.6125 38.6884L46.9304 24.2061C47.5544 23.8491 47.9388 23.1847 47.9373 22.4658L47.8974 3.44051C47.8942 1.90618 46.2357 0.946767 44.904 1.70884L3.02642 25.6737Z" fill="#3358D3"/>
<path d="M68 43.1339V9.875H81.3376C83.7843 9.875 85.8282 10.2396 87.4693 10.9688C89.1104 11.6979 90.3412 12.7024 91.1618 13.9821C91.9972 15.2619 92.415 16.7351 92.415 18.4018C92.415 19.6964 92.1464 20.8348 91.6093 21.817C91.0872 22.7991 90.3711 23.6027 89.461 24.2277C88.5659 24.8527 87.5364 25.2917 86.3728 25.5446V25.8795C87.6409 25.939 88.8344 26.2961 89.9533 26.9509C91.0723 27.6057 91.9749 28.5283 92.6611 29.7188C93.3623 30.8943 93.7129 32.3006 93.7129 33.9375C93.7129 35.6935 93.2728 37.2708 92.3926 38.6696C91.5273 40.0536 90.2442 41.1473 88.5435 41.9509C86.8427 42.7396 84.7391 43.1339 82.2327 43.1339H68ZM75.0269 37.3973H80.8005C82.7549 37.3973 84.1797 37.0179 85.0748 36.2589C85.9849 35.5 86.4399 34.4955 86.4399 33.2455C86.4399 32.3229 86.2161 31.5119 85.7685 30.8125C85.3359 30.0982 84.7093 29.5402 83.8887 29.1384C83.0682 28.7366 82.091 28.5357 80.9572 28.5357H75.0269V37.3973ZM75.0269 23.8036H80.2634C81.2332 23.8036 82.091 23.6324 82.837 23.2902C83.5978 22.9479 84.1946 22.4643 84.6272 21.8393C85.0599 21.1994 85.2762 20.4405 85.2762 19.5625C85.2762 18.372 84.851 17.4122 84.0006 16.683C83.1652 15.939 81.9642 15.567 80.3977 15.567H75.0269V23.8036Z" fill="#1D1D1E"/>
<path d="M96.6669 43.1339V18.1786H103.582V43.1339H96.6669ZM100.113 14.9866C99.0838 14.9866 98.2035 14.6443 97.4725 13.9598C96.7415 13.2753 96.376 12.4494 96.376 11.4821C96.376 10.5149 96.7415 9.69643 97.4725 9.02679C98.2035 8.34226 99.0838 8 100.113 8C101.158 8 102.045 8.34226 102.776 9.02679C103.507 9.69643 103.873 10.5149 103.873 11.4821C103.873 12.4494 103.507 13.2753 102.776 13.9598C102.045 14.6443 101.158 14.9866 100.113 14.9866Z" fill="#1D1D1E"/>
<path d="M107.543 43.1339V39.0045L119.784 23.8929V23.7143H107.946V18.1786H128.109V22.7098L116.629 37.4196V37.5982H128.534V43.1339H107.543Z" fill="#1D1D1E"/>
<path d="M142.856 53C139.484 53 136.844 52.3304 134.934 50.9911C133.025 49.6667 131.861 48.0149 131.443 46.0357L137.843 45.1875C138.037 45.6935 138.343 46.1622 138.761 46.5938C139.179 47.0253 139.738 47.3676 140.439 47.6205C141.14 47.8884 141.998 48.0223 143.013 48.0223C144.52 48.0223 145.765 47.6577 146.75 46.9286C147.735 46.2143 148.227 45.0015 148.227 43.2902V38.7143H147.936C147.638 39.3988 147.183 40.0536 146.571 40.6786C145.959 41.3036 145.176 41.8095 144.221 42.1964C143.266 42.5833 142.125 42.7768 140.797 42.7768C138.918 42.7768 137.209 42.3452 135.673 41.4821C134.151 40.6042 132.928 39.2649 132.003 37.4643C131.092 35.6637 130.637 33.3869 130.637 30.6339C130.637 27.7917 131.1 25.4256 132.025 23.5357C132.965 21.6458 134.203 20.2321 135.74 19.2946C137.276 18.3423 138.962 17.8661 140.797 17.8661C142.2 17.8661 143.371 18.1042 144.311 18.5804C145.266 19.0417 146.041 19.622 146.638 20.3214C147.235 21.0208 147.682 21.7128 147.981 22.3973H148.249V18.1786H155.075V43.4018C155.075 45.5149 154.553 47.2857 153.508 48.7143C152.464 50.1429 151.024 51.2143 149.189 51.9286C147.354 52.6429 145.243 53 142.856 53ZM142.99 37.5759C144.661 37.5759 145.952 36.9583 146.862 35.7232C147.787 34.4881 148.249 32.7768 148.249 30.5893C148.249 29.131 148.04 27.8661 147.623 26.7946C147.22 25.7083 146.631 24.8676 145.855 24.2723C145.079 23.6622 144.124 23.3571 142.99 23.3571C141.857 23.3571 140.894 23.6696 140.104 24.2946C139.328 24.9048 138.738 25.753 138.336 26.8393C137.933 27.9256 137.731 29.1756 137.731 30.5893C137.731 32.0179 137.933 33.2604 138.336 34.317C138.738 35.3586 139.328 36.1622 140.104 36.7277C140.894 37.2932 141.857 37.5759 142.99 37.5759Z" fill="#1D1D1E"/>
<path d="M170.538 43.625C167.972 43.625 165.757 43.1042 163.892 42.0625C162.027 41.0208 160.595 39.5402 159.595 37.6205C158.611 35.686 158.118 33.4018 158.118 30.7679C158.118 28.2083 158.611 25.9613 159.595 24.0268C160.595 22.0923 161.997 20.5818 163.802 19.4955C165.623 18.4092 167.756 17.8661 170.203 17.8661C171.859 17.8661 173.403 18.1339 174.835 18.6696C176.267 19.1905 177.52 19.9792 178.595 21.0357C179.669 22.0774 180.504 23.3943 181.101 24.9866C181.698 26.564 181.996 28.4167 181.996 30.5446V32.4196H160.871V28.1562H178.639L175.417 29.2723C175.417 28.0074 175.223 26.9062 174.835 25.9688C174.447 25.0312 173.865 24.3095 173.09 23.8036C172.329 23.2827 171.381 23.0223 170.247 23.0223C169.114 23.0223 168.151 23.2827 167.361 23.8036C166.585 24.3244 165.988 25.0312 165.57 25.9241C165.153 26.817 164.944 27.8438 164.944 29.0045V32.0179C164.944 33.372 165.182 34.5327 165.66 35.5C166.137 36.4524 166.801 37.189 167.652 37.7098C168.517 38.2158 169.509 38.4688 170.628 38.4688C171.404 38.4688 172.105 38.3571 172.731 38.1339C173.358 37.9107 173.895 37.5833 174.343 37.1518C174.805 36.7202 175.148 36.1994 175.372 35.5893L181.772 36.0134C181.459 37.5461 180.803 38.8854 179.803 40.0312C178.818 41.1622 177.543 42.0476 175.976 42.6875C174.41 43.3125 172.597 43.625 170.538 43.625Z" fill="#1D1D1E"/>
<path d="M191.887 28.7143V43.1339H184.973V18.1786H191.776V22.6205H192.022C192.589 21.1473 193.491 19.9866 194.73 19.1384C195.968 18.2902 197.519 17.8661 199.384 17.8661C201.115 17.8661 202.622 18.2455 203.905 19.0045C205.203 19.7634 206.21 20.8423 206.926 22.2411C207.642 23.6399 208 25.314 208 27.2634V43.1339H201.085V28.4911C201.085 26.9732 200.69 25.7827 199.899 24.9196C199.108 24.0417 198.019 23.6027 196.632 23.6027C195.707 23.6027 194.886 23.811 194.17 24.2277C193.454 24.6295 192.895 25.2098 192.492 25.9688C192.089 26.7277 191.887 27.6429 191.887 28.7143Z" fill="#1D1D1E"/>
</svg>
