<svg xmlns="http://www.w3.org/2000/svg" width="162" height="311" fill="none" viewBox="0 0 162 311"><path stroke="#3358d3" stroke-miterlimit="10" d="M198.264 284.913c-23.824 2.385-23.202-5.995-42.039-9.695-18.856-3.712-22.004 3.792-38.236-5.321s-11.121-15.871-22.636-28.151c-11.502-12.298-18.151-7.544-26.306-23.425-8.154-15.88-.548-19.056-4.241-35.49-3.694-16.433-11.836-15.811-11.446-33.743s8.45-16.737 12.986-32.879c4.535-16.143-2.966-19.861 6.446-35.147 9.4-15.267 15.724-10.047 28.944-21.449 13.232-11.42 8.617-18.525 27.542-26.405 18.913-7.862 21.176-.17 43.549-2.398"/><path stroke="#3358d3" stroke-miterlimit="10" d="M196.525 267.583c-20.686 2.07-20.028-6.286-36.229-9.482-16.2-3.196-19.342 4.338-33.418-3.566-14.075-7.904-8.977-14.644-18.853-25.193s-16.52-5.765-23.606-19.555.544-16.923-2.647-31.033-11.327-13.457-10.98-29.027c.348-15.569 8.385-14.337 12.29-28.211 3.903-13.874-3.59-17.562 4.569-30.824 8.158-13.261 14.478-7.993 25.833-17.791 11.367-9.817 6.758-16.892 23.162-23.722s18.661.911 37.908-1.02"/><path stroke="#3358d3" stroke-miterlimit="10" d="M194.927 251.487c-17.748 1.781-17.101-6.556-30.842-9.257s-16.864 4.845-28.96-1.939-6.991-13.494-15.353-22.443-15.017-4.147-21.08-15.978c-6.081-11.843 1.538-14.958-1.153-26.902-2.698-11.974-10.827-11.291-10.537-24.637.285-13.376 8.347-12.102 11.647-23.871 3.319-11.758-4.186-15.427 2.833-26.8s13.308-6.098 22.948-14.404 5.032-15.382 19.119-21.237c14.087-5.856 16.344 1.885 32.64.26"/></svg>