<svg xmlns="http://www.w3.org/2000/svg" width="122" height="126" fill="none" viewBox="0 0 122 126"><path fill="#3358d3" d="m17.023 121.567-.053 3.055c0 .533.426.977.959.994.248 0 .48-.088.657-.248a.98.98 0 0 0 .337-.728l.053-2.86 2.842.338a1 1 0 0 0 .764-.231.93.93 0 0 0 .32-.622c.07-.533-.32-1.012-.853-1.083l-3.037-.355.053-3.055a1 1 0 0 0-.959-.995 1 1 0 0 0-.994.959l-.054 2.86-2.841-.338a.966.966 0 0 0-1.084.853c-.07.533.32 1.012.853 1.083zm17.262-10.265c.249 0 .48-.089.657-.249a.98.98 0 0 0 .338-.728l.053-2.859 2.842.337a.98.98 0 0 0 .763-.231.93.93 0 0 0 .32-.621c.07-.533-.32-1.013-.853-1.084l-3.037-.355.054-3.055a1 1 0 0 0-.96-.994.997.997 0 0 0-.994.959l-.053 2.859-2.842-.337a.966.966 0 0 0-1.083.852c-.071.533.32 1.013.852 1.084l3.037.355-.053 3.055c0 .55.426.994.959 1.012M50.642 96.97c.25 0 .48-.09.657-.25a.98.98 0 0 0 .338-.727l.053-2.86 2.842.338a1 1 0 0 0 .764-.231.93.93 0 0 0 .32-.622c.07-.533-.32-1.012-.853-1.083l-3.037-.355.053-3.055a1 1 0 0 0-.959-.995 1 1 0 0 0-.995.96l-.053 2.859-2.841-.338a.966.966 0 0 0-1.084.853c-.07.533.32 1.012.853 1.083l3.037.355-.054 3.055a.97.97 0 0 0 .96 1.012M67 82.637c.248 0 .48-.088.657-.248a.98.98 0 0 0 .337-.728l.054-2.86 2.841.338a1 1 0 0 0 .764-.231.93.93 0 0 0 .32-.622c.07-.533-.32-1.012-.853-1.083l-3.037-.355.053-3.055a1 1 0 0 0-.959-.995 1 1 0 0 0-.994.96l-.053 2.859-2.842-.338a.966.966 0 0 0-1.083.853c-.071.533.32 1.012.852 1.083l3.037.355-.053 3.055c-.018.568.408 1.012.959 1.012m16.339-14.314c.248 0 .48-.089.657-.249a.98.98 0 0 0 .337-.728l.054-2.86 2.841.338a1 1 0 0 0 .764-.23.93.93 0 0 0 .32-.622c.07-.533-.32-1.013-.853-1.084l-3.037-.355.053-3.055a.997.997 0 0 0-.959-.994.997.997 0 0 0-.994.959l-.054 2.86-2.841-.338a.966.966 0 0 0-1.084.852c-.07.533.32 1.013.853 1.084l3.037.355-.053 3.055c0 .568.426 1.012.959 1.012M99.695 53.99c.249 0 .48-.088.657-.248a.98.98 0 0 0 .338-.728l.053-2.86 2.842.338a1 1 0 0 0 .763-.231.93.93 0 0 0 .32-.622c.071-.533-.32-1.012-.852-1.083l-3.037-.355.053-3.055a.997.997 0 0 0-.96-.995 1 1 0 0 0-.994.96l-.053 2.859-2.842-.338a.966.966 0 0 0-1.083.853c-.071.533.32 1.012.852 1.083l3.037.355-.053 3.055a.97.97 0 0 0 .96 1.012m16.357-14.314a.98.98 0 0 0 .657-.249.98.98 0 0 0 .337-.728l.053-2.86 2.842.338a1 1 0 0 0 .764-.23.92.92 0 0 0 .319-.622c.071-.533-.319-1.013-.852-1.084l-3.037-.355.053-3.055a.997.997 0 0 0-.959-.994.997.997 0 0 0-.994.959l-.054 2.86-2.841-.338a.967.967 0 0 0-1.084.852c-.071.533.32 1.013.853 1.084l3.037.355-.053 3.055c-.018.568.408 1.012.959 1.012M5.106 110.965c.249 0 .48-.089.657-.249a.98.98 0 0 0 .338-.728l.053-2.86 2.842.338a1 1 0 0 0 .763-.231.93.93 0 0 0 .32-.622c.071-.532-.32-1.012-.852-1.083l-3.037-.355.053-3.055a1 1 0 0 0-.96-.995 1 1 0 0 0-.994.96l-.053 2.859-2.842-.338a.966.966 0 0 0-1.083.853c-.071.533.32 1.012.853 1.083l3.037.355-.054 3.055a.98.98 0 0 0 .96 1.013m16.338-14.333c.249 0 .48-.089.657-.249a.98.98 0 0 0 .338-.728l.053-2.86 2.842.338a1 1 0 0 0 .763-.23.93.93 0 0 0 .32-.622c.071-.533-.32-1.013-.852-1.084l-3.037-.355.053-3.055a.997.997 0 0 0-.96-.994 1 1 0 0 0-.994.959l-.053 2.86-2.842-.338a.966.966 0 0 0-1.083.852c-.071.533.32 1.013.852 1.084l3.037.355-.053 3.055c0 .568.426 1.012.96 1.012m16.356-14.314c.248 0 .48-.09.657-.25a.98.98 0 0 0 .337-.727l.053-2.86 2.842.338a1 1 0 0 0 .764-.231.93.93 0 0 0 .32-.622c.07-.532-.32-1.012-.853-1.083l-3.037-.355.053-3.055a1 1 0 0 0-.959-.995 1 1 0 0 0-.994.96l-.054 2.859-2.841-.337a.966.966 0 0 0-1.084.852c-.07.533.32 1.012.853 1.083l3.037.356-.053 3.054a.98.98 0 0 0 .959 1.013m16.357-14.332c.249 0 .48-.09.657-.25a.98.98 0 0 0 .338-.727l.053-2.86 2.841.338a1 1 0 0 0 .764-.231.93.93 0 0 0 .32-.622c.07-.532-.32-1.012-.853-1.083l-3.037-.355.054-3.055a1 1 0 0 0-.96-.994 1 1 0 0 0-.994.959l-.053 2.859-2.842-.338a.966.966 0 0 0-1.083.853c-.071.533.32 1.012.852 1.083l3.037.355-.053 3.055c-.018.569.408 1.013.959 1.013M70.498 53.67c.248 0 .48-.088.657-.248a.98.98 0 0 0 .337-.728l.054-2.86 2.841.338a1 1 0 0 0 .764-.231.93.93 0 0 0 .32-.622c.07-.532-.32-1.012-.853-1.083l-3.037-.355.053-3.055a1 1 0 0 0-.959-.995 1 1 0 0 0-.994.96l-.053 2.859-2.842-.337a.966.966 0 0 0-1.083.852c-.071.533.32 1.012.852 1.083l3.037.355-.053 3.055c0 .55.426.995.959 1.013m16.357-14.332c.249 0 .48-.09.657-.25a.98.98 0 0 0 .338-.727l.053-2.86 2.842.338a1 1 0 0 0 .763-.231.93.93 0 0 0 .32-.622c.071-.532-.32-1.012-.852-1.083l-3.037-.355.053-3.055a1 1 0 0 0-.96-.994 1 1 0 0 0-.994.959l-.053 2.859-2.842-.337a.966.966 0 0 0-1.083.852c-.07.533.32 1.012.853 1.083l3.037.356-.054 3.054c-.017.569.409 1.013.96 1.013m16.356-14.333a.98.98 0 0 0 .657-.249.98.98 0 0 0 .337-.728l.054-2.86 2.841.338a1 1 0 0 0 .764-.23.93.93 0 0 0 .32-.622c.071-.533-.32-1.013-.853-1.084l-3.037-.355.053-3.055a.997.997 0 0 0-.959-.994 1 1 0 0 0-.994.959l-.054 2.86-2.841-.338a.966.966 0 0 0-1.083.852c-.072.533.32 1.013.852 1.084l3.037.355-.053 3.055c-.018.568.408 1.012.959 1.012M8.16 81.465c.25 0 .48-.089.658-.249a.98.98 0 0 0 .337-.728l.054-2.86 2.841.338a1 1 0 0 0 .764-.23.93.93 0 0 0 .32-.622c.07-.533-.32-1.013-.853-1.084l-3.037-.355.054-3.054a1 1 0 0 0-.96-.995 1 1 0 0 0-.994.959l-.053 2.86-2.842-.338a.966.966 0 0 0-1.083.852c-.071.533.32 1.013.852 1.084l3.037.355-.053 3.055a.97.97 0 0 0 .959 1.012m16.356-14.332a.97.97 0 0 0 .657-.249.98.98 0 0 0 .338-.728l.053-2.86 2.842.338a1 1 0 0 0 .764-.23.93.93 0 0 0 .32-.622c.07-.533-.32-1.012-.853-1.084l-3.037-.355.053-3.055a1 1 0 0 0-.959-.994 1 1 0 0 0-.995.959l-.053 2.86-2.841-.338a.966.966 0 0 0-1.084.852c-.07.533.32 1.013.853 1.084l3.037.355-.054 3.055c-.017.568.409 1.012.96 1.012m16.338-14.315c.249 0 .48-.089.657-.249a.98.98 0 0 0 .338-.728l.053-2.86 2.842.338a1 1 0 0 0 .763-.23.93.93 0 0 0 .32-.622c.071-.533-.32-1.012-.852-1.084l-3.037-.355.053-3.054a1 1 0 0 0-.96-.995 1 1 0 0 0-.994.96l-.053 2.858-2.842-.337a.966.966 0 0 0-1.083.852c-.071.533.32 1.013.852 1.084l3.038.355-.054 3.055c0 .568.427 1.012.96 1.012m16.357-14.332c.248 0 .48-.089.657-.249a.98.98 0 0 0 .337-.728l.054-2.86 2.841.338a1 1 0 0 0 .764-.23.93.93 0 0 0 .32-.622c.07-.533-.32-1.012-.853-1.084l-3.037-.355.053-3.054a.997.997 0 0 0-.959-.995 1 1 0 0 0-.994.959l-.054 2.86-2.841-.338a.966.966 0 0 0-1.084.852c-.07.533.32 1.013.853 1.084l3.037.355-.053 3.055a.97.97 0 0 0 .959 1.012M73.57 24.172c.249 0 .48-.09.657-.25a.98.98 0 0 0 .338-.727l.053-2.86 2.842.338a1 1 0 0 0 .763-.231.93.93 0 0 0 .32-.622c.071-.532-.32-1.012-.853-1.083l-3.037-.355.054-3.055a1 1 0 0 0-.96-.995 1 1 0 0 0-.994.96L72.7 18.15l-2.842-.337a.966.966 0 0 0-1.083.852c-.071.533.32 1.012.852 1.083l3.037.356-.053 3.054c-.018.569.409.995.96 1.013M89.91 9.84c.249 0 .48-.09.657-.25a.98.98 0 0 0 .338-.728l.053-2.86 2.841.338a1 1 0 0 0 .764-.23.93.93 0 0 0 .32-.622c.07-.533-.32-1.012-.853-1.084l-3.037-.355.054-3.054a1 1 0 0 0-.96-.995 1 1 0 0 0-.994.96l-.053 2.858-2.842-.337a.966.966 0 0 0-1.083.852c-.071.533.32 1.013.852 1.084l3.037.355-.053 3.055c0 .568.426 1.012.959 1.012"/></svg>