<svg xmlns="http://www.w3.org/2000/svg" width="903" height="708" fill="none" viewBox="0 0 903 708"><mask id="a" fill="#fff"><path d="M72.28 601.746c73.317 63.366 118.162 104.155 161.374 3.211 43.213-100.944 61.833-248.002 133.325-241.398s190.396 193.079 250.562 155.695 12.924-260.798 72.028-292.938S845.293 370.871 897.65 345.187s38.919-272.304 138.5-316.006"/><path d="M69.265 605.574c72.165 62.04 116.656 100.064 159.309 1.794 24.728-56.511 41.602-127.772 64.436-176.913 17.17-37.053 38.109-61.732 68.614-58.944 70.738 6.456 187.759 186.144 247.891 150.165 59.744-35.956 16.531-253.463 75.624-287.168 58.248-33.225 152.756 134.113 204.862 108.634 54.766-26.645 49.388-268.374 147.169-315.195"/><path d="M66.251 609.401c71.012 60.727 114.852 95.86 157.254.377 24.683-55.608 41.956-125.566 64.641-173.359 16.977-35.956 37.892-59.675 68.135-56.956 69.996 6.307 185.202 179.369 245.208 144.636 59.413-34.38 20.151-246.105 79.221-281.399 57.403-34.288 149.775 123.658 201.642 98.396 57.174-27.581 59.869-264.442 155.858-314.36"/><path d="M63.237 613.24c69.859 59.39 113.22 91.713 155.187-1.051 24.729-54.648 42.311-123.372 64.859-169.794 16.794-34.859 37.675-57.63 67.655-54.968 69.242 6.17 182.587 172.502 242.537 139.117 59.024-32.883 23.769-238.725 82.816-275.617 56.559-35.339 146.751 113.078 198.423 88.159 59.504-28.69 70.327-260.524 164.536-313.561"/><path d="M60.235 617.068c68.705 58.076 111.586 87.576 153.12-2.457 24.775-53.7 42.756-121.121 65.064-166.241 16.68-33.716 37.458-55.585 67.176-52.98 68.489 6.022 179.973 165.647 239.865 133.587 58.636-31.386 27.389-231.332 86.413-269.847 55.725-36.356 143.759 102.601 195.203 77.922 61.89-29.684 80.796-256.605 173.214-312.75"/><path d="M57.22 620.895c67.553 56.751 109.966 83.441 151.055-3.873 24.82-52.751 43.132-118.916 65.281-162.687 16.508-32.609 37.241-53.54 66.696-50.992 67.735 5.872 177.359 158.78 237.182 128.056 58.237-29.9 31.019-223.916 90.009-264.077 54.892-37.361 140.78 92.124 191.984 67.685 64.276-30.678 91.265-252.686 181.893-311.927"/><path d="M54.207 624.734c66.399 55.425 108.355 79.293 148.988-5.301 24.877-51.792 43.497-116.712 65.486-159.134 16.326-31.5 37.024-51.495 66.217-49.004 66.993 5.724 174.732 151.902 234.51 122.538 57.837-28.415 34.65-216.49 93.606-258.296 54.069-38.344 137.788 81.658 188.752 57.447C918.428 301.324 953.5 84.229 1042.35 21.868"/><path d="M51.193 628.562c65.246 54.111 106.757 75.168 146.921-6.707 24.946-50.843 43.874-114.495 65.703-155.569 16.155-30.392 36.808-49.438 65.738-47.016 66.239 5.575 172.095 145.023 231.839 117.008 57.426-26.941 38.28-209.041 97.202-252.526 53.258-39.315 134.808 71.192 185.532 47.21 69.06-32.642 112.215-244.837 199.252-310.293"/><path d="M48.179 632.389c64.093 52.786 105.17 71.044 144.855-8.123 25.002-49.884 44.239-112.29 65.908-152.016 15.984-29.284 36.591-47.393 65.258-45.028 65.486 5.438 169.47 138.145 229.156 111.478 57.027-25.467 41.934-201.568 100.798-246.756 52.46-40.263 131.84 60.727 182.314 36.973C907.913 295.292 959.152 88.011 1044.4 19.435"/><path d="M45.176 636.217c62.94 51.46 103.606 66.919 142.8-9.54 25.083-48.936 44.605-110.085 66.126-148.463 15.8-28.175 36.373-45.348 64.778-43.04 64.733 5.29 166.821 131.256 226.485 105.948 56.604-24.004 45.586-194.084 104.394-240.974 51.672-41.201 128.86 50.272 179.094 26.735 73.843-34.596 133.153-236.987 216.617-308.66"/><path d="M42.162 640.056c61.787 50.146 102.042 62.806 140.734-10.957 25.162-47.976 44.97-107.868 66.331-144.91 15.618-27.078 36.168-43.302 64.299-41.051 63.979 5.141 164.183 124.355 223.813 100.43 56.181-22.543 49.263-186.59 108.002-235.205 50.884-42.115 125.88 39.817 175.874 16.498 76.241-35.556 143.622-233.057 225.295-307.848"/><path d="M39.148 643.883c60.645 48.821 100.501 58.693 138.667-12.373 25.254-47.016 45.324-105.663 66.548-141.345 15.436-25.97 35.951-41.258 63.82-39.064 63.237 4.993 161.534 117.454 221.13 94.9 55.759-21.091 52.939-179.083 111.598-229.435 50.108-43.017 122.912 29.364 172.643 6.261C892.193 286.3 967.646 93.689 1047.53 15.79"/><path d="M36.134 647.711c59.492 47.496 98.971 54.579 136.601-13.791 25.345-46.044 45.689-103.457 66.753-137.791 15.253-24.862 35.735-39.201 63.34-37.076 62.484 4.845 158.886 110.53 218.47 89.37 55.337-19.651 56.638-171.553 115.195-223.653 49.343-43.909 119.944 18.909 169.424-3.977 81.047-37.487 164.56-225.207 242.663-306.214"/><path d="M33.131 651.55c58.34 46.17 97.453 50.478 134.535-15.207 25.448-45.074 46.043-101.253 66.97-134.239 15.07-23.753 35.518-37.155 62.861-35.087 61.73 4.707 156.226 103.618 215.787 83.851 54.903-18.223 60.337-164.012 118.79-217.884 48.601-44.799 116.965 8.467 166.205-14.213 83.445-38.435 175.029-221.289 251.341-305.392"/><path d="M30.117 655.377c57.186 44.857 95.946 46.388 132.468-16.624 25.562-44.102 46.398-99.047 67.176-130.684 14.888-22.657 35.301-35.111 62.381-33.1 60.977 4.559 153.566 96.682 213.104 78.322 54.469-16.796 64.059-156.461 122.387-212.114 47.859-45.668 113.996-1.977 162.985-24.451 85.854-39.384 185.499-217.37 260.012-304.58"/><path d="M27.103 659.205c56.033 43.531 94.462 42.309 130.413-18.041 25.688-43.131 46.752-96.854 67.393-127.12 14.693-21.548 35.084-33.065 61.901-31.111 60.235 4.41 150.895 89.747 210.433 72.791 54.024-15.378 67.793-148.885 125.984-206.333 47.128-46.524 111.027-12.419 159.765-34.687 88.262-40.332 195.968-213.44 268.708-303.77"/><path d="M24.09 663.032c54.88 42.206 93 38.23 128.346-19.457 25.813-42.137 47.094-94.649 67.598-123.567 14.499-20.451 34.867-31.02 61.422-29.123 59.481 4.261 148.235 82.789 207.761 67.262 53.59-13.974 71.549-141.311 129.58-200.564 46.409-47.381 108.059-22.862 156.546-44.925 90.66-41.268 206.425-209.509 277.367-302.946"/><path d="M21.075 666.871c53.727 40.881 91.539 34.163 126.28-20.874 25.962-41.143 47.437-92.455 67.816-120.013 14.305-19.355 34.649-28.964 60.942-27.136 58.728 4.113 145.563 75.831 205.09 61.744 53.144-12.58 75.304-133.724 133.176-194.794 45.701-48.227 105.09-33.293 153.315-55.162 93.08-42.206 216.917-205.59 286.056-302.135"/><path d="M18.073 670.699c52.574 39.567 90.112 30.118 124.213-22.291 26.122-40.149 47.779-90.261 68.021-116.449 14.111-18.258 34.433-26.918 60.463-25.147 57.974 3.976 142.903 68.85 202.407 56.213 52.699-11.197 79.083-126.126 136.772-189.012 45.004-49.072 102.134-43.736 150.095-65.399 95.501-43.143 227.387-201.671 294.736-301.313"/><path d="M15.059 674.527c51.42 38.241 88.685 26.072 122.147-23.708 26.304-39.133 48.11-88.068 68.238-112.896 13.905-17.161 34.215-24.873 59.983-23.159 57.232 3.827 140.231 61.869 199.735 50.683 52.255-9.826 82.885-118.516 140.369-183.242 44.319-49.906 99.165-54.168 146.875-75.636 97.922-44.068 237.856-197.741 303.424-300.502"/><path d="M12.045 678.366c50.267 36.915 87.28 22.051 120.081-25.125 26.486-38.104 48.441-85.886 68.443-109.342 13.7-16.076 33.999-22.828 59.492-21.171 56.479 3.678 137.56 54.865 197.064 45.164 51.82-8.454 86.698-110.895 143.964-177.472 43.647-50.729 96.243-64.508 143.657-85.874C845.167 259.758 993.071 110.724 1056.84 4.867"/><path d="M9.03 682.193c49.115 35.59 85.9 18.041 118.015-26.541 26.704-37.065 48.772-83.704 68.66-105.789 13.495-14.979 33.782-20.783 59.013-19.183 55.725 3.53 134.9 47.85 194.381 39.635 51.375-7.096 90.523-103.264 147.561-171.691 42.984-51.563 93.263-74.963 140.437-96.111C839.927 256.776 995.891 112.61 1057.87 3.645"/><path d="M6.017 686.021c47.961 34.276 84.529 14.053 115.959-27.959 26.932-36.001 49.092-81.532 68.866-102.223 13.277-13.905 33.565-18.727 58.533-17.196 54.972 3.382 132.228 40.823 191.709 34.105 50.942-5.758 94.371-95.631 151.158-165.921 42.321-52.386 90.294-85.417 137.206-106.348C834.675 253.783 998.711 114.506 1058.91 2.434"/><path d="M3.014 689.859c46.808 32.952 83.182 10.078 113.893-29.374 27.183-34.928 49.4-79.362 69.071-98.671 13.072-12.819 33.348-16.681 58.054-15.207 54.218 3.245 129.568 33.785 189.038 28.575 50.507-4.422 98.229-87.999 154.765-160.151 41.682-53.197 87.315-95.86 133.986-116.586C829.458 250.801 1001.55 116.391 1059.96 1.211"/><path d="M0 693.687c87.475 60.589 140.163-88.456 181.115-125.909 40.951-37.464 157.31 15.196 243.94 9.826 86.619-5.358 179.083-232.6 289.128-281.193C824.229 247.819 1004.38 118.288 1061 0"/></mask><path fill="#ecedff" d="m228.574 607.368-.916-.401-.001.002zm64.436-176.913.907.422v-.001zm68.614-58.944-.091.996zm247.891 150.165.514.858.002-.001zm75.624-287.168.496.869zm204.862 108.634-.438-.9-.002.001zM223.505 609.778l.914.406zm64.641-173.359.904.429v-.002zm68.135-56.956.09-.996zm245.208 144.636-.501-.866zM680.71 242.7l-.513-.858zm201.642 98.396-.435-.9-.003.001zM218.424 612.189l-.911-.412zm64.859-169.794.899.437.002-.003zm67.655-54.968.089-.996zm242.537 139.117.486.873zm82.816-275.617.53.848zm198.423 88.159-.435-.901zM213.355 614.611l-.908-.419zm65.064-166.241-.896-.443zm67.176-52.98.088-.996h-.001zM585.46 528.977l-.472-.881zm86.413-269.847-.546-.837zm195.203 77.922-.433-.902zm-658.801 279.97.905.426zm65.281-162.687-.892-.452h-.001zm66.696-50.992.086-.997zm237.182 128.056-.457-.889zm90.009-264.077-.562-.827v.001zm191.984 67.685-.431-.903zM203.195 619.433l-.902-.433zm65.486-159.134.888.46zm66.217-49.004.085-.997zm234.51 122.538.441.898zm93.606-258.296.578.816zm188.752 57.447-.429-.903zM198.114 621.855l-.898-.44zm65.703-155.569-.883-.47zm65.738-47.016.083-.997zm231.839 117.008.424.906v-.001zm97.202-252.526.593.805zm185.532 47.21-.427-.904zM193.034 624.266l.894.448zm65.908-152.016-.877-.479h-.001zm65.258-45.028.083-.997h-.001zM553.356 538.7l-.408-.913zm100.798-246.756-.608-.793h-.001zm182.314 36.973.425.905zm-648.492 297.76.89.456zm66.126-148.463-.873-.489zm64.778-43.04.081-.997zm226.485 105.948-.391-.92zm104.394-240.974-.624-.782zm179.094 26.735-.424-.905zM182.896 629.099l.885.464zm66.331-144.91-.867-.499zm64.299-41.051.08-.997h-.001zm223.813 100.43.372.928zm108.002-235.205-.638-.771zm175.874 16.498-.423-.906zm-643.4 306.649-.881-.474zm66.548-141.345.86.511zm63.82-39.064.078-.997zm221.13 94.9-.354-.935zm111.598-229.435.651.759zm172.643 6.261-.421-.907zM172.735 633.92l-.876-.482zm66.753-137.791.853.523zm63.34-37.076.077-.997zm218.47 89.37.335.943zM636.493 324.77l.664.747zm169.424-3.977.419.908zm-638.251 315.55-.871-.492zm66.97-134.239-.844-.535zm62.861-35.087.076-.997h-.001zm215.787 83.851.315.95zm118.79-217.884.678.736zm166.205-14.213.418.908zM162.585 638.753l.865.502zm67.176-130.684-.836-.55v.001zm62.381-33.1.075-.997h-.001zm213.104 78.322-.294-.956zm122.387-212.114.691.723zm162.985-24.451-.417-.909zM157.516 641.164l.859.512zm67.393-127.12.826.564v-.001zm61.901-31.111.073-.998zm210.433 72.791-.274-.961zm125.984-206.333-.703-.711zm159.765-34.687.415.909zM152.436 643.575l.853.522zm67.598-123.567.816.579zm61.422-29.123.071-.998zm207.761 67.262-.252-.968zm129.58-200.564-.715-.699zm156.546-44.925.414.911zM147.355 645.997l.846.534zm67.816-120.013.804.594zm60.942-27.136.07-.997h-.001zm205.09 61.744.23.973zm133.176-194.794.725.688zm153.315-55.162-.413-.911zM142.286 648.408l.839.545zm68.021-116.449.791.612zm60.463-25.147.068-.998zm202.407 56.213.207.978h.001zm136.772-189.012.737.676zm150.095-65.399.412.911zM137.206 650.819l.83.558zm68.238-112.896.776.63h.001zm59.983-23.159.067-.998h-.001zm199.735 50.683.185.983zm140.369-183.242.747.664zm146.875-75.636.411.912zm-620.28 346.672.821.571zm68.443-109.342.761.649zm59.492-21.171.065-.998zm197.064 45.164.161.987zM601.089 390.42l-.758-.652zm143.657-85.874-.407-.913-.004.002zM127.045 655.652l-.811-.585zm68.66-105.789-.743-.669zm59.013-19.183-.063.998zm194.381 39.635-.137-.991zM596.66 398.624l-.768-.64zm140.437-96.111-.407-.914-.002.001zM121.976 658.062l.801.599zm68.866-102.223.723.69zm58.533-17.196.061-.998zm191.709 34.105.113.994zm151.158-165.921.777.629zm137.206-106.348-.406-.914-.002.001zM116.907 660.485l.789.614zm69.071-98.671-.7-.714zm58.054-15.207.06-.998zm189.038 28.575-.087-.996zm154.765-160.151.787.617zm133.986-116.586-.405-.914h-.001zM181.115 567.778l.674.738h.001zm243.94 9.826-.061-.998h-.001zm-353.43 24.899c18.317 15.83 34.902 30.292 50.131 41.478 15.219 11.179 29.189 19.169 42.292 21.965 13.177 2.811 25.437.359 37.106-9.221 11.61-9.532 22.593-26.084 33.42-51.375l-1.839-.787c-10.78 25.182-21.607 41.385-32.85 50.616-11.184 9.182-22.819 11.499-35.42 8.811-12.674-2.705-26.363-10.484-41.525-21.62-15.15-11.129-31.665-25.528-50.007-41.38zm162.949 2.847c10.823-25.284 20.102-53.444 29.041-81.321 8.945-27.895 17.546-55.496 27.028-79.737 9.487-24.253 19.817-45.04 32.177-59.342 12.332-14.271 26.608-22.008 44.067-20.395l.184-1.992c-18.287-1.689-33.148 6.48-45.765 21.079-12.589 14.569-23.019 35.617-32.526 59.921-9.51 24.315-18.135 51.993-27.069 79.855-8.941 27.881-18.194 55.958-28.976 81.145zm132.313-240.795c8.745.808 18.284 4.375 28.431 9.998 10.141 5.619 20.836 13.261 31.883 22.155 22.106 17.798 45.507 40.517 68.626 61.928 23.085 21.379 45.895 41.461 66.723 53.85 20.778 12.36 39.962 17.284 55.519 7.618l-1.056-1.699c-14.526 9.026-32.768 4.659-53.44-7.638-20.622-12.266-43.288-32.206-66.387-53.599-23.064-21.36-46.554-44.162-68.73-62.017-11.094-8.932-21.888-16.651-32.168-22.347-10.274-5.693-20.09-9.398-29.217-10.241zm251.182 155.549c7.738-4.809 13.69-12.57 18.322-22.427s7.973-21.868 10.459-35.264c4.97-26.784 6.554-59.294 8.102-91.547 1.55-32.293 3.064-64.326 7.872-90.294 2.403-12.981 5.621-24.394 10.048-33.539 4.428-9.144 10.032-15.954 17.175-19.838l-.956-1.757c-7.633 4.15-13.482 11.352-18.019 20.724-4.536 9.37-7.795 20.977-10.214 34.045-4.838 26.13-6.356 58.313-7.904 90.564-1.55 32.291-3.13 64.653-8.071 91.277-2.469 13.309-5.771 25.136-10.302 34.779-4.532 9.642-10.265 17.04-17.568 21.578zm71.978-292.909c14.264-7.757 30.943-3.014 49.067 8.59 18.088 11.58 37.271 29.776 56.329 48.263 19.018 18.448 37.915 37.188 55.334 49.694 8.714 6.255 17.118 10.996 25.039 13.352 7.938 2.361 15.445 2.341 22.274-1.009l-.881-1.796c-6.26 3.071-13.225 3.148-20.823.888-7.616-2.266-15.811-6.864-24.442-13.06-17.269-12.397-36.038-31.006-55.108-49.504-19.029-18.459-38.356-36.805-56.643-48.513-18.251-11.685-35.814-16.976-51.102-8.662zm208.043 118.89c6.827-3.349 12.47-10.236 17.346-19.596 4.885-9.378 9.066-21.366 12.902-35.099 7.668-27.448 14.025-62.126 21.829-97.232 7.814-35.156 17.088-70.795 30.602-100.36 13.52-29.578 31.211-52.921 55.781-63.702l-.81-1.831c-25.22 11.07-43.187 34.944-56.79 64.701-13.608 29.77-22.918 65.585-30.736 100.758-7.829 35.222-14.152 69.745-21.802 97.128-3.822 13.682-7.959 25.516-12.75 34.713-4.8 9.213-10.19 15.652-16.453 18.724zM68.613 606.332c18.032 15.502 34.379 29.543 49.408 40.327 15.017 10.777 28.82 18.379 41.774 20.91 13.024 2.544 25.144-.048 36.676-9.527 11.477-9.433 22.333-25.653 33.02-50.276l-1.834-.797c-10.639 24.512-21.34 40.391-32.456 49.528-11.062 9.092-22.572 11.541-35.023 9.109-12.521-2.447-26.038-9.841-40.991-20.572-14.943-10.723-31.219-24.7-49.27-40.219zm160.877 1.436c12.387-28.307 22.803-60.299 32.963-91.309 10.168-31.036 20.077-61.076 31.464-85.582l-1.814-.843c-11.447 24.635-21.392 54.795-31.551 85.802-10.167 31.034-20.553 62.928-32.894 91.131zm64.427-176.892c8.564-18.481 18.026-33.778 29.082-44.102 11.026-10.296 23.616-15.63 38.534-14.267l.182-1.992c-15.587-1.424-28.719 4.187-40.081 14.797-11.333 10.582-20.925 26.151-29.532 44.723zm67.616-58.369c17.362 1.584 37.733 13.844 59.592 31.036 21.822 17.164 44.916 39.064 67.751 59.705 22.801 20.61 45.349 39.97 65.984 51.917 20.59 11.92 39.633 16.665 55.169 7.369l-1.027-1.716c-14.531 8.694-32.664 4.47-53.139-7.384-20.429-11.827-42.832-31.047-65.646-51.669-22.779-20.591-45.962-42.574-67.855-59.794-21.856-17.19-42.64-29.812-60.647-31.456zm248.498 150.026c7.685-4.625 13.656-12.134 18.36-21.695s8.169-21.231 10.815-34.262c5.29-26.055 7.339-57.741 9.363-89.264 2.027-31.563 4.03-62.96 9.206-88.573 2.587-12.802 5.958-24.11 10.495-33.244s10.207-16.036 17.365-20.118l-.991-1.737c-7.616 4.343-13.521 11.612-18.166 20.965s-8.059 20.848-10.664 33.738c-5.208 25.773-7.216 57.32-9.241 88.841-2.027 31.562-4.07 63.1-9.327 88.994-2.628 12.943-6.05 24.429-10.65 33.777-4.599 9.347-10.346 16.501-17.597 20.865zm75.604-287.156c14.072-8.027 30.465-4.038 48.249 6.531 17.76 10.555 36.586 27.485 55.311 44.747 18.683 17.223 37.269 34.779 54.444 46.417 17.109 11.593 33.231 17.603 46.801 10.968l-.879-1.797c-12.483 6.104-27.714.752-44.8-10.827-17.02-11.533-35.472-28.957-54.21-46.231-18.696-17.235-37.674-34.316-55.645-44.996-17.947-10.666-35.211-15.135-50.262-6.549zm204.803 108.664c7.108-3.458 13.14-10.35 18.468-19.676 5.335-9.339 10.025-21.226 14.396-34.823 8.738-27.179 16.273-61.427 25.122-96.185 8.861-34.8 19.048-70.157 33.106-99.726 14.063-29.581 31.93-53.223 56.08-64.782l-.87-1.804c-24.75 11.85-42.876 35.984-57.017 65.728-14.147 29.757-24.373 65.276-33.237 100.091-8.875 34.858-16.375 68.964-25.088 96.066-4.354 13.544-8.994 25.279-14.229 34.443-5.242 9.176-11.022 15.666-17.606 18.869zM65.601 610.161c17.746 15.176 33.838 28.79 48.643 39.164 14.794 10.367 28.402 17.57 41.189 19.828 12.854 2.27 24.824-.468 36.234-9.839 11.358-9.33 22.126-25.202 32.752-49.13l-1.828-.812c-10.575 23.814-21.188 39.356-32.194 48.396-10.955 8.998-22.334 11.584-34.616 9.415-12.35-2.18-25.667-9.179-40.39-19.496-14.712-10.309-30.73-23.858-48.49-39.046zm158.818.023c12.364-27.855 22.868-59.294 33.103-89.697 10.245-30.428 20.215-59.806 31.528-83.639l-1.807-.857c-11.373 23.96-21.381 53.458-31.616 83.858-10.243 30.427-20.717 61.771-33.036 89.524zm64.631-173.338c8.466-17.928 17.871-32.711 28.86-42.667 10.96-9.929 23.483-15.05 38.282-13.72l.179-1.992c-15.445-1.388-28.501 3.99-39.804 14.23-11.273 10.213-20.813 25.268-29.325 43.295zm67.141-56.387c17.184 1.549 37.305 13.374 58.886 29.942 21.546 16.541 44.339 37.639 66.893 57.52 22.52 19.851 44.806 38.493 65.243 49.99 20.394 11.473 39.285 16.02 54.777 7.053l-1.002-1.731c-14.511 8.4-32.523 4.339-52.794-7.065-20.229-11.38-42.37-29.886-64.902-49.747-22.497-19.831-45.38-41.01-66.997-57.607-21.582-16.569-42.11-28.742-59.924-30.347zM601.99 524.964c15.256-8.828 24.011-28.908 29.612-54.158 5.615-25.316 8.127-56.183 10.623-86.983 2.499-30.841 4.981-61.616 10.518-86.885 5.551-25.336 14.106-44.791 28.48-53.379l-1.026-1.717c-15.162 9.058-23.85 29.304-29.408 54.667-5.571 25.43-8.062 56.353-10.558 87.152-2.499 30.841-5.003 61.558-10.582 86.712-5.594 25.221-14.21 44.498-28.661 52.86zm79.232-281.405c13.886-8.294 29.995-5.056 47.438 4.48 17.431 9.53 35.899 25.194 54.29 41.228 18.346 15.996 36.619 32.364 53.55 43.134 16.875 10.736 32.804 16.163 46.289 9.595l-.875-1.799c-12.448 6.063-27.516 1.22-44.341-9.483-16.77-10.668-34.904-26.907-53.309-42.954-18.361-16.009-36.99-31.824-54.645-41.476-17.642-9.645-34.606-13.292-49.422-4.442zm201.564 98.438c7.39-3.565 13.81-10.463 19.59-19.751 5.785-9.299 10.983-21.082 15.89-34.542 9.809-26.908 18.524-60.728 28.421-95.135 9.908-34.447 21.011-69.521 35.612-99.091 14.609-29.583 32.651-53.52 56.371-65.855l-.92-1.775c-24.28 12.625-42.563 37.015-57.244 66.744-14.687 29.743-25.83 64.968-35.741 99.424-9.923 34.495-18.601 68.182-28.378 95.003-4.886 13.404-10.029 25.041-15.709 34.17-5.687 9.139-11.858 15.677-18.761 19.007zM62.589 614.002c17.46 14.844 33.308 28.033 47.902 38 14.585 9.959 28.014 16.769 40.643 18.758 12.693 1.999 24.518-.881 35.796-10.148 11.231-9.228 21.887-24.762 32.405-48.011l-1.822-.824c-10.465 23.133-20.967 38.345-31.853 47.29-10.839 8.906-22.089 11.627-34.215 9.717-12.188-1.919-25.321-8.529-39.826-18.434-14.495-9.898-30.265-23.021-47.734-37.872zm156.746-1.401c12.388-27.374 22.981-58.265 33.281-88.067 10.31-29.829 20.323-58.555 31.566-81.702l-1.799-.874c-11.305 23.275-21.357 52.122-31.657 81.922-10.309 29.827-20.871 60.623-33.213 87.897zm64.849-169.772c16.776-34.824 37.379-57.007 66.666-54.406l.177-1.992c-30.674-2.724-51.834 20.635-68.645 55.53zm66.665-54.406c17.004 1.515 36.87 12.902 58.168 28.839 21.264 15.913 43.751 36.2 66.023 55.315 22.237 19.086 44.263 37.007 64.505 48.059 20.204 11.031 38.952 15.393 54.416 6.781l-.973-1.747c-14.511 8.081-32.412 4.17-52.484-6.789-20.034-10.938-41.913-28.726-64.161-47.821-22.214-19.066-44.793-39.433-66.128-55.399-21.303-15.942-41.57-27.66-59.188-29.23zm243.112 138.994c15.16-8.445 24.101-27.871 30.023-52.388 5.938-24.58 8.915-54.621 11.886-84.692 2.974-30.111 5.942-60.254 11.844-85.175 5.915-24.977 14.712-44.393 29.107-53.387l-1.059-1.697c-15.129 9.453-24.068 29.601-29.994 54.623-5.939 25.079-8.918 55.368-11.889 85.44-2.974 30.111-5.941 60.001-11.839 84.418-5.913 24.48-14.699 43.115-29.052 51.111zm82.86-275.642c13.7-8.56 29.525-6.079 46.623 2.418s35.204 22.881 53.257 37.679c18.007 14.76 35.966 29.935 52.653 39.842 16.644 9.88 32.383 14.74 45.794 8.272l-.869-1.801c-12.425 5.992-27.337 1.644-43.904-8.191-16.523-9.809-34.337-24.857-52.406-39.669-18.024-14.774-36.3-29.31-53.635-37.924-17.334-8.613-33.993-11.432-48.572-2.323zm198.327 88.211c7.663-3.694 14.462-10.616 20.686-19.878 6.228-9.269 11.93-20.955 17.369-34.283 10.874-26.645 20.768-60.034 31.716-94.083 10.96-34.085 22.984-68.865 38.136-98.427 15.159-29.575 33.385-53.802 56.685-66.92l-.98-1.742c-23.81 13.402-42.259 38.043-57.485 67.75-15.233 29.72-27.299 64.637-38.26 98.726-10.972 34.125-20.828 67.389-31.663 93.94-5.416 13.27-11.058 24.816-17.178 33.924-6.126 9.115-12.682 15.714-19.895 19.192zM59.589 617.831c17.175 14.518 32.777 27.286 47.162 36.847 14.375 9.556 27.624 15.972 40.097 17.693 12.531 1.729 24.211-1.292 35.357-10.454 11.103-9.126 21.648-24.32 32.058-46.887l-1.816-.838c-10.356 22.45-20.746 37.331-31.512 46.18-10.723 8.814-21.845 11.669-33.814 10.018-12.028-1.66-24.977-7.881-39.263-17.377-14.278-9.49-29.8-22.189-46.978-36.709zm154.674-2.801c12.41-26.899 23.115-57.226 33.491-86.422 10.386-29.222 20.439-57.298 31.562-79.794l-1.793-.887c-11.186 22.623-21.278 50.818-31.653 80.011-10.385 29.22-21.058 59.454-33.423 86.254zm65.052-166.216c16.654-33.665 37.15-54.973 66.193-52.427l.174-1.993c-30.393-2.664-51.454 19.764-68.159 53.533zm66.192-52.427c16.823 1.479 36.436 12.426 57.45 27.733 20.983 15.285 43.165 34.762 65.154 53.112 21.954 18.322 43.718 35.523 63.767 46.128 20.013 10.588 38.618 14.761 54.054 6.499l-.944-1.763c-14.51 7.767-32.3 4.01-52.175-6.504-19.84-10.495-41.457-27.566-63.421-45.895-21.93-18.301-44.204-37.857-65.258-53.193-21.024-15.315-41.03-26.578-58.451-28.11zm240.425 133.472c15.063-8.063 24.19-26.833 30.434-50.616 6.26-23.842 9.703-53.057 13.148-82.399 3.45-29.381 6.904-58.894 13.171-83.468 6.279-24.622 15.319-44.002 29.735-53.408l-1.093-1.675c-15.097 9.851-24.285 29.907-30.58 54.589-6.307 24.729-9.774 54.386-13.219 83.729-3.45 29.382-6.879 58.445-13.096 82.124-6.233 23.738-15.189 41.73-29.444 49.361zm86.487-269.891c13.518-8.819 29.064-7.085 45.822.384 16.769 7.473 34.514 20.588 52.231 34.154 17.669 13.53 35.313 27.511 51.755 36.546 16.409 9.017 31.953 13.295 45.281 6.902l-.865-1.804c-12.393 5.946-27.145 2.11-43.452-6.851-16.275-8.942-33.768-22.801-51.503-36.381-17.688-13.544-35.615-26.809-52.633-34.393-17.029-7.59-33.383-9.591-47.728-.232zm195.089 77.986c7.945-3.811 15.128-10.748 21.8-19.974 6.675-9.232 12.884-20.818 18.857-34.01 11.942-26.375 23.016-59.337 35.012-93.035 12.007-33.729 24.948-68.223 40.646-97.785 15.705-29.575 34.107-54.096 56.987-67.993l-1.04-1.71c-23.33 14.175-41.947 39.073-57.713 68.765-15.774 29.704-28.757 64.323-40.764 98.053-12.019 33.761-23.053 66.604-34.95 92.88-5.946 13.133-12.091 24.584-18.656 33.663-6.57 9.085-13.516 15.732-21.044 19.342zM56.578 621.661C73.467 635.85 88.825 648.195 103 657.35c14.167 9.15 27.238 15.173 39.554 16.626 12.37 1.459 23.905-1.703 34.918-10.76 10.974-9.025 21.407-23.88 31.707-45.768l-1.81-.852c-10.244 21.769-20.522 36.321-31.167 45.075-10.606 8.722-21.601 11.712-33.414 10.319-11.868-1.4-24.634-7.233-38.703-16.32-14.06-9.081-29.336-21.354-46.222-35.54zm152.602-4.213c12.433-26.425 23.231-56.199 33.676-84.794 10.455-28.621 20.55-56.046 31.592-77.868l-1.785-.903c-11.106 21.949-21.241 49.493-31.685 78.085-10.454 28.618-21.221 58.301-33.608 84.628zm65.268-162.662c16.472-32.536 36.919-52.938 65.718-50.447l.172-1.993c-30.111-2.604-51.129 18.857-67.674 51.537zm65.718-50.447c16.642 1.443 36.001 11.951 56.731 26.627 20.702 14.656 42.578 33.321 64.283 50.905 21.672 17.557 43.174 34.037 63.026 44.197 19.821 10.144 38.281 14.132 53.685 6.221l-.914-1.779c-14.508 7.451-32.185 3.847-51.86-6.222-19.644-10.053-40.998-26.407-62.678-43.971-21.645-17.535-43.614-36.278-64.386-50.984-20.745-14.686-40.489-25.493-57.715-26.987zm237.725 127.95c14.962-7.682 24.274-25.796 30.842-48.844 6.583-23.104 10.492-51.49 14.414-80.101 3.927-28.649 7.867-57.53 14.5-81.758 6.644-24.268 15.927-43.612 30.359-53.437l-1.125-1.653c-15.063 10.254-24.499 30.222-31.163 54.562-6.675 24.38-10.631 53.402-14.553 82.015-3.927 28.651-7.819 56.884-14.356 79.824-6.552 22.994-15.676 40.345-29.832 47.613zm90.115-264.14c13.336-9.077 28.607-8.089 45.026-1.645 16.44 6.452 33.826 18.297 51.207 30.63 17.332 12.298 34.662 25.085 50.858 33.246 16.172 8.15 31.518 11.849 44.76 5.529l-.861-1.805c-12.36 5.9-26.951 2.578-42.999-5.51-16.025-8.075-33.198-20.743-50.6-33.091-17.354-12.313-34.932-24.306-51.634-30.861-16.724-6.563-32.773-7.75-46.882 1.853zm191.851 67.76c8.228-3.927 15.794-10.881 22.913-20.071 7.122-9.194 13.837-20.678 20.344-33.735 13.011-26.104 25.263-58.639 38.308-91.984 13.056-33.374 26.914-67.581 43.158-97.14 16.25-29.573 34.83-54.386 57.28-69.062l-1.09-1.675c-22.86 14.944-41.636 40.098-57.943 69.773-16.314 29.687-30.213 64.007-43.267 97.375-13.065 33.397-25.276 65.819-38.236 91.821-6.477 12.996-13.125 24.352-20.135 33.402-7.014 9.055-14.352 15.749-22.193 19.491zM53.566 625.502c16.604 13.86 31.72 25.782 45.688 34.53 13.959 8.744 26.854 14.372 39.013 15.554 12.209 1.187 23.599-2.117 34.479-11.07 10.845-8.925 21.163-23.441 31.35-44.65l-1.803-.866c-10.129 21.088-20.293 35.311-30.817 43.971-10.489 8.632-21.357 11.758-33.016 10.625-11.709-1.139-24.293-6.583-38.145-15.259-13.844-8.672-28.873-20.518-45.468-34.37zm150.53-5.636c12.461-25.944 23.352-55.167 33.861-83.162 10.519-28.022 20.65-54.797 31.612-75.945l-1.776-.921c-11.027 21.275-21.201 48.171-31.708 76.163-10.518 28.018-21.376 57.151-33.792 82.999zm65.473-159.107c16.278-31.408 36.686-50.904 65.244-48.468l.17-1.993c-29.828-2.545-50.816 17.948-67.19 49.54zm65.243-48.468c16.466 1.407 35.572 11.475 56.018 25.519 20.421 14.026 41.99 31.879 63.411 48.698 21.387 16.792 42.626 32.552 62.284 42.268 19.63 9.702 37.947 13.508 53.324 5.955l-.882-1.795c-14.511 7.128-32.078 3.673-51.556-5.953-19.449-9.613-40.541-25.25-61.935-42.048-21.36-16.77-43.023-34.699-63.513-48.774-20.466-14.057-39.949-24.407-56.98-25.863zm235.037 122.44c14.862-7.302 24.359-24.758 31.25-47.07 6.906-22.364 11.282-49.921 15.68-77.799 4.404-27.916 8.831-56.163 15.83-80.044 7.008-23.914 16.535-43.22 30.983-53.465l-1.157-1.632c-15.03 10.658-24.713 30.539-31.745 54.535-7.043 24.029-11.488 52.415-15.886 80.295-4.405 27.918-8.761 55.321-15.616 77.52-6.871 22.249-16.164 38.959-30.221 45.865zm93.743-258.378c13.158-9.331 28.157-9.087 44.238-3.664 16.111 5.433 33.136 16.011 50.179 27.11 16.992 11.066 34.005 22.655 49.952 29.941 15.933 7.279 31.079 10.397 44.234 4.148l-.858-1.807c-12.327 5.856-26.757 3.053-42.545-4.161-15.774-7.207-32.625-18.682-49.692-29.797-17.017-11.083-34.244-21.803-50.63-27.329-16.416-5.536-32.158-5.913-46.035 3.927zm188.603 57.535c16.982-8.065 31.802-27.838 45.856-53.624 14.079-25.832 27.511-57.94 41.606-90.932 14.105-33.018 28.881-66.941 45.673-96.502 16.8-29.572 35.56-54.68 57.59-70.143l-1.15-1.637c-22.39 15.717-41.33 41.13-58.179 70.792-16.856 29.673-31.672 63.696-45.773 96.704-14.113 33.034-27.501 65.034-41.523 90.761-14.047 25.772-28.609 45.009-44.958 52.774zM50.555 629.332c16.319 13.534 31.193 25.035 44.953 33.379 13.754 8.34 26.473 13.575 38.475 14.489 12.049.918 23.294-2.526 34.041-11.375 10.715-8.822 20.917-23 30.988-43.53l-1.796-.88c-10.011 20.407-20.06 34.301-30.463 42.866-10.371 8.539-21.112 11.801-32.618 10.925-11.551-.88-23.954-5.937-37.59-14.205-13.629-8.265-28.41-19.688-44.714-33.209zm148.457-7.036c12.496-25.469 23.481-54.137 34.055-81.529 10.585-27.418 20.753-53.538 31.633-74.012l-1.766-.939c-10.948 20.601-21.159 46.843-31.732 74.231-10.584 27.414-21.536 55.993-33.986 81.368zM264.7 466.755c16.095-30.279 36.455-48.86 64.771-46.489l.167-1.993c-29.543-2.473-50.489 17.039-66.704 47.543zm64.771-46.489c16.286 1.371 35.137 10.999 55.298 24.411 20.138 13.396 41.399 30.437 62.536 46.49 21.104 16.026 42.08 31.064 61.544 40.334 19.44 9.259 37.616 12.882 52.969 5.683l-.849-1.811c-14.519 6.808-31.978 3.506-51.26-5.677-19.256-9.172-40.086-24.091-61.194-40.122-21.075-16.005-42.431-33.12-62.638-46.562-20.184-13.428-39.405-23.322-56.239-24.739zm232.347 116.917c14.758-6.923 24.439-23.72 31.653-45.296 7.228-21.622 12.072-48.347 16.947-75.491 4.882-27.182 9.796-54.796 17.162-78.331 7.374-23.563 17.147-42.835 31.609-53.508l-1.187-1.61c-14.999 11.069-24.928 30.868-32.331 54.52-7.411 23.68-12.346 51.429-17.222 78.575-4.882 27.184-9.702 53.754-16.875 75.211-7.189 21.504-16.65 37.573-30.605 44.12zm97.371-252.626c12.984-9.585 27.715-10.085 43.462-5.679 15.784 4.416 32.449 13.726 49.153 23.59 16.653 9.834 33.35 20.223 49.047 26.632 15.692 6.406 30.637 8.945 43.705 2.766l-.855-1.808c-12.294 5.813-26.564 3.531-42.094-2.809-15.524-6.338-32.053-16.622-48.786-26.503-16.682-9.851-33.56-19.297-49.631-23.794-16.108-4.507-31.542-4.078-45.188 5.995zm185.367 47.309c17.559-8.3 33.335-27.923 48.461-53.444 15.148-25.559 29.76-57.241 44.903-89.88 15.155-32.664 30.848-66.3 48.184-95.86 17.346-29.57 36.276-54.97 57.886-71.214l-1.21-1.599c-21.92 16.484-41.01 42.155-58.401 71.801-17.393 29.657-33.126 63.382-48.273 96.03-15.158 32.671-29.724 64.249-44.81 89.703-15.108 25.491-30.625 44.634-47.595 52.655zM47.543 633.161c16.034 13.206 30.668 24.285 44.223 32.224 13.549 7.935 26.092 12.778 37.939 13.423 23.866 1.301 44.333-14.415 64.223-54.094l-1.788-.896c-19.795 39.488-39.709 54.226-62.326 52.993-11.395-.621-23.618-5.292-37.038-13.152-13.414-7.857-27.95-18.854-43.962-32.042zm146.385-8.447c12.524-24.988 23.601-53.105 34.239-79.896 10.65-26.818 20.854-52.29 31.653-72.089l-1.756-.958c-10.869 19.927-21.118 45.521-31.755 72.309-10.648 26.814-21.691 54.842-34.169 79.738zm65.892-151.985c15.911-29.152 36.222-46.827 64.298-44.511l.164-1.993c-29.258-2.414-50.162 16.13-66.217 45.546zm64.297-44.511c16.107 1.338 34.705 10.527 54.582 23.308 19.855 12.767 40.81 28.996 61.663 44.281 20.819 15.261 41.533 29.576 60.801 38.399 19.246 8.813 37.278 12.253 52.601 5.407l-.816-1.826c-14.52 6.488-31.868 3.34-50.952-5.399-19.062-8.729-39.629-22.931-60.452-38.194-20.789-15.238-41.839-31.539-61.764-44.35-19.904-12.799-38.861-22.237-55.497-23.619zm229.647 111.395c14.655-6.545 24.524-22.68 32.063-43.518 7.554-20.88 12.866-46.77 18.219-73.179 5.36-26.446 10.763-53.426 18.493-76.618 7.738-23.214 17.754-42.452 32.224-53.561l-1.218-1.586c-14.961 11.485-25.133 31.205-32.903 54.515-7.777 23.331-13.203 50.442-18.556 76.853-5.361 26.448-10.646 52.182-18.14 72.896-7.51 20.756-17.14 36.184-30.998 42.372zm100.999-246.876c12.812-9.832 27.279-11.078 42.697-7.685 15.458 3.402 31.765 11.445 48.13 20.072 16.313 8.6 32.693 17.787 48.138 23.316 15.447 5.53 30.188 7.489 43.165 1.382l-.851-1.81c-12.259 5.769-26.368 4.012-41.64-1.455-15.274-5.467-31.481-14.557-47.88-23.202-16.347-8.618-32.876-16.789-48.633-20.256-15.797-3.477-30.925-2.247-44.343 8.052zm182.13 37.085c18.136-8.536 34.863-28.011 51.059-53.264 16.216-25.285 32.007-56.54 48.2-88.827 16.203-32.308 32.814-65.66 50.697-95.22 17.891-29.57 37.001-55.263 58.181-72.297l-1.26-1.558c-21.45 17.254-40.7 43.186-58.632 72.82-17.933 29.642-34.581 63.071-50.774 95.358-16.204 32.309-31.947 63.464-48.096 88.644-16.169 25.212-32.639 44.257-50.226 52.534zM44.543 636.991c15.75 12.877 30.145 23.535 43.495 31.068 13.347 7.531 25.719 11.98 37.411 12.357 23.536.759 43.77-14.956 63.417-53.283l-1.78-.913c-19.547 38.133-39.242 52.918-61.573 52.197-11.241-.362-23.287-4.649-36.492-12.1-13.2-7.449-27.492-18.021-43.212-30.874zm144.323-9.858c12.565-24.514 23.733-52.078 34.434-78.268 10.713-26.217 20.95-51.037 31.674-70.162l-1.745-.978c-10.796 19.253-21.08 44.197-31.78 70.383-10.711 26.213-21.845 53.691-34.363 78.112zm66.108-148.43c15.715-28.024 35.988-44.794 63.825-42.532l.162-1.994c-28.972-2.354-49.846 15.221-65.732 43.548zm63.825-42.532c15.928 1.301 34.271 10.05 53.861 22.198 19.572 12.137 40.218 27.553 60.787 42.07 20.534 14.494 40.985 28.087 60.06 36.465 19.055 8.37 36.948 11.629 52.248 5.139l-.781-1.841c-14.531 6.164-31.774 3.168-50.663-5.129-18.87-8.288-39.175-21.772-59.711-36.268-20.503-14.471-41.246-29.957-60.886-42.136-19.622-12.167-38.314-21.148-54.753-22.492zm226.956 105.872c14.547-6.169 24.599-21.643 32.462-41.742 7.879-20.136 13.662-45.19 19.494-70.862 5.84-25.709 11.732-52.052 19.829-74.899 8.104-22.865 18.365-42.067 32.842-53.611l-1.247-1.563c-14.926 11.901-25.341 31.543-33.48 54.506-8.145 22.981-14.063 49.45-19.895 75.124-5.84 25.709-11.592 50.607-19.405 70.577-7.828 20.008-17.626 34.796-31.381 40.629zm104.627-241.114c12.642-10.079 26.848-12.071 41.939-9.688 15.135 2.39 31.082 9.168 47.105 16.559 15.972 7.366 32.033 15.35 47.225 19.998 15.2 4.65 29.736 6.03 42.626-.009l-.848-1.811c-12.227 5.728-26.177 4.501-41.193-.093-15.024-4.596-30.908-12.492-46.972-19.902-16.012-7.385-32.19-14.279-47.631-16.717-15.483-2.445-30.303-.421-43.498 10.1zm178.895 26.86c18.715-8.769 36.394-28.097 53.66-53.082 17.285-25.011 34.255-55.841 51.497-87.775 17.253-31.954 34.781-65.019 53.212-94.58 18.434-29.567 37.724-55.552 58.474-73.37l-1.3-1.517c-20.98 18.018-40.4 44.209-58.871 73.83-18.472 29.626-36.036 62.759-53.275 94.687-17.249 31.947-34.169 62.681-51.382 87.588-17.231 24.934-34.657 43.878-52.863 52.408zM41.532 640.832c15.465 12.552 29.621 22.79 42.768 29.919 13.145 7.128 25.344 11.184 36.88 11.292 23.205.219 43.204-15.5 62.601-52.48l-1.771-.929c-19.294 36.783-38.768 51.617-60.811 51.409-11.087-.104-22.955-4.006-35.945-11.05-12.988-7.043-27.034-17.192-42.462-29.714zm142.249-11.269c12.605-24.033 23.865-51.043 34.628-76.632 10.774-25.616 21.041-49.786 31.684-68.242l-1.733-.999c-10.717 18.586-21.034 42.882-31.795 68.466-10.772 25.612-21.998 52.536-34.555 76.478zm66.312-144.874c15.519-26.907 35.764-42.762 63.353-40.555l.159-1.993c-28.673-2.294-49.528 14.299-65.245 41.549zm63.352-40.555c15.75 1.266 33.84 9.573 53.145 21.088 19.29 11.506 39.628 26.108 59.912 39.858 20.251 13.728 40.439 26.599 59.319 34.534 18.864 7.927 36.615 11.01 51.89 4.882l-.745-1.856c-14.54 5.833-31.675 2.987-50.37-4.87-18.678-7.85-38.721-20.618-58.972-34.345-20.218-13.706-40.653-28.375-60.01-39.921-19.34-11.536-37.768-20.058-54.008-21.363zm224.266 100.362c14.437-5.793 24.675-20.605 32.865-39.963 8.205-19.393 14.461-43.609 20.774-68.545 6.322-24.971 12.706-50.678 21.171-73.183 8.471-22.518 18.976-41.687 33.457-53.672l-1.275-1.541c-14.888 12.323-25.545 31.891-34.054 54.509-8.513 22.632-14.924 48.46-21.238 73.396-6.322 24.971-12.542 49.031-20.677 68.257-8.148 19.259-18.114 33.407-31.768 38.886zm108.267-235.363c12.472-10.322 26.417-13.061 41.187-11.685 14.811 1.38 30.4 6.894 46.082 13.047 15.63 6.132 31.371 12.909 46.308 16.673 14.95 3.768 29.281 4.571 42.083-1.401l-.846-1.812c-12.195 5.688-25.986 4.994-40.749 1.274-14.775-3.724-30.337-10.425-46.066-16.596-15.678-6.151-31.503-11.767-46.627-13.176-15.165-1.413-29.676 1.4-42.647 12.135zm175.66 16.634c19.296-8.999 37.926-28.181 56.261-52.894 18.353-24.736 36.501-55.14 54.792-86.722 18.302-31.601 36.747-64.381 55.725-93.944 18.984-29.568 38.454-55.848 58.774-74.457l-1.35-1.475c-20.52 18.787-40.1 45.241-59.107 74.851-19.01 29.614-37.49 62.455-55.773 94.023-18.293 31.586-36.39 61.899-54.667 86.532-18.293 24.656-36.677 43.495-55.501 52.274zM38.521 644.662c15.183 12.223 29.104 22.041 42.05 28.766s24.973 10.386 36.354 10.226c22.874-.32 42.635-16.039 61.771-51.671l-1.762-.947c-19.029 35.434-38.28 50.314-60.037 50.618-10.934.154-22.627-3.364-35.404-10.001-12.776-6.637-26.579-16.361-41.718-28.549zm140.175-12.679c12.651-23.553 24-50.011 34.822-74.999 10.834-25.015 21.132-48.533 31.705-66.308l-1.719-1.022c-10.651 17.907-21.001 41.553-31.821 66.536-10.832 25.01-22.146 51.383-34.749 74.846zm66.527-141.307c15.322-25.78 35.529-40.731 62.881-38.578l.157-1.994c-28.384-2.234-49.209 13.389-64.757 39.55zm62.881-38.578c15.574 1.23 33.411 9.096 52.431 19.977 19.007 10.875 39.036 24.663 59.034 37.645 19.965 12.961 39.887 25.109 58.571 32.598 18.669 7.484 36.278 10.389 51.527 4.618l-.708-1.87c-14.55 5.506-31.576 2.811-50.075-4.604-18.484-7.41-38.263-19.46-58.226-32.42-19.931-12.938-40.058-26.791-59.13-37.703-19.059-10.904-37.223-18.968-53.267-20.235zm221.563 94.839c14.327-5.42 24.749-19.568 33.267-38.186 8.531-18.648 15.259-42.026 22.053-66.224 6.804-24.232 13.678-49.303 22.51-71.465 8.836-22.172 19.585-41.307 34.065-53.737l-1.302-1.518c-14.849 12.746-25.745 32.243-34.621 54.514-8.88 22.282-15.784 47.469-22.577 71.665-6.804 24.23-13.492 47.452-21.947 65.933-8.469 18.511-18.604 32.021-32.156 37.147zm111.895-229.612c24.584-21.105 54.766-13.993 85.507-4.144 15.287 4.898 30.706 10.467 45.383 13.346 14.695 2.883 28.815 3.111 41.524-2.793l-.843-1.814c-12.157 5.648-25.787 5.491-40.296 2.645-14.526-2.85-29.764-8.357-45.158-13.289-30.621-9.811-61.895-17.381-87.419 4.531zm172.414 6.409c19.878-9.233 39.457-28.273 58.862-52.715 19.42-24.461 38.746-54.44 58.087-85.67 19.352-31.248 38.712-63.74 58.237-93.306 19.528-29.567 39.168-56.14 59.068-75.537l-1.4-1.432c-20.05 19.552-39.79 46.268-59.337 75.867-19.546 29.598-38.942 62.148-58.269 93.355-19.337 31.227-38.611 61.118-57.952 85.479-19.356 24.381-38.698 43.115-58.139 52.145zM35.51 648.492c29.745 23.748 54.748 37.626 77.161 36.773 22.546-.859 42.07-16.577 60.94-50.862l-1.752-.965c-18.76 34.085-37.79 49.01-59.264 49.828-21.607.823-46.09-12.588-75.837-36.337zm138.101-14.089c12.697-23.067 24.137-48.974 35.019-73.363 10.895-24.416 21.22-47.288 31.711-64.388l-1.705-1.046c-10.573 17.234-20.952 40.235-31.832 64.62-10.893 24.412-22.297 50.234-34.945 73.212zm66.73-137.751c15.124-24.653 35.293-38.689 62.41-36.602l.154-1.994c-28.094-2.163-48.888 12.479-64.269 37.55zm62.41-36.602c15.397 1.194 32.98 8.617 51.714 18.864 18.724 10.241 38.445 23.214 58.159 35.426 19.681 12.192 39.341 23.617 57.832 30.662 18.479 7.041 35.95 9.771 51.177 4.364l-.669-1.885c-14.565 5.173-31.488 2.628-49.796-4.348-18.295-6.971-37.813-18.303-57.491-30.493-19.645-12.17-39.465-25.205-58.252-35.481-18.776-10.27-36.675-17.874-52.52-19.103zm218.882 89.316c14.216-5.049 24.824-18.533 33.671-36.409 8.86-17.902 16.063-40.438 23.339-63.896 7.287-23.491 14.653-47.922 23.85-69.741 9.201-21.826 20.191-40.926 34.664-53.803l-1.329-1.495c-14.805 13.173-25.936 32.598-35.178 54.521-9.244 21.93-16.642 46.471-23.917 69.925-7.285 23.487-14.444 45.867-23.221 63.602-8.79 17.76-19.096 30.634-32.548 35.411zm115.524-223.849c24.246-21.576 53.731-17.009 83.758-9.648 14.944 3.664 30.041 8.022 44.457 10.016 14.437 1.998 28.347 1.652 40.964-4.184l-.839-1.815c-12.123 5.607-25.593 5.991-39.851 4.018-14.28-1.975-29.195-6.286-44.255-9.977-29.979-7.35-60.466-12.237-85.563 10.095zm169.179-3.816c20.464-9.465 40.994-28.362 61.468-52.53 20.488-24.185 40.993-53.737 61.383-84.614C970.008 122.74 1010.33 55.689 1049.3 15.273l-1.44-1.388c-39.14 40.59-79.62 107.903-120.342 169.57-20.383 30.865-40.833 60.335-61.24 84.423-20.42 24.104-40.721 42.729-60.781 52.008zM32.511 652.334c29.182 23.096 53.81 35.944 75.922 34.556 22.219-1.395 41.507-17.114 60.104-50.056l-1.742-.983c-18.485 32.743-37.294 47.713-58.487 49.043-21.3 1.337-45.4-11.053-74.556-34.128zm136.026-15.5c12.748-22.58 24.278-47.935 35.218-71.726 10.953-23.819 21.305-46.043 31.726-62.468l-1.689-1.071c-10.507 16.561-20.916 38.918-31.854 62.704-10.951 23.814-22.444 49.085-35.143 71.578zm66.944-134.194c14.926-23.527 35.057-36.659 61.94-34.626l.151-1.994c-27.803-2.103-48.567 11.569-63.78 35.549zm61.939-34.626c15.22 1.161 32.55 8.143 50.998 17.757 18.44 9.61 37.851 21.768 57.278 33.211 19.395 11.424 38.79 22.125 57.085 28.726 18.284 6.598 35.615 9.155 50.818 4.11l-.63-1.899c-14.578 4.838-31.395 2.444-49.509-4.092-18.104-6.533-37.359-17.147-56.749-28.568-19.358-11.403-38.868-23.62-57.369-33.262-18.493-9.637-36.124-16.784-51.769-17.977zm216.179 83.804c14.101-4.681 24.893-17.5 34.069-34.634 9.189-17.156 16.866-38.849 24.626-61.566 7.77-22.749 15.629-46.541 25.194-68.018 9.566-21.481 20.799-40.549 35.264-53.88l-1.355-1.471c-14.762 13.604-26.128 32.962-35.736 54.537-9.611 21.579-17.502 45.475-25.26 68.185-7.768 22.742-15.397 44.28-24.496 61.269-9.11 17.01-19.586 29.248-32.936 33.679zM632.752 333.72c23.92-22.049 52.709-20.031 82.021-15.151 14.597 2.431 29.369 5.579 43.52 6.688 14.176 1.111 27.875.193 40.404-5.578l-.836-1.816c-12.092 5.569-25.402 6.498-39.412 5.4-14.035-1.1-28.624-4.215-43.348-6.667-29.331-4.883-59.023-7.097-83.704 15.653zm165.945-14.041c21.047-9.694 42.526-28.45 64.069-52.344 21.554-23.907 43.237-53.035 64.676-83.56 42.919-61.106 84.818-127.734 122.918-169.724l-1.48-1.344c-38.21 42.113-80.262 108.964-123.074 169.919-21.427 30.506-43.055 59.555-64.526 83.37-21.483 23.829-42.744 42.344-63.42 51.867zM29.5 656.164c28.62 22.45 52.876 34.271 74.688 32.348 21.893-1.93 40.944-17.653 59.262-49.257l-1.73-1.003c-18.204 31.407-36.793 46.424-57.707 48.268-20.995 1.85-44.713-9.523-73.279-31.929zm133.95-16.909c12.807-22.095 24.425-46.898 35.421-70.09 11.009-23.221 21.382-44.798 31.726-60.547l-1.672-1.098c-10.435 15.888-20.868 37.602-31.861 60.788-11.008 23.216-22.588 47.936-35.344 69.944zm67.147-130.637c14.728-22.414 34.82-34.631 61.471-32.652l.148-1.994c-27.51-2.043-48.244 10.648-63.291 33.547zm61.471-32.652c15.043 1.125 32.119 7.663 50.28 16.642 18.156 8.977 37.258 20.318 56.399 30.99 19.109 10.655 38.238 20.631 56.337 26.789 18.09 6.154 35.28 8.54 50.457 3.859l-.589-1.911c-14.592 4.5-31.303 2.255-49.224-3.842-17.913-6.094-36.905-15.991-56.007-26.642-19.072-10.633-38.271-22.03-56.486-31.035-18.209-9.003-35.573-15.69-51.018-16.844zm213.473 78.28c13.985-4.312 24.962-16.466 34.47-32.856 9.519-16.408 17.673-37.257 25.918-59.233 8.256-22.007 16.608-45.159 26.539-66.295 9.932-21.139 21.405-40.174 35.856-53.962l-1.381-1.447c-14.713 14.038-26.312 33.332-36.285 54.558-9.974 21.228-18.361 44.477-26.602 66.443-8.252 21.996-16.353 42.691-25.775 58.933-9.432 16.26-20.08 27.863-33.329 31.948zM628.324 341.9c23.593-22.513 51.693-23.052 80.294-20.65 14.25 1.197 28.7 3.133 42.581 3.355 13.911.224 27.398-1.264 39.836-6.97l-.834-1.818c-12.056 5.531-25.207 7.01-38.97 6.789-13.794-.222-28.055-2.14-42.445-3.349-28.679-2.408-57.578-1.958-81.843 21.196zm162.711-24.265c21.634-9.924 44.063-28.54 66.674-52.159 22.621-23.631 45.482-52.335 67.97-82.508 45.019-60.403 88.481-126.596 125.711-170.173l-1.52-1.3c-37.28 43.634-80.899 110.04-125.795 170.278-22.469 30.149-45.274 58.776-67.811 82.32-22.548 23.555-44.77 41.956-66.063 51.724zM26.49 659.995c28.06 21.799 51.949 32.593 73.464 30.138 21.57-2.461 40.388-18.185 58.421-48.457l-1.718-1.024c-17.918 30.078-36.29 45.139-56.93 47.494-20.695 2.361-44.037-7.999-72.01-29.731zm131.885-18.319c12.87-21.609 24.577-45.864 35.628-68.457 11.066-22.623 21.46-43.55 31.732-58.611l-1.652-1.127c-10.369 15.204-20.828 36.272-31.876 58.859-11.063 22.618-22.732 46.79-35.55 68.312zm67.36-127.069c14.518-21.29 34.583-32.602 61.003-30.677l.145-1.995c-27.215-1.983-47.931 9.739-62.8 31.546zm61.002-30.677c14.87 1.089 31.694 7.183 49.569 15.527 17.873 8.343 36.664 18.868 55.517 28.769 18.823 9.885 37.686 19.137 55.589 24.851 17.896 5.711 34.948 7.926 50.105 3.609l-.548-1.923c-14.611 4.161-31.219 2.067-48.949-3.592-17.723-5.656-36.453-14.835-55.267-24.716-18.784-9.865-37.672-20.441-55.601-28.81-17.924-8.367-35.021-14.593-50.269-15.71zm210.78 72.756c13.865-3.947 25.026-15.434 34.866-31.078 9.849-15.659 18.483-35.661 27.214-56.894 8.744-21.262 17.59-43.771 27.889-64.566 10.297-20.795 22.01-39.797 36.443-54.045l-1.405-1.423c-14.663 14.475-26.493 33.704-36.831 54.58s-19.22 43.475-27.946 64.693c-8.737 21.248-17.312 41.096-27.057 56.59-9.755 15.509-20.574 26.477-33.721 30.22zm126.412-206.583c23.272-22.974 50.683-26.079 78.579-26.152 13.898-.036 28.031.686 41.635.023 13.643-.664 26.917-2.719 39.264-8.361l-.831-1.819c-12.022 5.493-25.012 7.525-38.53 8.183-13.558.66-27.483-.062-41.543-.026-28.02.073-56.123 3.178-79.979 26.729zm159.478-34.49c22.222-10.154 45.601-28.63 69.279-51.974 23.688-23.353 47.728-51.632 71.265-81.451 23.538-29.821 46.589-61.202 68.292-90.762 21.707-29.567 42.067-57.303 60.227-79.865l-1.55-1.254c-18.2 22.604-38.59 50.38-60.289 79.936-21.707 29.563-44.737 60.917-68.25 90.706-23.514 29.79-47.495 57.996-71.099 81.266-23.613 23.28-46.796 41.567-68.706 51.579zM23.48 663.825c27.5 21.15 51.029 30.916 72.247 27.929 21.25-2.991 39.83-18.718 57.562-47.657l-1.706-1.045c-17.615 28.749-35.768 43.854-56.135 46.721-20.398 2.872-43.37-6.477-70.75-27.533zm129.809-19.728c12.932-21.111 24.726-44.815 35.83-66.812 11.119-22.028 21.531-42.313 31.731-56.698l-1.632-1.157c-10.304 14.532-20.784 34.962-31.885 56.954-11.116 22.022-22.869 45.643-35.75 66.669zm67.561-123.51c14.306-20.18 34.344-30.575 60.535-28.705l.142-1.995c-26.919-1.922-47.617 8.819-62.309 29.543zm60.535-28.705c14.693 1.053 31.265 6.702 48.855 14.41 17.589 7.707 36.072 17.413 54.638 26.542 18.538 9.114 37.136 17.64 54.843 22.911 17.701 5.269 34.614 7.317 49.749 3.369l-.505-1.935c-14.629 3.816-31.133 1.87-48.673-3.351-17.535-5.219-36.005-13.68-54.531-22.789-18.498-9.095-37.076-18.849-54.718-26.579-17.641-7.73-34.469-13.495-49.516-14.573zm208.085 67.232c13.747-3.584 25.093-14.405 35.267-29.304 10.183-14.911 19.297-34.066 28.517-54.555 18.481-41.074 37.399-87.506 66.257-116.972l-1.429-1.399c-29.172 29.786-48.249 76.65-66.652 117.55-9.223 20.499-18.274 39.501-28.344 54.248-10.079 14.758-21.074 25.095-34.121 28.497zm130.041-200.831c22.955-23.435 49.676-29.117 76.873-31.661 13.526-1.265 27.38-1.764 40.684-3.306 13.372-1.55 26.433-4.17 38.689-9.747l-.828-1.821c-11.988 5.455-24.816 8.043-38.091 9.581-13.342 1.547-26.892 2.016-40.641 3.302-27.352 2.558-54.66 8.307-78.115 32.253zm156.246-44.714c22.807-10.382 47.133-28.718 71.877-51.785 24.753-23.075 49.97-50.929 74.555-80.395 49.161-58.922 95.871-124.388 131.321-171.073l-1.59-1.209c-35.5 46.753-82.145 112.125-131.267 171.001-24.557 29.432-49.714 57.216-74.383 80.213-24.677 23.005-48.819 41.175-71.342 51.427zM20.47 667.667c26.942 20.5 50.111 29.24 71.03 25.722 20.93-3.519 39.273-19.248 56.701-46.858l-1.691-1.068c-17.313 27.427-35.246 42.575-55.34 45.954-20.104 3.38-42.704-4.961-69.49-25.341zm127.73-21.136c13.008-20.615 24.888-43.771 36.042-65.173 11.172-21.434 21.598-41.076 31.732-54.78l-1.608-1.189c-10.246 13.855-20.746 33.648-31.897 55.045-11.168 21.429-23.006 44.501-35.96 65.029zm67.774-119.953c14.095-19.07 34.105-28.537 60.069-26.732l.138-1.995c-26.621-1.851-47.3 7.899-61.816 27.538zm60.068-26.732c14.519 1.017 30.838 6.22 48.142 13.292 17.304 7.071 35.478 15.96 53.757 24.317 18.252 8.344 36.584 16.145 54.095 20.975 17.507 4.828 34.283 6.711 49.396 3.135l-.461-1.947c-14.65 3.468-31.051 1.669-48.403-3.116-17.347-4.784-35.556-12.528-53.795-20.866-18.211-8.326-36.478-17.258-53.833-24.35s-33.913-12.396-48.758-13.435zm205.39 61.719c13.626-3.226 25.155-13.38 35.664-27.533 10.515-14.161 20.111-32.467 29.819-52.212 19.457-39.575 39.386-84.94 68.188-115.334l-1.451-1.375c-29.069 30.675-49.156 76.417-68.532 115.826-9.709 19.748-19.235 37.904-29.63 51.903-10.402 14.009-21.572 23.714-34.519 26.778zm133.671-195.079c22.641-23.891 48.671-32.158 75.172-37.171 6.629-1.253 13.281-2.302 19.92-3.343 6.635-1.04 13.259-2.072 19.807-3.29 13.097-2.435 25.941-5.62 38.104-11.135l-.826-1.822c-11.95 5.419-24.614 8.568-37.644 10.991-6.515 1.211-13.109 2.239-19.75 3.28-6.637 1.04-13.318 2.094-19.983 3.354-26.675 5.045-53.19 13.425-76.251 37.761zm153.003-54.939c46.754-21.2 101.106-72.75 152.343-130.94 51.27-58.228 99.54-123.243 134.11-171.524l-1.62-1.165c-34.57 48.264-82.787 113.215-133.991 171.367-51.236 58.189-105.342 109.435-151.668 130.44zM17.471 671.498c26.385 19.857 49.204 27.574 69.828 23.527 20.612-4.044 38.718-19.78 55.826-46.072l-1.677-1.091c-16.994 26.117-34.708 41.31-54.534 45.201-19.814 3.888-42.051-3.453-68.24-23.163zm125.654-22.545c13.088-20.117 25.055-42.725 36.257-63.531 11.221-20.84 21.656-39.836 31.716-52.851l-1.582-1.223c-10.181 13.171-20.696 32.326-31.895 53.126-11.217 20.834-23.14 43.357-36.173 63.389zm67.973-116.382c13.884-17.964 33.867-26.513 59.604-24.761l.136-1.996c-26.323-1.791-46.984 6.981-61.322 25.534zm59.604-24.762c14.344.984 30.411 5.742 47.43 12.176 17.022 6.435 34.887 14.503 52.879 22.085 17.966 7.571 36.03 14.645 53.343 19.031 17.31 4.386 33.944 6.106 49.03 2.902l-.415-1.956c-14.666 3.114-30.961 1.464-48.123-2.884-17.158-4.348-35.107-11.371-53.058-18.936-17.925-7.554-35.881-15.661-52.948-22.113-17.07-6.453-33.359-11.296-48.002-12.3zm202.683 56.194c13.503-2.869 25.215-12.358 36.06-25.762 10.85-13.412 20.929-30.866 31.128-49.865 20.438-38.074 41.378-82.363 70.113-113.687l-1.474-1.352c-28.954 31.563-50.05 76.181-70.401 114.093-10.196 18.993-20.2 36.301-30.921 49.553-10.727 13.259-22.075 22.335-34.921 25.064zm137.301-189.314c22.329-24.347 47.667-35.212 73.48-42.694 12.938-3.749 25.919-6.631 38.771-9.956 12.822-3.318 25.45-7.063 37.519-12.514l-.823-1.823c-11.912 5.381-24.411 9.092-37.197 12.401-12.754 3.3-25.861 6.213-38.827 9.971-25.993 7.535-51.722 18.539-74.397 43.263zm149.77-65.164c47.946-21.66 104.908-72.209 158.246-129.7C972.067 122.304 1021.91 57.721 1055.61 7.861l-1.66-1.12c-33.65 49.781-83.424 114.283-136.714 171.723-53.318 57.47-110.049 107.756-157.603 129.239zM14.462 675.329c25.829 19.209 48.298 25.902 68.624 21.327 20.295-4.567 38.163-20.307 54.95-45.279l-1.66-1.116c-16.676 24.808-34.171 40.043-53.729 44.444-19.527 4.395-41.4-1.949-66.992-20.981zm123.574-23.952c13.181-19.61 25.231-41.67 36.479-61.884 11.267-20.25 21.707-38.607 31.705-50.94l-1.553-1.259c-10.13 12.495-20.656 31.019-31.9 51.227-11.263 20.243-23.268 42.217-36.391 61.74zm68.185-112.824c13.66-16.859 33.627-24.488 59.14-22.791l.132-1.996c-26.022-1.731-46.676 6.064-60.826 23.528zm59.139-22.791c14.173.948 29.991 5.257 46.725 11.054 16.739 5.798 34.295 13.045 51.999 19.853 17.678 6.798 35.475 13.146 52.59 17.091 17.112 3.944 33.608 5.502 48.673 2.67l-.37-1.965c-14.687 2.761-30.88 1.258-47.854-2.654-16.971-3.912-34.658-10.216-52.321-17.009-17.639-6.783-35.282-14.064-52.062-19.876-16.784-5.813-32.803-10.194-47.246-11.16zm199.987 50.668c13.38-2.516 25.276-11.34 36.458-23.995 11.187-12.661 21.752-29.263 32.443-47.516 21.423-36.573 43.375-79.784 72.03-112.05l-1.495-1.328c-28.828 32.46-50.933 75.957-72.26 112.367-10.684 18.24-21.167 34.697-32.216 47.202-11.054 12.511-22.582 20.958-35.33 23.355zm140.931-183.561c22.022-24.797 46.66-38.264 71.787-48.216 12.576-4.981 25.256-9.076 37.814-13.279 12.546-4.199 24.961-8.504 36.938-13.893l-.821-1.824c-11.878 5.345-24.21 9.623-36.752 13.821-12.529 4.193-25.276 8.309-37.915 13.315-25.303 10.022-50.248 23.639-72.546 48.748zm146.539-75.388c49.139-22.115 108.71-71.663 164.149-128.455C972.425 122.214 1023.85 58.053 1056.67 6.605l-1.68-1.076c-32.74 51.313-84.075 115.368-139.455 172.1-55.4 56.752-114.757 106.074-163.539 128.028zM11.453 679.172c25.274 18.561 47.4 24.233 67.43 19.135 19.98-5.087 37.611-20.831 54.064-44.495l-1.643-1.142c-16.347 23.512-33.623 38.788-52.915 43.698-19.245 4.899-40.76-.454-65.752-18.808zm121.494-25.36c13.273-19.096 25.408-40.611 36.699-60.236 11.312-19.663 21.754-37.384 31.684-49.028l-1.522-1.298c-10.073 11.813-20.609 29.71-31.896 49.328-11.308 19.656-23.394 41.083-36.608 60.092zm68.383-109.264c13.438-15.768 33.387-22.465 58.666-20.823l.13-1.995c-25.708-1.671-46.356 5.137-60.318 21.52zm58.666-20.823c13.999.912 29.566 4.773 46.016 9.93 16.456 5.159 33.704 11.584 51.119 17.617 34.736 12.033 70.116 22.504 100.155 17.607l-.322-1.973c-29.465 4.803-64.377-5.468-99.178-17.524-17.353-6.011-34.684-12.465-51.175-17.635-16.497-5.172-32.245-9.09-46.485-10.017zm197.29 45.154c13.258-2.163 25.339-10.321 36.861-22.226 11.525-11.908 22.576-27.657 33.761-45.163 22.41-35.074 45.368-77.201 73.94-110.418l-1.517-1.304c-28.694 33.36-51.808 75.742-74.109 110.646-11.17 17.483-22.134 33.091-33.513 44.848-11.382 11.762-23.093 19.579-35.745 21.644zm144.562-177.806c43.457-50.51 95.733-64.176 143.309-85.615l-.822-1.823c-47.251 21.292-100.169 35.185-144.004 86.133zm143.305-85.613c50.373-22.467 112.555-71.02 170.083-127.136C972.777 122.195 1025.76 58.406 1057.7 5.384l-1.71-1.033c-31.83 52.834-84.69 116.491-142.15 172.541-57.473 56.062-119.453 104.42-169.501 126.741zM8.443 683.003c24.722 17.914 46.511 22.566 66.244 16.946 19.67-5.603 37.062-21.353 53.169-43.713l-1.622-1.169c-16.008 22.222-33.066 37.538-52.095 42.958-18.968 5.403-40.128 1.035-64.522-16.642zm119.413-26.767c13.384-18.576 25.603-39.547 36.934-58.584 11.356-19.078 21.793-36.165 31.658-47.12l-1.486-1.338c-10.023 11.131-20.564 28.405-31.89 47.435-11.351 19.069-23.518 39.95-36.838 58.438zm68.592-105.704c13.216-14.669 33.15-20.443 58.207-18.854l.126-1.996c-25.404-1.611-46.046 4.224-59.819 19.512zm58.207-18.854c27.709 1.755 61.268 13.658 95.552 24.18 34.171 10.487 69.039 19.589 99.029 15.447l-.274-1.981c-29.491 4.073-63.951-4.877-98.169-15.378-34.105-10.467-67.996-22.489-96.012-24.264zm194.581 39.627c13.133-1.814 25.397-9.306 37.257-20.459 11.864-11.156 23.403-26.049 35.083-42.805 23.408-33.581 47.365-74.602 75.852-108.777l-1.536-1.28c-28.552 34.252-52.687 75.529-75.957 108.913-11.658 16.726-23.103 31.482-34.812 42.492-11.711 11.012-23.607 18.201-36.161 19.935zm148.192-172.041c42.824-51.371 92.911-74.693 140.078-95.839l-.818-1.825c-47.181 21.152-97.652 44.628-140.796 96.384zm140.075-95.838c51.56-22.932 116.352-70.492 175.98-125.904C973.116 122.105 1027.68 58.743 1058.74 4.139L1057 3.15c-30.92 54.361-85.326 117.565-144.878 172.907-59.557 55.346-124.161 102.738-175.432 125.542zM5.435 686.834c24.17 17.274 45.626 20.909 65.062 14.769 19.363-6.117 36.52-21.875 52.28-42.942l-1.602-1.198c-15.67 20.946-32.512 36.304-51.28 42.233-18.696 5.906-39.505 2.514-63.297-14.489zm117.342-28.173c13.499-18.045 25.8-38.475 37.168-56.927 11.394-18.496 21.821-34.951 31.62-45.205l-1.446-1.381c-9.975 10.437-20.515 27.094-31.877 45.537-11.389 18.486-23.634 38.822-37.067 56.778zm68.788-102.132c12.983-13.596 32.91-18.411 57.749-16.888l.122-1.996c-25.098-1.539-45.745 3.289-59.318 17.503zm57.749-16.888c27.356 1.683 60.269 11.845 93.968 20.809 33.606 8.939 67.963 16.675 97.915 13.292l-.225-1.987c-29.529 3.335-63.541-4.291-97.176-13.238-33.543-8.923-66.744-19.173-94.36-20.872zm191.883 34.101c13.01-1.471 25.458-8.302 37.66-18.703 12.204-10.403 24.233-24.44 36.41-40.447s24.538-34.035 37.383-52.423c12.852-18.399 26.196-37.17 40.369-54.713l-1.555-1.257c-14.221 17.602-27.6 36.423-40.454 54.824-12.861 18.412-25.189 36.392-37.335 52.359s-24.075 29.871-36.116 40.135c-12.043 10.266-24.127 16.829-36.587 18.238zm151.822-166.286c42.214-52.253 90.056-85.191 136.836-106.064l-.815-1.826c-47.042 20.99-95.147 54.114-137.576 106.633zm136.834-106.063c52.742-23.405 120.144-69.969 181.875-124.672C973.455 122.02 1029.61 59.091 1059.79 2.907l-1.76-.947c-30.02 55.888-85.981 118.634-147.629 173.264-61.644 54.627-128.873 101.05-181.359 124.341zM2.438 690.677c23.62 16.628 44.749 19.246 63.888 12.591 19.057-6.627 35.975-22.393 51.37-42.169l-1.578-1.229c-15.316 19.676-31.94 35.073-50.45 41.509-18.427 6.407-38.89 3.987-62.078-12.337zm115.258-29.578c13.628-17.51 26.007-37.398 37.407-55.269 11.429-17.916 21.838-33.744 31.576-43.302l-1.401-1.428c-9.934 9.751-20.469 25.795-31.861 43.655-11.423 17.905-23.743 37.698-37.299 55.115zm68.982-98.571c12.763-12.516 32.674-16.392 57.295-14.923l.119-1.996c-24.792-1.479-45.433 2.369-58.814 15.491zm57.294-14.923c27.004 1.616 59.277 10.032 92.391 17.436 33.042 7.388 66.887 13.757 96.794 11.137l-.174-1.992c-29.562 2.59-63.128-3.706-96.183-11.097-32.983-7.375-65.494-15.852-92.708-17.48zm189.185 28.573c12.887-1.128 25.519-7.297 38.062-16.946 12.545-9.65 25.067-22.831 37.742-38.088 12.678-15.259 25.538-32.632 38.75-50.682 13.219-18.057 26.79-36.793 40.911-54.814l-1.574-1.234c-14.147 18.054-27.742 36.823-40.951 54.867-13.214 18.053-26.041 35.379-38.674 50.585-12.636 15.21-25.049 28.262-37.423 37.781-12.377 9.52-24.651 15.456-37.017 16.539zm155.465-160.53c41.642-53.146 87.152-95.66 133.605-116.289l-.812-1.828c-46.89 20.823-92.645 63.634-134.367 116.883zM722.226 299.36c53.929-23.872 123.943-69.445 187.772-123.442 63.819-53.989 121.562-116.49 150.852-174.255l-1.78-.904c-29.12 57.415-86.624 119.71-150.364 173.632-63.73 53.913-133.582 99.367-187.29 123.14zM-.569 694.509c22.097 15.306 42.118 17.431 60.333 11.28 18.138-6.125 34.35-20.412 49.001-37.643 14.661-17.241 27.855-37.546 39.91-55.823 12.09-18.332 22.989-34.546 33.114-43.807l-1.349-1.476c-10.35 9.466-21.395 25.927-33.435 44.182-12.075 18.309-25.198 38.5-39.763 55.629-14.574 17.138-30.496 31.093-48.118 37.043-17.546 5.925-36.914 3.96-58.555-11.029zM181.79 568.516c9.973-9.124 24.628-12.839 42.558-13.253 17.915-.413 38.923 2.474 61.437 6.378 44.937 7.793 95.864 19.656 139.332 16.961l-.124-1.996c-43.161 2.675-93.728-9.107-138.867-16.935-22.523-3.907-43.698-6.825-61.825-6.407-18.113.417-33.359 4.168-43.861 13.776zm243.327 10.086c22.051-1.364 44.3-16.817 66.893-39.658 22.625-22.874 45.783-53.358 69.624-85.123 23.859-31.79 48.41-64.877 73.87-93.056 25.468-28.189 51.767-51.377 79.083-63.439l-.808-1.829c-27.706 12.234-54.232 35.673-79.759 63.927-25.534 28.262-50.146 61.432-73.986 93.196-23.858 31.789-46.934 62.158-69.446 84.917-22.545 22.793-44.336 37.754-65.594 39.069zm289.47-281.276c55.118-24.338 127.742-68.919 193.67-122.207C974.166 121.845 1033.5 59.778 1061.9.432l-1.8-.864c-28.21 58.943-87.267 120.784-153.101 173.996-65.815 53.198-138.291 97.678-193.22 121.933z" mask="url(#a)"/></svg>