<svg xmlns="http://www.w3.org/2000/svg" width="331" height="330" fill="none" viewBox="0 0 331 330"><path fill="#e4e3ec" d="M30.017 195.913c1.205-1.203 1.921-2.893 1.921-4.583a6.4 6.4 0 0 0-1.92-4.584c-1.205-1.202-2.898-1.917-4.591-1.917a6.4 6.4 0 0 0-4.59 1.917c-1.205 1.203-1.922 2.893-1.922 4.584 0 1.723.684 3.38 1.921 4.583 1.205 1.203 2.898 1.918 4.59 1.918 1.694-.033 3.387-.715 4.591-1.918m47.468-47.426a6.517 6.517 0 0 0 .032-9.232c-2.539-2.535-6.674-2.535-9.213 0l-.033.033a6.506 6.506 0 0 0 0 9.199 6.47 6.47 0 0 0 9.214 0m-23.734 23.729a6.515 6.515 0 0 0 .033-9.231c-2.54-2.536-6.675-2.536-9.214 0l-.032.032a6.506 6.506 0 0 0 0 9.199c2.539 2.536 6.674 2.536 9.213 0m47.5-47.426c1.205-1.203 1.921-2.893 1.921-4.583a6.38 6.38 0 0 0-1.921-4.583c-1.204-1.203-2.897-1.918-4.59-1.918a6.4 6.4 0 0 0-4.59 1.918c-1.205 1.202-1.921 2.892-1.921 4.583 0 1.723.683 3.38 1.92 4.583 1.205 1.203 2.898 1.918 4.59 1.918a6.8 6.8 0 0 0 4.591-1.918m23.734-23.697c1.205-1.202 1.921-2.893 1.921-4.583 0-1.723-.684-3.38-1.921-4.583-1.204-1.203-2.897-1.918-4.59-1.918a6.4 6.4 0 0 0-4.591 1.918c-1.204 1.202-1.921 2.893-1.921 4.583 0 1.723.684 3.38 1.921 4.583 1.205 1.203 2.898 1.918 4.591 1.918 1.693-.032 3.386-.715 4.59-1.918M172.453 53.7a6.516 6.516 0 0 0 .032-9.232c-2.539-2.535-6.674-2.535-9.213 0l-.033.033a6.507 6.507 0 0 0 0 9.199c2.54 2.535 6.674 2.535 9.214 0m-23.734 23.697a6.517 6.517 0 0 0 .033-9.232c-2.54-2.536-6.675-2.536-9.214 0l-.033.032a6.507 6.507 0 0 0 0 9.2c2.54 2.535 6.675 2.535 9.214 0m47.5-47.427c1.205-1.202 1.921-2.893 1.921-4.583 0-1.723-.684-3.38-1.921-4.583-1.204-1.203-2.897-1.918-4.59-1.918a6.4 6.4 0 0 0-4.591 1.918c-1.204 1.203-1.921 2.893-1.921 4.583a6.4 6.4 0 0 0 1.921 4.584c1.205 1.202 2.898 1.917 4.591 1.917s3.353-.715 4.59-1.918M11.102 177.027c1.204-1.203 1.92-2.893 1.92-4.583a6.4 6.4 0 0 0-1.92-4.584c-1.205-1.202-2.898-1.917-4.59-1.917a6.4 6.4 0 0 0-4.591 1.917C.716 169.063 0 170.754 0 172.444c0 1.723.684 3.38 1.92 4.583 1.205 1.203 2.898 1.918 4.591 1.918 1.693-.033 3.386-.715 4.59-1.918m47.469-47.393a6.517 6.517 0 0 0 .032-9.232c-2.54-2.536-6.674-2.536-9.213 0l-.033.032a6.507 6.507 0 0 0 0 9.2c2.54 2.535 6.674 2.535 9.213 0M34.836 153.33a6.515 6.515 0 0 0 .032-9.231c-2.54-2.536-6.674-2.536-9.213 0l-.033.032a6.506 6.506 0 0 0 0 9.199 6.53 6.53 0 0 0 9.214 0m47.5-47.426c1.204-1.202 1.92-2.893 1.92-4.583 0-1.723-.683-3.38-1.92-4.583-1.205-1.203-2.898-1.918-4.59-1.918a6.4 6.4 0 0 0-4.591 1.918c-1.205 1.202-1.92 2.893-1.92 4.583 0 1.723.683 3.381 1.92 4.583 1.204 1.203 2.897 1.918 4.59 1.918s3.386-.715 4.59-1.918m23.735-23.696c1.204-1.203 1.921-2.894 1.921-4.584 0-1.723-.684-3.38-1.921-4.583s-2.898-1.918-4.591-1.918a6.4 6.4 0 0 0-4.59 1.918c-1.205 1.203-1.921 2.893-1.921 4.583 0 1.723.684 3.38 1.92 4.584 1.205 1.202 2.898 1.917 4.591 1.917 1.693-.032 3.386-.715 4.591-1.918m47.467-47.393a6.517 6.517 0 0 0 .033-9.232c-2.539-2.535-6.674-2.535-9.214 0l-.032.033a6.505 6.505 0 0 0 0 9.199c2.539 2.535 6.674 2.535 9.213 0M129.804 58.51a6.516 6.516 0 0 0 .032-9.231c-2.539-2.536-6.674-2.536-9.213 0l-.033.032a6.507 6.507 0 0 0 0 9.2c2.539 2.535 6.674 2.535 9.214 0m47.5-47.426c1.204-1.203 1.921-2.894 1.921-4.584 0-1.723-.684-3.38-1.921-4.583C176.099.715 174.406 0 172.713 0a6.4 6.4 0 0 0-4.59 1.918c-1.205 1.203-1.921 2.893-1.921 4.583a6.4 6.4 0 0 0 1.921 4.584c1.204 1.202 2.897 1.917 4.59 1.917s3.354-.715 4.591-1.918M48.933 214.767c1.204-1.203 1.92-2.893 1.92-4.584 0-1.723-.683-3.38-1.92-4.583-1.205-1.203-2.898-1.918-4.59-1.918a6.4 6.4 0 0 0-4.591 1.918c-1.205 1.203-1.921 2.893-1.921 4.583 0 1.723.684 3.381 1.92 4.584 1.205 1.202 2.898 1.917 4.591 1.917s3.386-.682 4.59-1.917M96.4 167.373a6.517 6.517 0 0 0 .033-9.232c-2.54-2.535-6.674-2.535-9.214 0l-.032.033a6.506 6.506 0 0 0 0 9.199c2.54 2.535 6.674 2.535 9.213 0m-23.733 23.729a6.516 6.516 0 0 0 .032-9.231c-2.54-2.536-6.674-2.536-9.213 0l-.033.032a6.506 6.506 0 0 0 0 9.199 6.53 6.53 0 0 0 9.214 0m47.5-47.426c1.204-1.203 1.921-2.893 1.921-4.583a6.4 6.4 0 0 0-1.921-4.584c-1.205-1.202-2.898-1.917-4.591-1.917a6.4 6.4 0 0 0-4.59 1.917c-1.205 1.203-1.921 2.894-1.921 4.584s.684 3.38 1.921 4.583c1.204 1.203 2.897 1.918 4.59 1.918a6.8 6.8 0 0 0 4.591-1.918m23.734-23.697c1.204-1.202 1.921-2.893 1.921-4.583a6.38 6.38 0 0 0-1.921-4.583c-1.205-1.203-2.898-1.918-4.591-1.918a6.4 6.4 0 0 0-4.59 1.918c-1.205 1.202-1.921 2.893-1.921 4.583 0 1.723.684 3.381 1.921 4.583 1.204 1.203 2.897 1.918 4.59 1.918 1.693-.032 3.386-.715 4.591-1.918m47.467-47.393a6.517 6.517 0 0 0 .033-9.232c-2.54-2.535-6.674-2.535-9.214 0l-.032.033a6.505 6.505 0 0 0 0 9.199c2.539 2.535 6.674 2.535 9.213 0m-23.734 23.697a6.517 6.517 0 0 0 .033-9.232c-2.539-2.536-6.674-2.536-9.214 0l-.032.032a6.505 6.505 0 0 0 0 9.2c2.539 2.535 6.674 2.535 9.213 0m47.468-47.427c1.205-1.202 1.921-2.893 1.921-4.583 0-1.723-.684-3.38-1.921-4.583-1.204-1.203-2.897-1.918-4.59-1.918a6.4 6.4 0 0 0-4.591 1.918c-1.204 1.235-1.921 2.893-1.921 4.583s.684 3.38 1.921 4.583c1.205 1.203 2.898 1.918 4.591 1.918s3.386-.715 4.59-1.918M67.848 233.652c1.205-1.202 1.921-2.893 1.921-4.583s-.684-3.38-1.92-4.583c-1.205-1.203-2.898-1.918-4.591-1.918a6.4 6.4 0 0 0-4.59 1.918c-1.205 1.203-1.922 2.893-1.922 4.583 0 1.723.684 3.381 1.921 4.583 1.205 1.203 2.898 1.918 4.59 1.918 1.694 0 3.387-.682 4.591-1.918m47.468-47.393a6.516 6.516 0 0 0 .032-9.232c-2.539-2.535-6.674-2.535-9.213 0l-.033.033a6.507 6.507 0 0 0 0 9.199c2.54 2.535 6.674 2.535 9.214 0m-23.734 23.729a6.515 6.515 0 0 0 .033-9.231c-2.54-2.536-6.675-2.536-9.214 0l-.033.032a6.506 6.506 0 0 0 0 9.199c2.54 2.536 6.675 2.536 9.214 0m47.5-47.426c1.205-1.203 1.921-2.893 1.921-4.583a6.4 6.4 0 0 0-1.921-4.584c-1.204-1.202-2.897-1.917-4.59-1.917a6.4 6.4 0 0 0-4.591 1.917c-1.204 1.203-1.921 2.893-1.921 4.584 0 1.723.684 3.38 1.921 4.583 1.205 1.203 2.898 1.918 4.591 1.918a6.8 6.8 0 0 0 4.59-1.918m23.734-23.697c1.205-1.202 1.921-2.893 1.921-4.583a6.38 6.38 0 0 0-1.921-4.583c-1.204-1.203-2.897-1.918-4.59-1.918a6.4 6.4 0 0 0-4.591 1.918c-1.205 1.202-1.921 2.893-1.921 4.583 0 1.723.684 3.381 1.921 4.583 1.205 1.203 2.898 1.918 4.591 1.918a6.8 6.8 0 0 0 4.59-1.918m47.468-47.425a6.516 6.516 0 0 0 .032-9.233c-2.539-2.535-6.674-2.535-9.213 0l-.033.033a6.507 6.507 0 0 0 0 9.2 6.473 6.473 0 0 0 9.214 0m-23.734 23.728a6.515 6.515 0 0 0 .032-9.231c-2.539-2.536-6.674-2.536-9.213 0l-.033.032a6.507 6.507 0 0 0 0 9.199c2.54 2.536 6.642 2.536 9.214 0m47.468-47.426c1.204-1.202 1.92-2.893 1.92-4.583 0-1.723-.683-3.38-1.92-4.583-1.205-1.203-2.898-1.918-4.591-1.918a6.4 6.4 0 0 0-4.59 1.918c-1.205 1.202-1.921 2.893-1.921 4.583s.683 3.38 1.921 4.583c1.204 1.203 2.897 1.918 4.59 1.918 1.726-.032 3.386-.715 4.591-1.918M86.764 252.538c1.204-1.202 1.92-2.893 1.92-4.583a6.38 6.38 0 0 0-1.92-4.583c-1.205-1.203-2.898-1.918-4.59-1.918a6.4 6.4 0 0 0-4.591 1.918c-1.205 1.202-1.921 2.893-1.921 4.583 0 1.723.683 3.381 1.92 4.583 1.205 1.203 2.898 1.918 4.591 1.918s3.386-.682 4.59-1.918m47.468-47.393a6.517 6.517 0 0 0 .033-9.232c-2.54-2.535-6.674-2.535-9.214 0l-.032.033a6.505 6.505 0 0 0 0 9.199c2.539 2.535 6.674 2.535 9.213 0m-23.734 23.697a6.517 6.517 0 0 0 .033-9.232c-2.539-2.535-6.674-2.535-9.214 0l-.032.033a6.506 6.506 0 0 0 0 9.199 6.47 6.47 0 0 0 9.213 0m47.468-47.394c1.205-1.203 1.921-2.893 1.921-4.583a6.44 6.44 0 0 0-1.921-4.584c-1.204-1.202-2.897-1.918-4.59-1.918a6.4 6.4 0 0 0-4.591 1.918c-1.204 1.203-1.921 2.893-1.921 4.584 0 1.722.684 3.38 1.921 4.583 1.205 1.203 2.898 1.918 4.591 1.918 1.725-.033 3.386-.715 4.59-1.918m23.767-23.729c1.204-1.203 1.92-2.893 1.92-4.584 0-1.723-.683-3.38-1.92-4.583-1.205-1.203-2.898-1.918-4.591-1.918a6.4 6.4 0 0 0-4.59 1.918c-1.205 1.203-1.921 2.893-1.921 4.583 0 1.723.683 3.381 1.921 4.584 1.204 1.202 2.897 1.917 4.59 1.917a6.52 6.52 0 0 0 4.591-1.917m47.467-47.394a6.517 6.517 0 0 0 .033-9.232c-2.54-2.535-6.674-2.535-9.214 0l-.032.033a6.505 6.505 0 0 0 0 9.199c2.539 2.536 6.674 2.536 9.213 0m-23.734 23.729a6.516 6.516 0 0 0 .033-9.231c-2.539-2.536-6.674-2.536-9.214 0l-.032.032a6.505 6.505 0 0 0 0 9.199c2.539 2.536 6.641 2.536 9.213 0m47.468-47.426c1.205-1.203 1.921-2.893 1.921-4.583a6.4 6.4 0 0 0-1.921-4.584c-1.205-1.202-2.898-1.917-4.59-1.917a6.4 6.4 0 0 0-4.591 1.918c-1.205 1.202-1.921 2.893-1.921 4.583 0 1.723.684 3.38 1.921 4.583 1.205 1.203 2.898 1.918 4.591 1.918 1.725-.032 3.385-.715 4.59-1.918M105.679 271.424c1.205-1.202 1.921-2.893 1.921-4.583a6.38 6.38 0 0 0-1.921-4.583c-1.205-1.203-2.897-1.918-4.59-1.918a6.4 6.4 0 0 0-4.59 1.918c-1.206 1.202-1.922 2.893-1.922 4.583 0 1.723.684 3.381 1.921 4.583 1.205 1.203 2.898 1.918 4.591 1.918s3.353-.715 4.59-1.918m47.468-47.393a6.516 6.516 0 0 0 .032-9.232c-2.539-2.535-6.674-2.535-9.213 0l-.033.033a6.507 6.507 0 0 0 0 9.199c2.54 2.535 6.674 2.535 9.214 0m-23.734 23.697a6.516 6.516 0 0 0 .032-9.232c-2.539-2.536-6.674-2.536-9.213 0l-.033.032a6.51 6.51 0 0 0 0 9.2c2.54 2.535 6.642 2.535 9.214 0m47.468-47.394c1.204-1.203 1.92-2.893 1.92-4.583a6.4 6.4 0 0 0-1.92-4.584c-1.205-1.202-2.898-1.918-4.591-1.918a6.4 6.4 0 0 0-4.59 1.918c-1.205 1.203-1.921 2.893-1.921 4.584 0 1.722.683 3.38 1.921 4.583 1.204 1.203 2.897 1.918 4.59 1.918s3.386-.715 4.591-1.918m23.766-23.729c1.205-1.203 1.921-2.893 1.921-4.584 0-1.723-.684-3.38-1.921-4.583-1.205-1.203-2.898-1.918-4.591-1.918a6.4 6.4 0 0 0-4.59 1.918c-1.205 1.203-1.921 2.893-1.921 4.583 0 1.723.684 3.381 1.921 4.584 1.205 1.202 2.898 1.917 4.59 1.917a6.52 6.52 0 0 0 4.591-1.917m47.468-47.394a6.516 6.516 0 0 0 .032-9.232c-2.539-2.535-6.674-2.535-9.213 0l-.033.033a6.507 6.507 0 0 0 0 9.199c2.54 2.535 6.674 2.535 9.214 0m-23.767 23.697a6.517 6.517 0 0 0 .033-9.232c-2.54-2.535-6.674-2.535-9.214 0l-.032.033a6.505 6.505 0 0 0 0 9.199c2.572 2.568 6.674 2.568 9.213 0m47.5-47.394c1.205-1.203 1.921-2.893 1.921-4.583 0-1.723-.683-3.38-1.921-4.584-1.204-1.202-2.897-1.917-4.59-1.917a6.4 6.4 0 0 0-4.591 1.917c-1.204 1.203-1.92 2.894-1.92 4.584 0 1.723.683 3.38 1.92 4.583 1.205 1.203 2.898 1.918 4.591 1.918 1.693-.033 3.386-.715 4.59-1.918M124.595 290.31c1.204-1.202 1.92-2.893 1.92-4.583a6.38 6.38 0 0 0-1.92-4.583c-1.205-1.203-2.898-1.918-4.591-1.918a6.4 6.4 0 0 0-4.59 1.918c-1.205 1.202-1.921 2.893-1.921 4.583a6.38 6.38 0 0 0 1.921 4.583c1.204 1.203 2.897 1.918 4.59 1.918s3.353-.715 4.591-1.918m47.467-47.393a6.517 6.517 0 0 0 .033-9.232c-2.54-2.535-6.674-2.535-9.214 0l-.032.033a6.505 6.505 0 0 0 0 9.199c2.539 2.535 6.674 2.535 9.213 0m-23.766 23.696a6.515 6.515 0 0 0 .032-9.231c-2.539-2.536-6.674-2.536-9.213 0l-.033.032a6.507 6.507 0 0 0 0 9.199c2.572 2.536 6.674 2.536 9.214 0m47.5-47.426c1.205-1.202 1.921-2.893 1.921-4.583a6.38 6.38 0 0 0-1.921-4.583c-1.205-1.203-2.898-1.918-4.59-1.918a6.4 6.4 0 0 0-4.591 1.918c-1.205 1.202-1.921 2.893-1.921 4.583 0 1.723.684 3.381 1.921 4.583 1.205 1.203 2.898 1.918 4.591 1.918 1.692 0 3.385-.682 4.59-1.918m23.734-23.697c1.204-1.202 1.921-2.893 1.921-4.583 0-1.723-.684-3.38-1.921-4.583-1.205-1.203-2.898-1.918-4.591-1.918a6.4 6.4 0 0 0-4.59 1.918c-1.205 1.203-1.921 2.893-1.921 4.583s.684 3.381 1.921 4.583c1.205 1.203 2.897 1.918 4.59 1.918a6.54 6.54 0 0 0 4.591-1.918m47.5-47.393a6.517 6.517 0 0 0 .033-9.232c-2.54-2.535-6.674-2.535-9.214 0l-.032.033a6.505 6.505 0 0 0 0 9.199c2.539 2.535 6.641 2.535 9.213 0m-23.766 23.697a6.516 6.516 0 0 0 .032-9.232c-2.539-2.535-6.674-2.535-9.213 0l-.033.033a6.507 6.507 0 0 0 0 9.199c2.572 2.535 6.674 2.535 9.214 0m47.5-47.394c1.205-1.203 1.921-2.893 1.921-4.583a6.4 6.4 0 0 0-1.921-4.584c-1.205-1.202-2.898-1.917-4.591-1.917a6.4 6.4 0 0 0-4.59 1.917c-1.205 1.203-1.921 2.893-1.921 4.584 0 1.723.684 3.38 1.921 4.583 1.204 1.203 2.897 1.918 4.59 1.918 1.693-.033 3.386-.715 4.591-1.918M143.51 309.196c1.205-1.203 1.921-2.893 1.921-4.583a6.38 6.38 0 0 0-1.921-4.583c-1.205-1.203-2.898-1.918-4.591-1.918a6.4 6.4 0 0 0-4.59 1.918c-1.205 1.202-1.921 2.893-1.921 4.583 0 1.723.684 3.38 1.921 4.583 1.205 1.203 2.898 1.918 4.59 1.918 1.693 0 3.354-.715 4.591-1.918m47.468-47.393a6.516 6.516 0 0 0 .032-9.232c-2.539-2.536-6.674-2.536-9.213 0l-.033.032a6.51 6.51 0 0 0 0 9.2c2.54 2.535 6.642 2.535 9.214 0m-23.767 23.696a6.516 6.516 0 0 0 .033-9.231 6.53 6.53 0 0 0-9.214 0l-.032.032a6.505 6.505 0 0 0 0 9.199c2.572 2.536 6.674 2.536 9.213 0m47.501-47.426c1.204-1.202 1.92-2.893 1.92-4.583a6.38 6.38 0 0 0-1.92-4.583c-1.205-1.203-2.898-1.918-4.591-1.918a6.4 6.4 0 0 0-4.591 1.918c-1.204 1.202-1.92 2.893-1.92 4.583 0 1.723.683 3.381 1.92 4.583 1.205 1.203 2.898 1.918 4.591 1.918s3.386-.682 4.591-1.918m23.733-23.697c1.205-1.202 1.921-2.893 1.921-4.583 0-1.723-.684-3.38-1.921-4.583-1.204-1.203-2.897-1.918-4.59-1.918a6.4 6.4 0 0 0-4.591 1.918c-1.204 1.235-1.92 2.893-1.92 4.583 0 1.723.683 3.381 1.92 4.583 1.205 1.203 2.898 1.918 4.591 1.918a6.54 6.54 0 0 0 4.59-1.918m47.468-47.393a6.517 6.517 0 0 0 .033-9.232c-2.54-2.535-6.675-2.535-9.214 0l-.033.033a6.507 6.507 0 0 0 0 9.199c2.572 2.535 6.675 2.535 9.214 0m-23.734 23.697a6.517 6.517 0 0 0 .033-9.232c-2.54-2.535-6.674-2.535-9.214 0l-.032.032a6.506 6.506 0 0 0 0 9.2c2.572 2.535 6.674 2.535 9.213 0m47.5-47.394c1.205-1.203 1.921-2.893 1.921-4.583a6.38 6.38 0 0 0-1.921-4.584c-1.204-1.202-2.897-1.918-4.59-1.918a6.4 6.4 0 0 0-4.591 1.918c-1.204 1.203-1.92 2.893-1.92 4.584 0 1.722.683 3.38 1.92 4.583 1.205 1.203 2.898 1.918 4.591 1.918 1.693-.033 3.386-.715 4.59-1.918M162.393 328.082c1.204-1.203 1.921-2.893 1.921-4.583a6.4 6.4 0 0 0-1.921-4.584c-1.205-1.202-2.898-1.917-4.591-1.917s-3.386.682-4.59 1.917c-1.205 1.203-1.921 2.894-1.921 4.584 0 1.723.684 3.38 1.921 4.583 1.204 1.203 2.897 1.918 4.59 1.918a6.54 6.54 0 0 0 4.591-1.918m47.5-47.393a6.517 6.517 0 0 0 .033-9.232 6.53 6.53 0 0 0-9.214 0l-.032.032a6.506 6.506 0 0 0 0 9.2c2.539 2.535 6.641 2.535 9.213 0m-23.766 23.696a6.515 6.515 0 0 0 .032-9.231c-2.539-2.536-6.674-2.536-9.213 0l-.033.032a6.507 6.507 0 0 0 0 9.199c2.572 2.536 6.674 2.536 9.214 0m47.5-47.426c1.205-1.203 1.921-2.893 1.921-4.583a6.4 6.4 0 0 0-1.921-4.584c-1.205-1.202-2.898-1.917-4.591-1.917s-3.385.682-4.59 1.917c-1.205 1.203-1.921 2.894-1.921 4.584 0 1.723.684 3.38 1.921 4.583 1.205 1.203 2.897 1.918 4.59 1.918s3.386-.683 4.591-1.918m23.734-23.697c1.204-1.202 1.921-2.893 1.921-4.583a6.38 6.38 0 0 0-1.921-4.583c-1.237-1.203-2.898-1.918-4.591-1.918a6.4 6.4 0 0 0-4.59 1.918c-1.205 1.202-1.921 2.893-1.921 4.583 0 1.723.684 3.381 1.921 4.583 1.204 1.203 2.897 1.918 4.59 1.918a6.54 6.54 0 0 0 4.591-1.918m47.467-47.393a6.517 6.517 0 0 0 .033-9.232c-2.539-2.535-6.674-2.535-9.214 0l-.032.033a6.507 6.507 0 0 0 0 9.199c2.572 2.535 6.674 2.535 9.213 0m-23.733 23.697a6.516 6.516 0 0 0 .032-9.232c-2.539-2.535-6.674-2.535-9.213 0l-.033.032a6.51 6.51 0 0 0 0 9.2c2.54 2.535 6.674 2.535 9.214 0m47.5-47.426c1.204-1.203 1.921-2.894 1.921-4.584s-.684-3.38-1.921-4.583-2.898-1.918-4.591-1.918a6.4 6.4 0 0 0-4.59 1.918c-1.205 1.235-1.921 2.893-1.921 4.583 0 1.723.684 3.381 1.921 4.584 1.204 1.202 2.897 1.917 4.59 1.917s3.386-.682 4.591-1.917"/></svg>