<svg width="50" height="50" viewBox="0 0 50 50" fill="none" xmlns="http://www.w3.org/2000/svg">
<path d="M11.8238 17.6219C12.8156 18.5133 14.7817 18.8704 16.5895 18.8704C16.9301 18.8704 17.2645 18.8573 17.5863 18.8331C18.0124 19.2702 18.658 19.6933 19.6224 20.0484C21.0529 20.5751 22.9628 20.8652 25.0001 20.8652C28.0042 20.8652 31.0277 20.2244 32.405 18.8326C32.7296 18.8572 33.0671 18.8705 33.4109 18.8705C35.2185 18.8705 37.1848 18.5133 38.1765 17.622C38.7352 17.1198 38.8524 16.5752 38.8524 16.2067C38.8524 13.4714 36.8199 11.2029 34.1862 10.8295C35.4101 10.4928 36.312 9.37075 36.312 8.0414C36.312 6.44706 35.0148 5.1499 33.4202 5.1499C31.8256 5.1499 30.5283 6.44696 30.5283 8.0414C30.5283 9.37014 31.4295 10.4917 32.6525 10.8289C32.0344 10.9164 31.4385 11.1088 30.8865 11.4006C29.3984 9.85466 27.3106 8.88978 25.0004 8.88978C22.6901 8.88978 20.6022 9.85455 19.114 11.4005C18.5621 11.1087 17.9662 10.9163 17.3482 10.8288C18.5712 10.4916 19.4723 9.37004 19.4723 8.0413C19.4723 6.44696 18.175 5.1498 16.5805 5.1498C14.9859 5.1498 13.6887 6.44686 13.6887 8.0413C13.6887 9.37065 14.5907 10.4927 15.8145 10.8294C13.1806 11.2028 11.1479 13.4713 11.1479 16.2066C11.1479 16.575 11.2651 17.1197 11.8238 17.6219ZM31.9452 8.04119C31.9452 7.22814 32.6069 6.5667 33.4201 6.5667C34.2333 6.5667 34.8949 7.22814 34.8949 8.04119C34.8949 8.85445 34.2333 9.51599 33.4201 9.51599C32.6069 9.51599 31.9452 8.85435 31.9452 8.04119ZM33.4201 12.1912C35.6341 12.1912 37.4353 13.9924 37.4353 16.2065C37.4353 16.2547 37.4353 16.3827 37.2293 16.5679C36.5864 17.1455 34.9004 17.493 33.1432 17.4518C33.1638 17.3262 33.1748 17.1971 33.1748 17.0641C33.1748 15.3896 32.668 13.8317 31.8007 12.5341C32.3076 12.3101 32.8561 12.1912 33.4201 12.1912ZM25.0003 10.3067C28.7263 10.3067 31.7578 13.3381 31.7578 17.0641C31.7578 18.4009 28.7895 19.4481 25 19.4481C21.2107 19.4481 18.2423 18.4009 18.2423 17.0641C18.2424 13.338 21.274 10.3067 25.0003 10.3067ZM15.1057 8.04119C15.1057 7.22814 15.7673 6.5667 16.5805 6.5667C17.3936 6.5667 18.0553 7.22814 18.0553 8.04119C18.0553 8.85445 17.3936 9.51599 16.5805 9.51599C15.7673 9.51599 15.1057 8.85435 15.1057 8.04119ZM16.5805 12.1912C17.1444 12.1912 17.6928 12.3101 18.1996 12.534C17.3323 13.8316 16.8254 15.3896 16.8254 17.064C16.8254 17.1871 16.8351 17.3172 16.8572 17.4518C15.1001 17.4931 13.4138 17.1455 12.771 16.5679C12.5649 16.3827 12.5649 16.2547 12.5649 16.2065C12.5649 13.9925 14.3663 12.1912 16.5805 12.1912ZM49.2916 24.2915H44.8332L44.8237 20.1948L45.6748 20.1807C45.9816 21.0439 46.8063 21.6639 47.7734 21.6639C49.0012 21.6639 50.0001 20.665 50.0001 19.4371C50.0001 18.2093 49.0012 17.2104 47.7734 17.2104C46.7802 17.2104 45.9369 17.8642 45.6509 18.7639L44.1017 18.7897C43.7144 18.7962 43.4041 19.1123 43.405 19.4997L43.4161 24.2915H41.3105L41.2851 15.521H42.7094C43.0061 16.4023 43.8397 17.0392 44.8198 17.0392C46.0477 17.0392 47.0466 16.0403 47.0466 14.8124C47.0466 13.5846 46.0477 12.5857 44.8198 12.5857C43.8398 12.5857 43.0062 13.2226 42.7094 14.1039H40.5745C40.3862 14.1039 40.2057 14.1788 40.0728 14.3122C39.9399 14.4455 39.8655 14.6263 39.866 14.8146L39.8936 24.2915H36.8711C36.4798 24.2915 36.1626 24.6087 36.1626 25C36.1626 31.155 31.1551 36.1623 25.0002 36.1623C18.8453 36.1623 13.8378 31.155 13.8378 25C13.8378 24.6087 13.5205 24.2915 13.1293 24.2915H10.1066L10.134 14.8145C10.1345 14.6262 10.0602 14.4454 9.92723 14.3121C9.79433 14.1788 9.61377 14.1038 9.42551 14.1038H7.29069C6.99403 13.2225 6.16043 12.5856 5.18026 12.5856C3.95243 12.5856 2.95354 13.5845 2.95354 14.8123C2.95354 16.0402 3.95243 17.0391 5.18026 17.0391C6.16032 17.0391 6.99393 16.4022 7.29069 15.5208H8.71498L8.68958 24.2915H6.58401L6.59514 19.4997C6.59605 19.1123 6.28573 18.7962 5.89838 18.7897L4.34919 18.7639C4.06316 17.8642 3.21994 17.2104 2.22682 17.2104C0.998887 17.2104 0 18.2093 0 19.4371C0 20.665 0.998887 21.6639 2.22682 21.6639C3.19393 21.6639 4.01862 21.0439 4.3253 20.1807L5.17642 20.1948L5.167 24.2915H0.708603C0.317308 24.2915 0.000101256 24.6087 0.000101256 25V27.429C0.000101256 28.6996 1.0337 29.7332 2.30425 29.7332C4.2252 29.7332 5.87601 30.8379 6.61265 32.6162C7.34919 34.3944 6.96306 36.343 5.60466 37.7013C4.70628 38.5998 4.70628 40.0615 5.60466 40.96L9.03998 44.3953C9.93836 45.2935 11.4001 45.2935 12.2987 44.3953C13.6588 43.0351 15.6078 42.6473 17.3855 43.3836C19.1629 44.1197 20.2669 45.7721 20.2669 47.6957C20.2669 48.9663 21.3005 50 22.5711 50H27.4293C28.6998 50 29.7334 48.9663 29.7334 47.6957C29.7334 45.7748 30.8381 44.1241 32.6163 43.3874C34.3948 42.6509 36.3433 43.0371 37.7015 44.3954C38.5999 45.2936 40.0616 45.2938 40.9602 44.3954L44.3955 40.9601C45.2939 40.0616 45.2939 38.5999 44.3955 37.7014C43.0372 36.3431 42.651 34.3945 43.3876 32.6163C44.1242 30.838 45.7751 29.7333 47.696 29.7333C48.9665 29.7333 50.0001 28.6997 50.0001 27.4291V25C50.0001 24.6087 49.683 24.2915 49.2916 24.2915ZM47.7734 18.6274C48.2198 18.6274 48.5831 18.9907 48.5831 19.4371C48.5831 19.8836 48.2198 20.2469 47.7734 20.2469C47.3269 20.2469 46.9637 19.8836 46.9637 19.4371C46.9637 18.9907 47.3269 18.6274 47.7734 18.6274ZM44.8199 14.0027C45.2664 14.0027 45.6297 14.366 45.6297 14.8124C45.6297 15.2589 45.2664 15.6222 44.8199 15.6222C44.3735 15.6222 44.0103 15.2589 44.0103 14.8124C44.0103 14.366 44.3735 14.0027 44.8199 14.0027ZM5.18026 15.6222C4.73381 15.6222 4.37055 15.2589 4.37055 14.8124C4.37055 14.366 4.73381 14.0027 5.18026 14.0027C5.62672 14.0027 5.98988 14.366 5.98988 14.8124C5.98988 15.2589 5.62672 15.6222 5.18026 15.6222ZM2.22682 20.2469C1.78026 20.2469 1.417 19.8836 1.417 19.4371C1.417 18.9907 1.78026 18.6274 2.22682 18.6274C2.67328 18.6274 3.03644 18.9907 3.03644 19.4371C3.03644 19.8836 2.67338 20.2469 2.22682 20.2469ZM48.5831 27.429C48.5831 27.9182 48.1851 28.3162 47.696 28.3162C45.191 28.3162 43.0385 29.7561 42.0784 32.0739C41.1183 34.3918 41.6222 36.9321 43.3934 38.7034C43.7394 39.0493 43.7394 39.6122 43.3934 39.9581L39.9581 43.3934C39.6124 43.7392 39.0493 43.7394 38.7034 43.3934C36.9322 41.6222 34.392 41.1181 32.0739 42.0784C29.7561 43.0385 28.3162 45.191 28.3162 47.6958C28.3162 48.185 27.9182 48.5831 27.429 48.5831H22.571C22.0818 48.5831 21.6838 48.185 21.6838 47.6958C21.6838 45.1883 20.2445 43.0342 17.9277 42.0746C17.1512 41.7529 16.3499 41.596 15.5604 41.596C13.9942 41.596 12.4755 42.2146 11.2967 43.3935C10.9507 43.7393 10.3878 43.7395 10.042 43.3935L6.60668 39.9582C6.26073 39.6123 6.26073 39.0494 6.60668 38.7035C8.37794 36.9322 8.88188 34.3919 7.92166 32.074C6.96164 29.7562 4.80911 28.3163 2.30415 28.3163C1.81498 28.3163 1.417 27.9183 1.417 27.4291V25.7085H12.4403C12.8093 32.3162 18.3016 37.5793 25 37.5793C31.6984 37.5793 37.1907 32.3162 37.5597 25.7085H48.5831V27.429ZM16.4701 24.2915C16.0788 24.2915 15.7616 24.6087 15.7616 25C15.7616 30.0941 19.906 34.2385 25.0001 34.2385C30.0941 34.2385 34.2385 30.0941 34.2385 25C34.2385 24.6087 33.9213 24.2915 33.53 24.2915H16.4701ZM25.0001 32.8215C20.926 32.8215 17.5695 29.6905 17.2104 25.7085H32.7897C32.4307 29.6906 29.0741 32.8215 25.0001 32.8215ZM25.0003 8.31802C27.2937 8.31802 29.1596 6.45213 29.1596 4.1587C29.1596 1.86559 27.2938 0 25.0003 0C22.7068 0 20.841 1.86559 20.841 4.1587C20.8411 6.45213 22.7069 8.31802 25.0003 8.31802ZM25.0003 1.417C26.5124 1.417 27.7426 2.64686 27.7426 4.1587C27.7426 5.67075 26.5125 6.90101 25.0003 6.90101C23.4882 6.90101 22.258 5.67085 22.258 4.1587C22.2581 2.64686 23.4883 1.417 25.0003 1.417Z" fill="#3358D3"/>
</svg>
