<svg width="49" height="50" viewBox="0 0 49 50" fill="none" xmlns="http://www.w3.org/2000/svg">
<path d="M29.6985 23.4277C29.594 23.4281 29.4905 23.4075 29.3942 23.3673C29.2978 23.327 29.2104 23.2678 29.1373 23.1932L25.8689 19.8209C25.5736 20.1208 25.2204 20.3575 24.8308 20.5167C24.4412 20.6759 24.0233 20.7543 23.6025 20.747C23.1757 20.736 22.756 20.6356 22.3705 20.4521C21.9851 20.2686 21.6425 20.0061 21.3649 19.6818C20.852 19.0637 20.5823 18.2796 20.6066 17.4767C20.631 16.6738 20.9476 15.9075 21.497 15.3216L18.1966 11.9203C18.0552 11.7745 17.9762 11.5794 17.9762 11.3764C17.9762 11.1733 18.0552 10.9782 18.1966 10.8324L28.044 0.684911C28.4835 0.246318 29.0791 0 29.7 0C30.321 0 30.9166 0.246318 31.3561 0.684911L41.2035 10.8269C41.3448 10.9727 41.4239 11.1678 41.4239 11.3709C41.4239 11.5739 41.3448 11.769 41.2035 11.9148L37.374 15.8616C37.3008 15.9362 37.2135 15.9954 37.1171 16.0357C37.0207 16.0759 36.9173 16.0965 36.8128 16.0961C36.7078 16.0958 36.6039 16.0743 36.5073 16.0329C36.4108 15.9916 36.3236 15.9312 36.2509 15.8554L35.7038 15.2848C35.5601 15.1348 35.3865 15.0166 35.1943 14.9378C35.0021 14.8591 34.7954 14.8215 34.5878 14.8276C34.3777 14.8337 34.1712 14.8836 33.9816 14.9742C33.7919 15.0648 33.6233 15.194 33.4866 15.3536C33.4044 15.4435 33.3373 15.5462 33.2881 15.6576L31.8547 15.0324C31.9695 14.7696 32.126 14.5271 32.3182 14.3142C32.5965 13.9969 32.9375 13.7407 33.3197 13.5616C33.7019 13.3825 34.1169 13.2843 34.5389 13.2734C34.9608 13.2625 35.3804 13.3389 35.7713 13.498C36.1623 13.6571 36.5161 13.8953 36.8105 14.1977L39.5459 11.3764L30.2315 1.77906C30.1621 1.70834 30.0794 1.65215 29.9881 1.6138C29.8967 1.57544 29.7987 1.55569 29.6996 1.55569C29.6006 1.55569 29.5025 1.57544 29.4112 1.6138C29.3199 1.65215 29.2371 1.70834 29.1678 1.77906L19.8464 11.3764L23.1476 14.7792C23.2908 14.9253 23.371 15.1217 23.371 15.3263C23.371 15.5308 23.2908 15.7272 23.1476 15.8733L22.6943 16.3344C22.3904 16.6362 22.2074 17.0388 22.1797 17.4662C22.1521 17.8936 22.2817 18.3164 22.5443 18.6548C22.6804 18.8158 22.8488 18.9463 23.0387 19.0378C23.2285 19.1294 23.4355 19.18 23.6462 19.1863C23.8548 19.1922 24.0623 19.1539 24.2549 19.0737C24.4476 18.9936 24.621 18.8734 24.7638 18.7213L25.3109 18.157C25.3839 18.0825 25.4711 18.0234 25.5674 17.9831C25.6636 17.9428 25.767 17.9222 25.8713 17.9225C25.9756 17.9222 26.0789 17.9428 26.1752 17.9831C26.2714 18.0234 26.3586 18.0825 26.4316 18.157L29.6985 21.5239L31.8344 19.327L32.9551 20.4164L30.2588 23.1909C30.186 23.2658 30.0989 23.3254 30.0026 23.366C29.9064 23.4067 29.803 23.4277 29.6985 23.4277Z" fill="#3358D3"/>
<path d="M8.59693 37.4954C8.54065 37.4954 8.4836 37.4954 8.42733 37.4907C7.63398 37.4329 6.89086 37.0807 6.34385 36.5032C5.79684 35.9257 5.48544 35.1646 5.47077 34.3692H0.781539C0.574262 34.3692 0.375474 34.2869 0.228907 34.1403C0.0823404 33.9938 0 33.795 0 33.5877V19.52C0 18.8982 0.247021 18.3018 0.686722 17.8621C1.12642 17.4224 1.72279 17.1754 2.34462 17.1754H16.4123C16.6196 17.1754 16.8184 17.2577 16.9649 17.4043C17.1115 17.5508 17.1939 17.7496 17.1939 17.9569V23.4277C17.1939 23.635 17.1115 23.8338 16.9649 23.9803C16.8184 24.1269 16.6196 24.2092 16.4123 24.2092H15.6308C15.4181 24.2089 15.2077 24.252 15.0123 24.3358C14.8168 24.4196 14.6406 24.5424 14.4943 24.6967C14.3479 24.851 14.2347 25.0336 14.1613 25.2331C14.088 25.4327 14.0561 25.6452 14.0677 25.8575C14.1124 26.2721 14.3118 26.6546 14.6262 26.9286C14.9406 27.2025 15.3468 27.3478 15.7636 27.3354H16.4123C16.6196 27.3354 16.8184 27.4177 16.9649 27.5643C17.1115 27.7109 17.1939 27.9096 17.1939 28.1169V33.5877C17.1939 33.795 17.1115 33.9938 16.9649 34.1403C16.8184 34.2869 16.6196 34.3692 16.4123 34.3692H11.7231C11.722 34.7932 11.6351 35.2126 11.4676 35.6021C11.3001 35.9916 11.0555 36.3432 10.7485 36.6357C10.1697 37.19 9.39838 37.4982 8.59693 37.4954ZM1.56308 32.8062H6.25231C6.45959 32.8062 6.65837 32.8885 6.80494 33.0351C6.95151 33.1816 7.03385 33.3804 7.03385 33.5877V34.2364C7.02141 34.6532 7.16669 35.0594 7.44066 35.3738C7.71463 35.6882 8.09712 35.8876 8.51174 35.9323C8.72406 35.9439 8.93651 35.912 9.13609 35.8387C9.33568 35.7653 9.5182 35.652 9.67249 35.5057C9.82678 35.3594 9.9496 35.1832 10.0334 34.9877C10.1172 34.7923 10.1603 34.5819 10.16 34.3692V33.5877C10.16 33.3804 10.2423 33.1816 10.3889 33.0351C10.5355 32.8885 10.7343 32.8062 10.9415 32.8062H15.6308V28.8985C14.8353 28.8838 14.0741 28.5723 13.4966 28.0251C12.919 27.4779 12.5669 26.7346 12.5093 25.9411C12.4849 25.5164 12.5483 25.0912 12.6954 24.692C12.8425 24.2928 13.0702 23.9281 13.3643 23.6207C13.6568 23.3138 14.0084 23.0692 14.3979 22.9017C14.7874 22.7342 15.2068 22.6473 15.6308 22.6461V18.7385H2.34462C2.13734 18.7385 1.93855 18.8208 1.79198 18.9674C1.64542 19.1139 1.56308 19.3127 1.56308 19.52V32.8062Z" fill="#3358D3"/>
<path d="M16.4123 50H2.34462C1.72279 50 1.12642 49.753 0.686722 49.3133C0.247021 48.8736 0 48.2772 0 47.6554V33.5877C0 33.3804 0.0823404 33.1816 0.228907 33.0351C0.375474 32.8885 0.574262 32.8061 0.781539 32.8061L6.25231 32.8062C6.45959 32.8062 6.65837 32.8885 6.80494 33.0351C6.95151 33.1816 7.03385 33.3804 7.03385 33.5877V34.3692C7.03353 34.5819 7.0766 34.7923 7.16043 34.9877C7.24425 35.1832 7.36707 35.3594 7.52136 35.5057C7.67565 35.652 7.85817 35.7653 8.05776 35.8387C8.25734 35.912 8.46979 35.9439 8.68211 35.9323C9.09673 35.8876 9.47922 35.6882 9.75319 35.3738C10.0272 35.0594 10.1724 34.6532 10.16 34.2364V33.5877C10.16 33.3804 10.2423 33.1816 10.3889 33.0351C10.5355 32.8885 10.7343 32.8062 10.9415 32.8062L16.4123 32.8061C16.6196 32.8061 16.8184 32.8885 16.9649 33.0351C17.1115 33.1816 17.1939 33.3804 17.1939 33.5877V38.2769C17.6178 38.278 18.0372 38.3649 18.4267 38.5324C18.8163 38.6999 19.1678 38.9445 19.4603 39.2515C19.7539 39.5587 19.9811 39.9231 20.1279 40.3218C20.2747 40.7206 20.338 41.1453 20.3138 41.5695C20.2568 42.3632 19.9051 43.1069 19.3278 43.6545C18.7506 44.2021 17.9894 44.5141 17.1939 44.5292V49.2185C17.1939 49.4257 17.1115 49.6245 16.9649 49.7711C16.8184 49.9177 16.6196 50 16.4123 50ZM1.56308 34.3692V47.6554C1.56308 47.8627 1.64542 48.0614 1.79198 48.208C1.93855 48.3546 2.13734 48.4369 2.34462 48.4369H15.6308V43.7477C15.6308 43.5404 15.7131 43.3416 15.8597 43.1951C16.0062 43.0485 16.205 42.9662 16.4123 42.9662H17.061C17.4778 42.9786 17.884 42.8333 18.1984 42.5593C18.5128 42.2854 18.7122 41.9029 18.7569 41.4883C18.7685 41.2759 18.7367 41.0635 18.6633 40.8639C18.59 40.6643 18.4767 40.4818 18.3304 40.3275C18.184 40.1732 18.0078 40.0504 17.8124 39.9666C17.617 39.8828 17.4065 39.8397 17.1939 39.84H16.4123C16.205 39.84 16.0062 39.7577 15.8597 39.6111C15.7131 39.4645 15.6308 39.2657 15.6308 39.0585V34.3692L11.7231 34.3692C11.7084 35.1647 11.3969 35.9259 10.8497 36.5034C10.3025 37.081 9.55923 37.4331 8.76574 37.4907C8.34098 37.5152 7.91573 37.4519 7.51651 37.3048C7.11729 37.1577 6.75265 36.9299 6.44535 36.6357C6.13837 36.3432 5.89377 35.9916 5.72628 35.6021C5.55879 35.2126 5.47188 34.7932 5.47077 34.3692L1.56308 34.3692Z" fill="#3358D3"/>
<path d="M30.48 50H16.4123C16.205 50 16.0062 49.9177 15.8597 49.7711C15.7131 49.6245 15.6308 49.4257 15.6308 49.2185V43.7477C15.6308 43.5404 15.7131 43.3416 15.8597 43.1951C16.0062 43.0485 16.205 42.9662 16.4123 42.9662H17.1939C17.4065 42.9665 17.617 42.9234 17.8124 42.8396C18.0078 42.7557 18.184 42.6329 18.3304 42.4786C18.4767 42.3243 18.59 42.1418 18.6633 41.9422C18.7367 41.7427 18.7685 41.5302 18.7569 41.3179C18.7122 40.9033 18.5128 40.5208 18.1984 40.2468C17.884 39.9728 17.4778 39.8276 17.061 39.84H16.4123C16.205 39.84 16.0062 39.7577 15.8597 39.6111C15.7131 39.4645 15.6308 39.2657 15.6308 39.0585V33.5877C15.6308 33.3804 15.7131 33.1816 15.8597 33.0351C16.0062 32.8885 16.205 32.8061 16.4123 32.8061H21.1015C21.1026 32.3822 21.1896 31.9628 21.3571 31.5733C21.5245 31.1837 21.7691 30.8322 22.0761 30.5397C22.3833 30.246 22.7476 30.0186 23.1464 29.8718C23.5452 29.725 23.9699 29.6618 24.3942 29.6862C25.1878 29.7432 25.9315 30.0949 26.4791 30.6722C27.0267 31.2494 27.3387 32.0106 27.3539 32.8061H32.0431C32.2504 32.8061 32.4492 32.8885 32.5957 33.0351C32.7423 33.1816 32.8246 33.3804 32.8246 33.5877V47.6554C32.8246 48.2772 32.5776 48.8736 32.1379 49.3133C31.6982 49.753 31.1018 50 30.48 50ZM17.1939 48.4369H30.48C30.6873 48.4369 30.8861 48.3546 31.0326 48.208C31.1792 48.0614 31.2615 47.8627 31.2615 47.6554V34.3692H26.5723C26.365 34.3692 26.1663 34.2869 26.0197 34.1403C25.8731 33.9938 25.7908 33.795 25.7908 33.5877V32.939C25.8032 32.5222 25.6579 32.116 25.384 31.8016C25.11 31.4872 24.7275 31.2878 24.3129 31.2431C24.1006 31.2315 23.8881 31.2633 23.6885 31.3367C23.4889 31.41 23.3064 31.5233 23.1521 31.6696C22.9978 31.816 22.875 31.9922 22.7912 32.1876C22.7074 32.383 22.6643 32.5935 22.6646 32.8061V33.5877C22.6646 33.795 22.5823 33.9938 22.4357 34.1403C22.2891 34.2869 22.0904 34.3692 21.8831 34.3692H17.1939V38.2769C17.9893 38.2916 18.7505 38.6031 19.3281 39.1503C19.9056 39.6975 20.2577 40.4408 20.3153 41.2343C20.3397 41.659 20.2763 42.0842 20.1292 42.4834C19.9821 42.8826 19.7544 43.2473 19.4603 43.5546C19.1678 43.8616 18.8163 44.1062 18.4267 44.2737C18.0372 44.4412 17.6178 44.5281 17.1939 44.5292V48.4369Z" fill="#3358D3"/>
<path d="M39.0769 30.4615C33.6843 30.4615 32.1361 24.2092 32.047 20.629L29.1459 17.7279C28.9994 17.5814 28.9171 17.3826 28.9171 17.1754C28.9171 16.9681 28.9994 16.7694 29.1459 16.6228L31.4905 14.2782C31.6371 14.1317 31.8358 14.0494 32.0431 14.0494C32.2503 14.0494 32.4491 14.1317 32.5956 14.2782L39.6295 21.3121L38.5244 22.4172L32.0431 15.9359L30.8036 17.1754L33.3772 19.749C33.5238 19.8955 33.6061 20.0943 33.6062 20.3015C33.6062 20.3875 33.6843 28.8985 39.0769 28.8985V30.4615Z" fill="#3358D3"/>
<path d="M46.8923 32.8062H45.3292V29.68L46.8595 12.812L41.0871 7.76174L35.6163 7.07946L35.8132 5.53045L41.5185 6.24165C41.6734 6.26099 41.8191 6.32632 41.9366 6.42922L48.1889 11.9C48.2819 11.9807 48.3545 12.0822 48.4008 12.1963C48.4471 12.3104 48.4658 12.4338 48.4554 12.5565L46.8923 29.7503V32.8062Z" fill="#3358D3"/>
<path d="M35.9508 28.8985H37.5139V32.8061H35.9508V28.8985Z" fill="#3358D3"/>
<path d="M47.6739 38.2769H35.1692C34.962 38.2769 34.7632 38.1946 34.6166 38.048C34.47 37.9014 34.3877 37.7027 34.3877 37.4954V32.8061C34.3877 32.5989 34.47 32.4001 34.6166 32.2535C34.7632 32.1069 34.962 32.0246 35.1692 32.0246H47.6739C47.8811 32.0246 48.0799 32.1069 48.2265 32.2535C48.3731 32.4001 48.4554 32.5989 48.4554 32.8061V37.4954C48.4554 37.7027 48.3731 37.9014 48.2265 38.048C48.0799 38.1946 47.8811 38.2769 47.6739 38.2769ZM35.9508 36.7138H46.8923V33.5877H35.9508V36.7138Z" fill="#3358D3"/>
<path d="M35.1692 37.4954H36.7323V49.2185H35.1692V37.4954Z" fill="#3358D3"/>
<path d="M46.1108 37.4954H47.6739V49.2185H46.1108V37.4954Z" fill="#3358D3"/>
<path d="M35.9508 14.8308H37.5139V19.52H35.9508V14.8308Z" fill="#3358D3"/>
<path d="M8.59693 8.57845H14.8492V10.1415H8.59693V8.57845Z" fill="#3358D3"/>
<path d="M10.3859 15.0597L14.293 11.1526L15.3981 12.2577L11.491 16.1648L10.3859 15.0597Z" fill="#3358D3"/>
<path d="M10.3867 3.66105L11.4918 2.55595L15.3988 6.46302L14.2938 7.56811L10.3867 3.66105Z" fill="#3358D3"/>
<path d="M3.12615 45.3108H4.68923V46.8738H3.12615V45.3108Z" fill="#3358D3"/>
<path d="M6.25231 45.3108H14.0677V46.8738H6.25231V45.3108Z" fill="#3358D3"/>
</svg>
