<svg width="32" height="40" viewBox="0 0 32 40" fill="none" xmlns="http://www.w3.org/2000/svg">
<path d="M30.3301 26.9375C29.3254 26.5625 28.1951 26.6875 27.1904 27.3125L21.162 30.9375C20.9109 30.75 20.6597 30.5625 20.4085 30.5L11.3032 27.25C10.6124 27 9.85887 27 9.23092 27.3125C9.23092 27.3125 9.16812 27.3125 9.16812 27.375L5.52599 29.5625V29.375C5.52599 28.6875 4.96083 28.125 4.27008 28.125H1.25591C0.565158 28.125 0 28.6875 0 29.375V38.75C0 39.4375 0.565158 40 1.25591 40H4.20729C4.89804 40 5.46319 39.4375 5.46319 38.75V38.4375C6.84469 37.6875 7.40985 37 8.35178 37.125L18.399 39.3125C19.2154 39.5625 20.0945 39.375 20.8481 38.875L31.0837 30.8125C32.4652 29.875 32.3396 27.6875 30.3301 26.9375ZM1.25591 38.75V29.375H4.20729V38.75H1.25591ZM30.3301 29.8125C19.9061 37.6875 20.1573 38.5 18.713 38.0625L8.60296 35.875H8.54017C7.09587 35.625 6.09115 36.625 5.46319 36.9375V30.9375L9.73328 28.375C10.1101 28.25 10.4868 28.25 10.8636 28.375L19.9689 31.625C20.7853 31.9375 21.0992 32.9375 20.5969 33.625C20.2201 34.125 19.5921 34.3125 18.9642 34.0625L13.5638 32C13.2498 31.875 12.873 32.0625 12.7475 32.375C12.6219 32.6875 12.8102 33.0625 13.1242 33.1875L18.5246 35.25C19.6549 35.75 20.9108 35.375 21.6016 34.4375C22.104 33.75 22.2923 32.9375 21.9156 32L27.8811 28.4375C28.5091 28.0625 29.2626 27.9375 29.9534 28.1875C30.8953 28.5 30.9581 29.375 30.3301 29.8125Z" fill="white"/>
<path d="M14.9453 20.6875C15.5105 21.0625 15.8872 21.6875 16.0128 22.3125C15.4477 22.625 15.1337 23.25 15.1337 23.875C15.1337 24.75 15.7616 25.5 16.6408 25.6875L16.8919 27.6875C16.9547 28 17.2059 28.25 17.5199 28.25H22.4179C22.7319 28.25 22.9831 28 23.0459 27.6875L23.2971 25.625C24.0506 25.375 24.6786 24.6875 24.6786 23.875C24.6786 23.1875 24.3018 22.625 23.7994 22.3125C23.8622 21.6875 24.239 21.0625 24.867 20.625C27.1904 19 28.6347 16.375 28.6347 13.5625C28.6347 8.6875 24.553 4.75 19.5921 5C15.1337 5.1875 11.4288 9 11.366 13.4375C11.1776 16.375 12.5591 19.0625 14.9453 20.6875ZM18.0223 27.0625L17.8967 25.8125H21.9784L21.8528 27.0625H18.0223ZM22.6691 24.5625H16.9547C16.6408 24.5625 16.3268 24.3125 16.3268 23.9375C16.3268 23.625 16.578 23.3125 16.9547 23.3125H22.6691C22.9831 23.3125 23.2971 23.5625 23.2971 23.9375C23.2971 24.25 23.0459 24.5625 22.6691 24.5625ZM19.4666 6.3125C23.6738 6.125 27.1904 9.5 27.1904 13.625C27.1904 16.0625 25.9973 18.3125 23.9878 19.6875C23.1087 20.25 22.5435 21.125 22.4179 22.125H17.2687C17.1431 21.1875 16.578 20.3125 15.6988 19.6875C13.6894 18.3125 12.4963 16 12.4963 13.5625C12.5591 9.75 15.6988 6.5 19.4666 6.3125Z" fill="white"/>
<path d="M19.6549 9.4375C22.0412 9.3125 24.0506 11.25 24.0506 13.625C24.0506 14 24.3018 14.25 24.6786 14.25C25.0553 14.25 25.3065 14 25.3065 13.625C25.3065 10.5625 22.7319 8.0625 19.5921 8.1875C19.2154 8.1875 18.9642 8.5 18.9642 8.8125C18.9642 9.1875 19.2782 9.4375 19.6549 9.4375Z" fill="white"/>
<path d="M19.8433 3.6875C20.2201 3.6875 20.4713 3.4375 20.4713 3.0625V0.625C20.4713 0.25 20.2201 0 19.8433 0C19.4666 0 19.2154 0.25 19.2154 0.625V3.0625C19.2154 3.4375 19.4666 3.6875 19.8433 3.6875Z" fill="white"/>
<path d="M15.3849 4C15.5104 4.25 15.6988 4.375 15.95 4.375C16.0128 4.375 16.1384 4.375 16.2012 4.3125C16.5152 4.1875 16.7036 3.8125 16.5152 3.5L15.5732 1.25C15.4477 0.9375 15.0709 0.75 14.7569 0.9375C14.4429 1.0625 14.2545 1.4375 14.4429 1.75L15.3849 4Z" fill="white"/>
<path d="M12.2451 6.375C12.4963 6.625 12.873 6.625 13.1242 6.375C13.3754 6.125 13.3754 5.75 13.1242 5.5L11.366 3.75C11.1148 3.5 10.738 3.5 10.4868 3.75C10.2356 4 10.2356 4.375 10.4868 4.625L12.2451 6.375Z" fill="white"/>
<path d="M27.3788 6.5625L29.137 4.8125C29.3882 4.5625 29.3882 4.1875 29.137 3.9375C28.8859 3.6875 28.5091 3.6875 28.2579 3.9375L26.4996 5.625C26.2485 5.875 26.2485 6.25 26.4996 6.5C26.688 6.75 27.1276 6.75 27.3788 6.5625Z" fill="white"/>
<path d="M23.4227 4.4375C23.4855 4.5 23.611 4.5 23.6738 4.5C23.925 4.5 24.1762 4.375 24.239 4.125L25.1809 1.875C25.3065 1.5625 25.1809 1.1875 24.867 1.0625C24.553 0.9375 24.1762 1.0625 24.0506 1.375L23.1087 3.625C22.9831 3.9375 23.1087 4.3125 23.4227 4.4375Z" fill="white"/>
</svg>
