<svg width="40" height="44" viewBox="0 0 40 44" fill="none" xmlns="http://www.w3.org/2000/svg">
<path d="M32.4566 18.7069C32.4783 18.5487 32.4783 18.4662 32.4928 18.3219L32.5 18.2394C32.6806 14.8087 31.539 11.7975 29.2847 9.74875C27.0303 7.7 23.7717 6.75125 20.1156 7.08125C12.9624 7.73438 8.16474 12.2856 8.16474 18.4044C8.16474 21.4981 9.37861 24.9494 11.4017 27.6238C12.7962 29.4662 13.5332 31.7006 13.5332 34.0931V36.2313C13.5332 36.5887 13.8295 36.8775 14.2052 36.8913C14.1474 37.07 14.104 37.2488 14.104 37.4481C14.104 37.9156 14.2919 38.335 14.5809 38.665C14.2847 38.995 14.104 39.4144 14.104 39.8819C14.104 40.8169 14.8338 41.5938 15.7731 41.7313C16.0766 43.0238 17.2905 44 18.7428 44H22.3699C23.8223 44 25.0361 43.0306 25.3396 41.7313C26.2861 41.5869 27.0087 40.8169 27.0087 39.8819C27.0087 39.4144 26.8208 38.995 26.5318 38.665C26.828 38.335 27.0087 37.9156 27.0087 37.4481C27.0087 37.2556 26.9725 37.0769 26.9147 36.8981H27.0665C27.4566 36.8981 27.7673 36.6025 27.7673 36.2313V31.4669C27.7673 31.2606 27.9408 31.0956 28.1575 31.0956H30.2601C31.6763 31.0956 32.8251 30.0025 32.8251 28.655V25.7331L33.909 25.6094C34.3208 25.5613 34.6821 25.3275 34.8699 24.9769C35.065 24.6263 35.0578 24.2069 34.8844 23.9112L32.4566 18.7069ZM22.3699 42.6663H18.7428C18.0853 42.6663 17.5217 42.295 17.2543 41.7656H23.8584C23.591 42.295 23.0275 42.6663 22.3699 42.6663ZM25.0361 40.4319H16.0766C15.7587 40.4319 15.4986 40.1844 15.4986 39.8819C15.4986 39.5794 15.7587 39.3319 16.0766 39.3319H25.0361C25.354 39.3319 25.6142 39.5794 25.6142 39.8819C25.6069 40.1844 25.354 40.4319 25.0361 40.4319ZM25.6069 37.455C25.6069 37.7575 25.3468 38.005 25.0289 38.005H16.0694C15.7514 38.005 15.4913 37.7575 15.4913 37.455C15.4913 37.1525 15.7514 36.905 16.0694 36.905H25.0289C25.354 36.905 25.6069 37.1456 25.6069 37.455ZM32.0448 24.4819C31.6908 24.5231 31.4234 24.805 31.4234 25.1419V28.655C31.4234 29.2669 30.9032 29.7619 30.2601 29.7619H28.1647C27.1749 29.7619 26.3728 30.525 26.3728 31.4669V35.5644H14.9277V34.1C14.9277 31.4256 14.0968 28.9163 12.5361 26.8469C10.672 24.3856 9.55925 21.23 9.55925 18.4044C9.55925 13.0075 13.8512 8.9925 20.2457 8.40812C23.5332 8.1125 26.3223 8.90312 28.3092 10.7113C30.2601 12.485 31.25 15.1388 31.091 18.1706L31.0838 18.2531C31.0766 18.4044 31.0694 18.4663 31.0332 18.7C31.0116 18.8238 31.0332 18.9544 31.0838 19.0712L33.5332 24.31L32.0448 24.4819Z" fill="white"/>
<path d="M20.0434 5.27313C20.4335 5.27313 20.7442 4.9775 20.7442 4.60625V0.666875C20.7442 0.295625 20.4335 0 20.0434 0C19.6532 0 19.3425 0.295625 19.3425 0.666875V4.60625C19.3425 4.9775 19.6532 5.27313 20.0434 5.27313Z" fill="white"/>
<path d="M27.2688 7.13625C27.3772 7.19812 27.5 7.22563 27.6156 7.22563C27.8613 7.22563 28.0925 7.10875 28.2225 6.89562L30.2962 3.47875C30.4913 3.1625 30.3757 2.75 30.0361 2.57125C29.7038 2.38562 29.2702 2.49563 29.0824 2.81875L27.0087 6.22875C26.8136 6.545 26.9292 6.95062 27.2688 7.13625Z" fill="white"/>
<path d="M33.1503 12.5194C33.2659 12.5194 33.3887 12.4919 33.4971 12.43L37.0809 10.4569C37.4133 10.2712 37.5289 9.86563 37.341 9.54938C37.146 9.23313 36.7197 9.12313 36.3873 9.30188L32.8035 11.275C32.4711 11.4606 32.3555 11.8662 32.5434 12.1825C32.6734 12.4025 32.9118 12.5194 33.1503 12.5194Z" fill="white"/>
<path d="M39.2991 18.4044H35.159C34.7688 18.4044 34.4581 18.7 34.4581 19.0712C34.4581 19.4425 34.7688 19.7381 35.159 19.7381H39.2991C39.6893 19.7381 40 19.4425 40 19.0712C40 18.7069 39.6893 18.4044 39.2991 18.4044Z" fill="white"/>
<path d="M6.50289 25.63L2.91185 27.6031C2.57948 27.7888 2.46387 28.1944 2.65896 28.5106C2.78902 28.7238 3.02746 28.8406 3.2659 28.8406C3.3815 28.8406 3.50433 28.8131 3.61272 28.7512L7.19653 26.7781C7.5289 26.5925 7.64451 26.1869 7.45665 25.8706C7.26156 25.5544 6.83526 25.4513 6.50289 25.63Z" fill="white"/>
<path d="M5.54191 18.9956C5.54191 18.6244 5.23121 18.3288 4.84104 18.3288H0.700867C0.310693 18.3288 0 18.6244 0 18.9956C0 19.3669 0.310693 19.6625 0.700867 19.6625H4.84104C5.22399 19.6556 5.54191 19.36 5.54191 18.9956Z" fill="white"/>
<path d="M7.23988 11.2062L3.64884 9.23313C3.31647 9.0475 2.88295 9.1575 2.69509 9.48063C2.5 9.79688 2.61561 10.2094 2.9552 10.3881L6.53902 12.3612C6.6474 12.4231 6.77023 12.4506 6.88584 12.4506C7.1315 12.4506 7.36272 12.3337 7.49277 12.1206C7.69509 11.7975 7.57948 11.3919 7.23988 11.2062Z" fill="white"/>
<path d="M11.8497 6.85438C11.9798 7.0675 12.2182 7.18437 12.4566 7.18437C12.5723 7.18437 12.6951 7.15687 12.8035 7.095C13.1358 6.90937 13.2514 6.50375 13.0636 6.1875L10.9899 2.7775C10.7948 2.45438 10.3685 2.35125 10.0361 2.53C9.69653 2.71563 9.58815 3.12125 9.77601 3.4375L11.8497 6.85438Z" fill="white"/>
<path d="M28.8801 16.3969C28.6994 16.3006 28.4754 16.2869 28.2876 16.3625L28.1647 16.4106C27.789 16.5481 27.3627 16.3694 27.2182 16.0187C27.146 15.84 27.1532 15.6613 27.2327 15.4894C27.3121 15.3175 27.4494 15.1869 27.6301 15.125L27.7529 15.0769C27.948 15.0081 28.0997 14.8569 28.1647 14.6713C28.2298 14.4856 28.2081 14.2794 28.0997 14.1075C27.4566 13.1106 26.5751 12.2375 25.5491 11.5844C25.3757 11.4744 25.159 11.44 24.9639 11.495C24.7616 11.55 24.6026 11.6875 24.5159 11.8663L24.4653 11.9831C24.3064 12.3269 23.8512 12.485 23.5043 12.3406C23.1358 12.1894 22.9697 11.7769 23.1286 11.4263L23.1792 11.3094C23.2659 11.1306 23.2587 10.9244 23.1647 10.7456C23.0708 10.5669 22.9046 10.4362 22.7023 10.395C21.5101 10.12 20.2384 10.0994 19.0246 10.3263C18.8223 10.3675 18.6416 10.4844 18.5477 10.6631C18.4465 10.835 18.4321 11.0413 18.5116 11.2269L18.5549 11.3438C18.6994 11.7013 18.5188 12.1 18.1431 12.2375C17.7746 12.375 17.341 12.1962 17.1965 11.8456L17.146 11.7287C17.0737 11.5431 16.9147 11.3988 16.7124 11.3369C16.5173 11.275 16.3006 11.2956 16.1199 11.3988C15.0723 12.0106 14.1618 12.8494 13.4682 13.8256C13.3526 13.9906 13.3165 14.1969 13.3743 14.3825C13.4321 14.575 13.5766 14.7263 13.7645 14.8088L13.8873 14.8569C14.0679 14.9325 14.2052 15.0631 14.2702 15.2419C14.3425 15.4137 14.3353 15.6063 14.263 15.7713C14.104 16.1081 13.6777 16.2869 13.302 16.1287L13.1792 16.0806C12.9913 16.005 12.7746 16.005 12.5867 16.0944C12.3988 16.1838 12.2688 16.3419 12.2182 16.5344C11.9292 17.6756 11.9075 18.8856 12.146 20.0337C12.1893 20.2262 12.3121 20.3912 12.5 20.4875C12.6806 20.5837 12.8974 20.5975 13.0925 20.5219L13.2153 20.4738C13.5983 20.3294 14.0173 20.515 14.1618 20.8656C14.3064 21.2231 14.1257 21.6219 13.75 21.7663L13.6272 21.8144C13.4321 21.89 13.2876 22.0344 13.2225 22.2269C13.1575 22.4125 13.1792 22.6188 13.2948 22.7906C13.9379 23.7875 14.8194 24.6606 15.8454 25.3137C16.0188 25.4237 16.2283 25.4513 16.4306 25.4031C16.6329 25.3481 16.7919 25.2106 16.8786 25.0319L16.9292 24.915C17.0809 24.5713 17.5145 24.4062 17.8902 24.5575C18.0708 24.6331 18.2081 24.7638 18.2731 24.9356C18.3454 25.1075 18.3382 25.2931 18.2587 25.465L18.2081 25.5819C18.1286 25.7606 18.1286 25.9669 18.2225 26.1456C18.3165 26.3244 18.4827 26.4481 18.685 26.4963C19.3425 26.6475 20.0145 26.7231 20.6864 26.7231C21.2428 26.7231 21.8064 26.6681 22.3627 26.565C22.565 26.5238 22.7457 26.4069 22.8396 26.2281C22.9408 26.0563 22.9552 25.85 22.8757 25.6644L22.8251 25.5475C22.7529 25.3756 22.7601 25.19 22.8396 25.0181C22.9191 24.8462 23.0564 24.7156 23.237 24.6469C23.6055 24.5094 24.039 24.695 24.1835 25.0387L24.2341 25.1556C24.3136 25.3412 24.4653 25.4788 24.6676 25.5406C24.8627 25.6025 25.0795 25.5819 25.2601 25.4788C26.3078 24.8669 27.2254 24.0281 27.9118 23.0519C28.0275 22.8869 28.0636 22.6806 27.9986 22.495C27.9408 22.3025 27.7962 22.1512 27.6084 22.0687L27.4855 22.0206C27.3121 21.945 27.1749 21.8144 27.1026 21.6425C27.0303 21.4706 27.0376 21.285 27.1098 21.1131C27.2688 20.7694 27.7095 20.6044 28.0708 20.7556L28.1936 20.8038C28.3815 20.8794 28.6055 20.8794 28.7861 20.79C28.974 20.7006 29.104 20.5425 29.1546 20.35C29.4364 19.2087 29.4581 17.9988 29.2197 16.8506C29.1908 16.6581 29.0607 16.4931 28.8801 16.3969ZM27.9263 19.3738C27.0448 19.3119 26.1922 19.8069 25.8309 20.5837C25.5997 21.0788 25.5925 21.6287 25.802 22.1306C25.9176 22.4125 26.0983 22.66 26.3223 22.8662C25.9682 23.2719 25.5636 23.6431 25.1228 23.9663C24.5592 23.3475 23.5838 23.1 22.7384 23.4094C22.211 23.6087 21.7919 23.9869 21.5607 24.4819C21.4306 24.7638 21.3728 25.0594 21.3801 25.355C20.8309 25.4031 20.2673 25.3963 19.7182 25.3206C19.7399 25.025 19.6893 24.7294 19.5737 24.4406C19.3642 23.9387 18.9668 23.54 18.4393 23.3269C17.6156 22.99 16.6257 23.1963 16.0405 23.7944C15.6142 23.4575 15.224 23.0725 14.8844 22.6531C15.5419 22.1031 15.802 21.2025 15.4697 20.3844C15.1373 19.5869 14.3497 19.0644 13.4249 19.0988C13.3743 18.5763 13.3815 18.04 13.461 17.5175C14.3425 17.5725 15.1951 17.0844 15.5564 16.3075C15.7803 15.8125 15.7948 15.2625 15.5853 14.7537C15.4697 14.4719 15.289 14.2244 15.065 14.0181C15.4191 13.6125 15.8237 13.2412 16.2645 12.925C16.828 13.5369 17.8107 13.7844 18.6488 13.475C19.5087 13.1519 20.0217 12.3612 20 11.5294C20.5564 11.4813 21.1199 11.4881 21.6618 11.5569C21.604 12.3819 22.0882 13.2 22.9335 13.5506C23.7572 13.8875 24.7399 13.6813 25.3324 13.0831C25.7587 13.42 26.1488 13.805 26.4884 14.2244C26.2572 14.4169 26.0694 14.6644 25.9393 14.9394C25.7153 15.4344 25.7009 15.9844 25.9104 16.4931C26.2428 17.2906 27.0448 17.8131 27.9552 17.7788C28.013 18.315 28.0058 18.8444 27.9263 19.3738Z" fill="white"/>
<path d="M20.7009 14.245C18.2659 14.245 16.2789 16.1287 16.2789 18.4525C16.2789 20.7694 18.2587 22.66 20.7009 22.66C23.1358 22.66 25.1228 20.7763 25.1228 18.4525C25.1228 16.1287 23.1358 14.245 20.7009 14.245ZM20.7009 21.3194C19.039 21.3194 17.6806 20.0269 17.6806 18.4456C17.6806 16.8644 19.0318 15.5719 20.7009 15.5719C22.3627 15.5719 23.7211 16.8575 23.7211 18.4456C23.7211 20.0338 22.3627 21.3194 20.7009 21.3194Z" fill="white"/>
</svg>
