<svg width="44" height="30" viewBox="0 0 44 30" fill="none" xmlns="http://www.w3.org/2000/svg">
<path d="M44 7.74314C43.999 7.05212 43.8025 6.35133 43.3681 5.77366L39.8818 1.15907C39.2978 0.392046 38.4093 0.00151129 37.5214 0C36.993 0 36.4549 0.140106 35.9795 0.446808L32.5802 2.63462C32.2227 2.87047 31.6098 3.03236 31.0178 3.02818C30.5578 3.03023 30.1134 2.93501 29.8199 2.78504L26.491 1.11702C25.9541 0.849612 25.3555 0.739999 24.7536 0.738932C23.8892 0.74311 23.0137 0.96287 22.3102 1.4672L21.9218 1.7491C21.6113 1.58881 21.1368 1.3446 20.5994 1.06795C19.9549 0.741065 19.197 0.609228 18.4314 0.60665C17.7399 0.608695 17.0485 0.71893 16.4415 0.984206L14.1741 1.98503C13.8051 2.15057 13.2181 2.25867 12.6351 2.256C12.0521 2.25858 11.4662 2.15048 11.0972 1.98503L8.82776 0.983672C8.4138 0.801073 7.97131 0.723019 7.53277 0.722486C7.0278 0.723019 6.52584 0.825965 6.05928 1.02145C5.59333 1.21801 5.16081 1.50818 4.81637 1.90636L0.684495 6.69324C0.226534 7.22228 -0.000942378 7.88849 2.93408e-06 8.5443C-0.000942378 9.32635 0.322526 10.1109 0.946433 10.6607L4.80073 14.0624L2.97232 16.0355C2.4683 16.5797 2.21736 17.2852 2.21736 17.9827C2.21642 18.725 2.50139 19.4744 3.06582 20.0262L3.43673 20.3908C3.78624 20.7337 4.20621 20.9519 4.6457 21.0683C4.42527 21.4877 4.30478 21.9476 4.30573 22.4083C4.30478 23.1511 4.58975 23.9 5.15316 24.4524L5.15221 24.4519L5.52424 24.818C6.05378 25.3373 6.74025 25.5959 7.41658 25.5955C7.7801 25.596 8.14404 25.5204 8.48607 25.3725C8.60613 25.8763 8.85406 26.3552 9.24404 26.7379L9.61607 27.1041C10.1456 27.6234 10.831 27.882 11.5084 27.8815C12.038 27.8821 12.5699 27.7206 13.0279 27.4072C13.1618 27.8531 13.3914 28.2756 13.7408 28.619L14.1128 28.9852C14.6413 29.5045 15.3277 29.7631 16.0042 29.7626C16.7246 29.7632 17.4522 29.4704 17.9896 28.8901L19.6055 27.1445L21.801 29.2464C22.3265 29.7506 23.001 30.0015 23.6668 30C24.3983 30.0016 25.1363 29.6984 25.6748 29.1021L26.0252 28.7137C26.3277 28.3776 26.5252 27.9798 26.6398 27.5645L27.4902 28.3765C28.0167 28.8787 28.6902 29.1285 29.3551 29.128C30.0876 29.1285 30.8276 28.8254 31.3666 28.2286L31.7151 27.8406C32.1175 27.3959 32.344 26.845 32.414 26.2823C32.6385 26.3418 32.8659 26.3821 33.0954 26.3821C33.8278 26.3821 34.5658 26.0795 35.1053 25.4833L35.4548 25.0953C35.9433 24.5537 36.1863 23.8592 36.1853 23.1744C36.1853 22.9618 36.1558 22.7503 36.1102 22.5413C36.7177 22.458 37.3068 22.1777 37.7547 21.6802L38.1051 21.2918C38.5936 20.7502 38.8356 20.0556 38.8356 19.3703C38.8365 18.6162 38.5426 17.8554 37.9626 17.301L37.3072 16.6747L43.223 9.90855C43.754 9.29941 43.9991 8.51532 44 7.74314ZM5.32933 19.6285C5.01592 19.6276 4.70938 19.5116 4.46987 19.2769L4.09836 18.9123C3.84132 18.6609 3.71439 18.3263 3.71336 17.9828C3.71439 17.6607 3.82585 17.3461 4.05539 17.0984L7.8002 13.0559C8.04418 12.7925 8.36971 12.6607 8.70367 12.6603C9.01613 12.6608 9.32164 12.7772 9.56313 13.0125L9.93309 13.3776C9.93309 13.3776 10.3161 13.9635 10.3171 14.3075C10.3161 14.565 10.2411 14.8159 10.0956 15.0332C10.0831 15.046 6.05378 19.3901 6.05378 19.3901C5.8398 19.5468 5.5868 19.6274 5.32933 19.6285ZM8.32013 23.6608C8.07667 23.923 7.75165 24.0543 7.4177 24.0554C7.10428 24.0548 6.79869 23.9385 6.55824 23.7037L6.18621 23.338L6.18527 23.3374C5.93029 23.0871 5.80224 22.7515 5.80224 22.408C5.80224 22.0858 5.91474 21.7713 6.14316 21.5235C6.14316 21.5235 11.1349 16.1482 11.1769 16.0964C11.4155 15.859 11.7229 15.7364 12.0404 15.7359C12.3538 15.7364 12.6594 15.8523 12.8998 16.0876L13.2718 16.4538C13.5278 16.7041 13.6549 17.0393 13.6558 17.3832C13.6548 17.7054 13.5424 18.0204 13.3138 18.2681L8.32013 23.6608ZM12.4114 25.9462C12.1684 26.2091 11.8435 26.3405 11.5094 26.3415C11.196 26.341 10.8904 26.2246 10.65 25.9893L10.2769 25.6236C10.021 25.3727 9.89295 25.0376 9.89295 24.6941C9.89295 24.4066 9.98749 24.1277 10.1684 23.8955L13.6447 20.1421C13.8793 19.9233 14.1732 19.808 14.4777 19.808C14.7911 19.8086 15.0967 19.9244 15.3372 20.1597L15.7102 20.5259C15.9652 20.7762 16.0933 21.1114 16.0942 21.4548C16.0932 21.7776 15.9797 22.0926 15.7522 22.3397L12.4114 25.9462ZM19.0167 25.55L16.9073 27.8275C16.6642 28.0902 16.3388 28.2216 16.0048 28.2226C15.6914 28.2221 15.3858 28.1057 15.1454 27.8704L14.7733 27.5047C14.5184 27.2543 14.3903 26.9187 14.3894 26.5752C14.3903 26.2524 14.5028 25.9375 14.7314 25.6908L16.8399 23.4134C17.0839 23.1507 17.4094 23.0188 17.7433 23.0183C18.0558 23.0188 18.3624 23.1346 18.6028 23.3705L18.9759 23.7362C19.2308 23.9866 19.3579 24.3217 19.3589 24.6651C19.3577 24.9878 19.2452 25.3028 19.0167 25.55ZM37.3418 19.3723C37.3414 19.6886 37.2318 19.9985 37.0098 20.2446L36.6603 20.6326C36.4164 20.9026 36.0853 21.0391 35.7464 21.0396C35.4389 21.0391 35.1379 20.9274 34.899 20.6989L29.0092 15.0644L27.9908 16.1924L34.295 22.2339C34.5575 22.4853 34.6894 22.8267 34.6914 23.1753C34.6894 23.4928 34.5809 23.8021 34.3594 24.0484L34.011 24.4363C33.767 24.7063 33.436 24.8423 33.097 24.8434C32.7895 24.8424 32.4876 24.7301 32.2505 24.5031L26.3593 18.8686L25.3419 19.9967L30.5701 24.9982C30.8221 25.248 30.9512 25.5805 30.9512 25.9218C30.9512 26.2384 30.8426 26.5481 30.6212 26.7938L30.2717 27.1818C30.0286 27.4518 29.6966 27.5883 29.3568 27.5893C29.0482 27.5883 28.7473 27.476 28.5093 27.249L23.2916 22.2657H23.2906L23.2897 22.2647L22.2742 23.3948L22.2753 23.3957L22.2948 23.4149L24.9081 25.9099C25.1396 26.1561 25.2596 26.4716 25.2606 26.7979C25.2596 27.1129 25.152 27.4211 24.9306 27.6669L24.581 28.0553C24.3371 28.3253 24.0071 28.4608 23.6691 28.4619C23.3616 28.4609 23.0606 28.3491 22.8226 28.1211L20.5472 25.9416C20.7452 25.5397 20.8557 25.1037 20.8557 24.6661C20.8567 23.9239 20.5717 23.1755 20.0083 22.6227L19.6353 22.2565C19.1068 21.7377 18.4213 21.4786 17.7449 21.4796C17.6924 21.4796 17.6394 21.4921 17.588 21.4952C17.588 21.4823 17.5909 21.4688 17.5909 21.4559C17.5918 20.7136 16.7435 19.4114 16.7435 19.4114L16.3714 19.0463C15.976 18.6583 15.4934 18.4163 14.9915 18.3191C15.095 18.016 15.1535 17.7005 15.1535 17.3845C15.1535 16.6422 14.8695 15.8933 14.3061 15.341L13.9341 14.9748C13.4045 14.4556 12.7192 14.1964 12.0427 14.197C11.9637 14.197 11.8858 14.2135 11.8072 14.2208C11.7857 13.5081 11.5082 12.7959 10.9683 12.2653V12.2647L10.5973 11.9002C10.0678 11.3804 9.3824 11.1212 8.7059 11.1218C7.98437 11.1212 7.25794 11.414 6.72057 11.9943L5.83662 12.9486L1.92079 9.49357C1.63935 9.24429 1.49884 8.89981 1.49781 8.54608C1.49875 8.24969 1.59629 7.95952 1.80426 7.7186L5.93605 2.93181C6.10002 2.74148 6.34253 2.56928 6.62656 2.44971C6.91058 2.33023 7.23302 2.26462 7.53449 2.26507C7.79703 2.26507 8.04341 2.31423 8.24046 2.40215L10.5089 3.40342C11.1483 3.68221 11.8907 3.79654 12.6369 3.79903C13.3838 3.79645 14.1253 3.68212 14.7648 3.40342L17.0322 2.4026C17.3817 2.24489 17.9091 2.1471 18.4336 2.14914C19.0136 2.1455 19.5945 2.26969 19.9315 2.44758C20.1455 2.55772 20.3485 2.66227 20.5369 2.75997L18.2245 4.4415C17.4815 4.98201 17.081 5.84158 17.0821 6.70897C17.0811 7.28308 17.257 7.86751 17.615 8.36348L17.6141 8.36241L17.9195 8.78699C18.4995 9.5846 19.4039 9.99469 20.3079 9.99674C20.8184 9.99674 21.3384 9.8633 21.8018 9.57571L23.1847 8.71659C23.4668 8.53817 23.8927 8.42544 24.3331 8.42748C24.8506 8.42437 25.3721 8.5827 25.6856 8.82104L29.5115 11.6584C30.3629 12.2895 31.7498 13.4599 32.5183 14.1964L36.9466 18.4319C37.2088 18.6834 37.3408 19.0232 37.3418 19.3723ZM42.1126 8.87892L36.2134 15.6269L33.535 13.0657C32.696 12.2646 31.3126 11.0962 30.3847 10.4067L26.5598 7.56934C25.9114 7.09408 25.1174 6.88864 24.3324 6.88561C23.6644 6.88766 22.9915 7.03825 22.4105 7.39607L21.0287 8.2552C20.8166 8.38704 20.5667 8.45433 20.3071 8.45487C19.8431 8.45647 19.3786 8.23244 19.1197 7.86777L18.8152 7.44372L18.8142 7.44266C18.6522 7.21668 18.5768 6.96322 18.5756 6.70666C18.5776 6.3187 18.7506 5.94221 19.0857 5.69756L23.1745 2.72566C23.5281 2.46091 24.157 2.2752 24.7545 2.27983C25.1695 2.27778 25.5659 2.3641 25.8374 2.50278L29.1662 4.1708C29.7337 4.4527 30.3742 4.56801 31.0185 4.56961C31.8465 4.56543 32.6834 4.37927 33.373 3.94118L36.7733 1.75292C36.9903 1.61281 37.2508 1.54036 37.5224 1.54036C37.9814 1.53938 38.4413 1.75452 38.7018 2.10567L42.1881 6.72026C42.3891 6.98456 42.5055 7.3574 42.5055 7.74385C42.5061 8.17599 42.3586 8.60119 42.1126 8.87892Z" fill="white"/>
</svg>
