<svg width="30" height="30" viewBox="0 0 30 30" fill="none" xmlns="http://www.w3.org/2000/svg">
<path d="M11.0156 8.67188C11.4258 8.37891 12.0117 8.37891 12.4219 8.67188L20.8594 13.8281C21.2695 14.0625 21.5625 14.5312 21.5625 15C21.5625 15.5273 21.2695 15.9961 20.8594 16.2305L12.4219 21.3867C12.0117 21.6211 11.4258 21.6797 11.0156 21.3867C10.5469 21.1523 10.3125 20.6836 10.3125 20.1562V9.84375C10.3125 9.375 10.5469 8.90625 11.0156 8.67188ZM30 15C30 23.3203 23.2617 30 15 30C6.67969 30 0 23.3203 0 15C0 6.73828 6.67969 0 15 0C23.2617 0 30 6.73828 30 15ZM15 2.8125C8.26172 2.8125 2.8125 8.32031 2.8125 15C2.8125 21.7383 8.26172 27.1875 15 27.1875C21.6797 27.1875 27.1875 21.7383 27.1875 15C27.1875 8.32031 21.6797 2.8125 15 2.8125Z" fill="#3358D3"/>
</svg>
