<svg width="49" height="43" viewBox="0 0 49 43" fill="none" xmlns="http://www.w3.org/2000/svg">
<path d="M41.5922 42.1012H6.96169C6.26761 42.1004 5.60217 41.8266 5.11138 41.3398C4.62058 40.8529 4.34454 40.1928 4.3438 39.5043V34.9547C4.3438 34.7722 4.41688 34.5972 4.54697 34.4682C4.67706 34.3391 4.8535 34.2666 5.03747 34.2666H43.5164C43.7004 34.2666 43.8768 34.3391 44.0069 34.4682C44.137 34.5972 44.2101 34.7722 44.2101 34.9547V39.5036C44.2095 40.1923 43.9336 40.8525 43.4428 41.3395C42.952 41.8265 42.2864 42.1004 41.5922 42.1012ZM5.73113 35.6428V39.5036C5.7315 39.8273 5.86126 40.1375 6.09196 40.3664C6.32265 40.5952 6.63544 40.7239 6.96169 40.7243H41.5922C41.9185 40.7239 42.2312 40.5952 42.4619 40.3664C42.6926 40.1375 42.8224 39.8273 42.8228 39.5036V35.6428H5.73113Z" fill="white"/>
<path d="M20.1441 13.8346H16.8145C16.6305 13.8346 16.4541 13.7621 16.324 13.6331C16.1939 13.5041 16.1208 13.329 16.1208 13.1465V11.1903C16.121 10.7304 16.3052 10.2894 16.633 9.96418C16.9607 9.63892 17.4053 9.45603 17.8689 9.45566H19.0918C19.5555 9.45603 20.0001 9.6389 20.3279 9.96414C20.6558 10.2894 20.8402 10.7304 20.8405 11.1903V13.1465C20.8405 13.2371 20.8225 13.3268 20.7875 13.4105C20.7524 13.4942 20.7011 13.5701 20.6364 13.6341C20.5717 13.698 20.4949 13.7486 20.4104 13.783C20.3259 13.8175 20.2354 13.835 20.1441 13.8346ZM17.5082 12.4585H19.4504V11.1903C19.4504 11.0952 19.4124 11.0041 19.3446 10.9368C19.2768 10.8696 19.1849 10.8318 19.089 10.8318H17.8723C17.8249 10.8318 17.778 10.8411 17.7341 10.8591C17.6903 10.8772 17.6505 10.9036 17.617 10.9369C17.5835 10.9702 17.557 11.0097 17.5389 11.0532C17.5208 11.0967 17.5115 11.1433 17.5116 11.1903L17.5082 12.4585Z" fill="white"/>
<path d="M31.7359 13.8346H28.4063C28.2224 13.8346 28.0459 13.7621 27.9158 13.6331C27.7858 13.5041 27.7127 13.329 27.7127 13.1465V11.1903C27.713 10.7304 27.8974 10.2894 28.2253 9.96414C28.5531 9.6389 28.9977 9.45603 29.4614 9.45566H30.6781C31.1417 9.45603 31.5862 9.63892 31.914 9.96418C32.2417 10.2894 32.4259 10.7304 32.4261 11.1903V13.1465C32.4261 13.3284 32.3535 13.5029 32.2242 13.6319C32.0948 13.7608 31.9193 13.8337 31.7359 13.8346ZM29.1 12.4585H31.0423V11.1903C31.0424 11.1433 31.0331 11.0967 31.015 11.0532C30.9969 11.0097 30.9704 10.9702 30.9369 10.9369C30.9034 10.9036 30.8636 10.8772 30.8198 10.8591C30.7759 10.8411 30.729 10.8318 30.6816 10.8318H29.4649C29.369 10.8318 29.2771 10.8696 29.2093 10.9368C29.1415 11.0041 29.1035 11.0952 29.1035 11.1903L29.1 12.4585Z" fill="white"/>
<path d="M47.3011 15.2101C47.2466 15.2104 47.1924 15.2041 47.1394 15.1915L36.6776 12.7144C36.5879 12.6945 36.5032 12.657 36.4282 12.6043C36.3533 12.5515 36.2897 12.4845 36.241 12.4072C36.1924 12.3298 36.1598 12.2437 36.145 12.1537C36.1302 12.0637 36.1336 11.9717 36.155 11.8831C36.1763 11.7944 36.2153 11.7109 36.2695 11.6373C36.3237 11.5636 36.3921 11.5014 36.4707 11.4543C36.5493 11.4071 36.6366 11.3759 36.7275 11.3625C36.8184 11.3491 36.9111 11.3537 37.0001 11.3761L47.462 13.8532C47.6268 13.8927 47.7714 13.9908 47.8683 14.1288C47.9652 14.2669 48.0077 14.4354 47.9879 14.6024C47.9681 14.7695 47.8873 14.9236 47.7607 15.0355C47.6342 15.1475 47.4707 15.2096 47.3011 15.2101Z" fill="white"/>
<path d="M3.09867 18.4207C2.53584 18.4215 1.99185 18.2196 1.56769 17.8526C1.14352 17.4857 0.867988 16.9785 0.792238 16.4253L0.0562599 11.0266C-0.121539 9.69712 0.124516 8.34582 0.759933 7.16208C1.39535 5.97835 2.38827 5.02153 3.5995 4.42576C10.9912 0.766527 18.9232 0 24.277 0C29.6459 0 37.5953 0.767215 44.9606 4.4237C46.1702 5.02031 47.1615 5.97708 47.7958 7.16014C48.4302 8.3432 48.6758 9.69337 48.4983 11.0217L47.7617 16.4232C47.7182 16.7426 47.6077 17.0495 47.4373 17.324C47.267 17.5984 47.0405 17.8344 46.7725 18.0167C46.5046 18.199 46.201 18.3236 45.8816 18.3824C45.5621 18.4412 45.2337 18.4329 44.9176 18.3581L37.6036 16.6248C37.055 16.4931 36.573 16.1685 36.2471 15.7113C35.9213 15.254 35.7735 14.6951 35.8313 14.1381L36.2475 10.216C36.2836 9.85838 36.1857 9.50011 35.9724 9.20959C35.7591 8.91907 35.4454 8.71664 35.0912 8.64097C27.9801 7.0556 20.6029 7.0556 13.4919 8.64097C13.1379 8.71693 12.8244 8.91945 12.6113 9.20992C12.3982 9.50039 12.3003 9.85851 12.3362 10.216L12.7524 14.1422C12.8103 14.6995 12.6623 15.2588 12.336 15.7161C12.0097 16.1734 11.5271 16.4978 10.978 16.6289L3.63626 18.3588C3.46012 18.4002 3.27969 18.421 3.09867 18.4207ZM24.277 1.37617C19.0745 1.37617 11.3685 2.1193 4.21894 5.65812C3.26683 6.12568 2.48611 6.87711 1.98627 7.80704C1.48644 8.73697 1.29255 9.79877 1.4318 10.8435L2.16639 16.2388C2.18383 16.3678 2.22837 16.4917 2.29711 16.6025C2.36586 16.7134 2.45728 16.8087 2.56548 16.8823C2.67367 16.9559 2.79623 17.0062 2.92524 17.0298C3.05424 17.0535 3.18682 17.0501 3.3144 17.0198L10.6589 15.2851C10.8804 15.2322 11.0751 15.1013 11.2067 14.9168C11.3384 14.7323 11.3981 14.5067 11.3748 14.2819L10.9586 10.3557C10.8872 9.66253 11.0752 8.96754 11.4868 8.40294C11.8983 7.83834 12.5048 7.44355 13.1908 7.2937C20.5006 5.6644 28.0838 5.6644 35.3936 7.2937C36.0804 7.44286 36.6879 7.83757 37.1001 8.40256C37.5123 8.96754 37.7004 9.66327 37.6286 10.3571L37.2124 14.2791C37.1889 14.5039 37.2485 14.7295 37.38 14.914C37.5115 15.0985 37.7061 15.2294 37.9276 15.2824L45.2395 17.015C45.3666 17.045 45.4987 17.0483 45.6272 17.0248C45.7557 17.0012 45.8778 16.9513 45.9857 16.8783C46.0937 16.8052 46.185 16.7106 46.254 16.6005C46.3229 16.4903 46.3679 16.3672 46.3861 16.2388L47.1221 10.8373C47.2618 9.79346 47.0688 8.73238 46.5701 7.80276C46.0714 6.87315 45.292 6.12156 44.3412 5.65331C37.2145 2.11724 29.4968 1.37617 24.277 1.37617Z" fill="white"/>
<path d="M1.25144 15.2101C1.08192 15.2095 0.918511 15.1472 0.792081 15.0352C0.66565 14.9232 0.584952 14.7691 0.565229 14.6021C0.545506 14.4351 0.588123 14.2667 0.685031 14.1287C0.781939 13.9907 0.926429 13.8927 1.09121 13.8532L11.6696 11.3465C11.7587 11.3241 11.8513 11.3195 11.9422 11.3329C12.0331 11.3463 12.1204 11.3775 12.1991 11.4247C12.2777 11.4719 12.3461 11.5341 12.4003 11.6077C12.4545 11.6813 12.4934 11.7648 12.5148 11.8535C12.5361 11.9422 12.5395 12.0341 12.5248 12.1241C12.51 12.2141 12.4773 12.3002 12.4287 12.3776C12.3801 12.4549 12.3165 12.5219 12.2415 12.5747C12.1666 12.6274 12.0818 12.6649 11.9921 12.6848L1.41376 15.1915C1.36058 15.2041 1.3061 15.2103 1.25144 15.2101Z" fill="white"/>
<path d="M43.5164 35.6428H5.03747C4.8535 35.6428 4.67706 35.5703 4.54697 35.4413C4.41688 35.3122 4.3438 35.1372 4.3438 34.9547V28.3849C4.34129 27.5419 4.57428 26.7146 5.01692 25.995C5.45956 25.2753 6.09454 24.6914 6.8514 24.308C8.67516 23.4109 10.2517 22.0874 11.4451 20.4516C12.6386 18.8157 13.4131 16.9165 13.702 14.9177C13.7941 14.2347 14.1334 13.6082 14.6566 13.155C15.1799 12.7018 15.8514 12.4528 16.5461 12.4543H32.0065C32.7011 12.4528 33.3726 12.7018 33.8959 13.155C34.4191 13.6082 34.7584 14.2347 34.8505 14.9177C35.1398 16.9169 35.915 18.8164 37.1092 20.4523C38.3034 22.0882 39.8807 23.4114 41.7053 24.308C42.4621 24.6914 43.0971 25.2753 43.5398 25.995C43.9824 26.7146 44.2154 27.5419 44.2129 28.3849V34.9547C44.2129 35.0453 44.1948 35.135 44.1598 35.2187C44.1248 35.3023 44.0734 35.3783 44.0087 35.4422C43.944 35.5062 43.8672 35.5568 43.7827 35.5912C43.6983 35.6256 43.6078 35.6432 43.5164 35.6428ZM5.73113 34.2666H42.8228V28.3849C42.8267 27.7982 42.6667 27.222 42.3606 26.72C42.0545 26.218 41.6142 25.8099 41.0886 25.541C39.0628 24.5452 37.3116 23.0756 35.9858 21.2589C34.66 19.4423 33.7995 17.3331 33.4784 15.1131C33.4319 14.7585 33.2569 14.4327 32.986 14.1967C32.7152 13.9607 32.367 13.8305 32.0065 13.8305H16.5474C16.1869 13.8305 15.8387 13.9607 15.5679 14.1967C15.297 14.4327 15.122 14.7585 15.0755 15.1131C14.7547 17.3328 13.8946 19.4418 12.5693 21.2585C11.244 23.0751 9.49332 24.5448 7.46807 25.541C6.94244 25.8099 6.50216 26.218 6.19606 26.72C5.88996 27.222 5.73 27.7982 5.73391 28.3849L5.73113 34.2666Z" fill="white"/>
<path d="M24.277 32.1982C22.7479 32.1982 21.2532 31.7485 19.9819 30.9058C18.7106 30.0632 17.7197 28.8655 17.1345 27.4642C16.5494 26.063 16.3963 24.521 16.6946 23.0334C16.9929 21.5459 17.7292 20.1794 18.8104 19.1069C19.8916 18.0345 21.2691 17.3041 22.7687 17.0082C24.2684 16.7123 25.8228 16.8642 27.2354 17.4446C28.6481 18.025 29.8555 19.0079 30.705 20.269C31.5544 21.5301 32.0078 23.0128 32.0078 24.5295C32.0056 26.5627 31.1904 28.512 29.7411 29.9497C28.2917 31.3874 26.3266 32.1961 24.277 32.1982ZM24.277 18.237C23.0223 18.237 21.7959 18.6061 20.7527 19.2975C19.7095 19.9889 18.8964 20.9717 18.4163 22.1215C17.9361 23.2713 17.8105 24.5365 18.0553 25.7571C18.3 26.9778 18.9042 28.099 19.7914 28.979C20.6785 29.8591 21.8089 30.4584 23.0394 30.7012C24.2699 30.944 25.5454 30.8193 26.7045 30.3431C27.8637 29.8668 28.8544 29.0603 29.5514 28.0255C30.2485 26.9907 30.6205 25.7741 30.6205 24.5295C30.6192 22.8608 29.9506 21.2607 28.7613 20.0805C27.572 18.9002 25.9592 18.2363 24.277 18.2343V18.237Z" fill="white"/>
<path d="M24.277 21.0224C24.093 21.0224 23.9165 20.9499 23.7865 20.8208C23.6564 20.6918 23.5833 20.5168 23.5833 20.3343V19.9077C23.5833 19.7252 23.6564 19.5502 23.7865 19.4211C23.9165 19.2921 24.093 19.2196 24.277 19.2196C24.4609 19.2196 24.6374 19.2921 24.7674 19.4211C24.8975 19.5502 24.9706 19.7252 24.9706 19.9077V20.3343C24.9706 20.5168 24.8975 20.6918 24.7674 20.8208C24.6374 20.9499 24.4609 21.0224 24.277 21.0224Z" fill="white"/>
<path d="M21.2859 22.2506C21.1023 22.2506 20.9261 22.1783 20.7961 22.0497L20.4916 21.7483C20.4272 21.6844 20.376 21.6086 20.3411 21.5251C20.3062 21.4416 20.2883 21.3521 20.2882 21.2617C20.2882 21.1713 20.3061 21.0818 20.341 20.9983C20.3758 20.9148 20.4269 20.8389 20.4913 20.775C20.5557 20.7111 20.6321 20.6604 20.7163 20.6257C20.8005 20.5911 20.8907 20.5733 20.9818 20.5733C21.0729 20.5732 21.1631 20.591 21.2473 20.6255C21.3315 20.6601 21.408 20.7108 21.4725 20.7747L21.7763 21.076C21.8733 21.1723 21.9393 21.2949 21.9661 21.4283C21.9928 21.5618 21.9791 21.7001 21.9266 21.8258C21.8741 21.9515 21.7852 22.059 21.6712 22.1346C21.5571 22.2102 21.423 22.2506 21.2859 22.2506Z" fill="white"/>
<path d="M20.047 25.2176H19.6176C19.4336 25.2176 19.2572 25.1451 19.1271 25.0161C18.997 24.887 18.9239 24.712 18.9239 24.5295C18.9239 24.347 18.997 24.172 19.1271 24.043C19.2572 23.9139 19.4336 23.8414 19.6176 23.8414H20.047C20.231 23.8414 20.4074 23.9139 20.5375 24.043C20.6676 24.172 20.7406 24.347 20.7406 24.5295C20.7406 24.712 20.6676 24.887 20.5375 25.0161C20.4074 25.1451 20.231 25.2176 20.047 25.2176Z" fill="white"/>
<path d="M20.982 28.4867C20.8447 28.4868 20.7105 28.4465 20.5963 28.3709C20.4821 28.2952 20.3931 28.1876 20.3406 28.0618C20.2881 27.9359 20.2744 27.7975 20.3013 27.6639C20.3282 27.5303 20.3944 27.4077 20.4916 27.3115L20.7961 27.0101C20.9271 26.8848 21.1023 26.8156 21.2842 26.8173C21.4661 26.819 21.64 26.8915 21.7685 27.0191C21.8971 27.1468 21.9699 27.3194 21.9713 27.4999C21.9728 27.6803 21.9027 27.854 21.7763 27.9837L21.4725 28.2851C21.3424 28.4142 21.166 28.4867 20.982 28.4867Z" fill="white"/>
<path d="M24.277 29.8402C24.093 29.8402 23.9165 29.7677 23.7865 29.6386C23.6564 29.5096 23.5833 29.3346 23.5833 29.1521V28.7255C23.5833 28.543 23.6564 28.368 23.7865 28.2389C23.9165 28.1099 24.093 28.0374 24.277 28.0374C24.4609 28.0374 24.6374 28.1099 24.7674 28.2389C24.8975 28.368 24.9706 28.543 24.9706 28.7255V29.1521C24.9706 29.3346 24.8975 29.5096 24.7674 29.6386C24.6374 29.7677 24.4609 29.8402 24.277 29.8402Z" fill="white"/>
<path d="M27.5719 28.4867C27.3879 28.4867 27.2115 28.4142 27.0814 28.2851L26.7776 27.9837C26.7113 27.9203 26.6584 27.8444 26.622 27.7605C26.5856 27.6766 26.5664 27.5863 26.5655 27.4949C26.5647 27.4036 26.5822 27.3129 26.617 27.2284C26.6518 27.1438 26.7032 27.0669 26.7683 27.0023C26.8334 26.9376 26.9108 26.8865 26.996 26.8518C27.0813 26.8171 27.1726 26.7997 27.2647 26.8004C27.3568 26.8011 27.4478 26.82 27.5325 26.856C27.6171 26.892 27.6937 26.9444 27.7578 27.0101L28.0623 27.3115C28.1595 27.4077 28.2258 27.5303 28.2526 27.6639C28.2795 27.7975 28.2659 27.9359 28.2133 28.0618C28.1608 28.1876 28.0718 28.2952 27.9576 28.3709C27.8434 28.4465 27.7092 28.4868 27.5719 28.4867Z" fill="white"/>
<path d="M28.9363 25.2176H28.5069C28.3229 25.2176 28.1465 25.1451 28.0164 25.0161C27.8863 24.887 27.8133 24.712 27.8133 24.5295C27.8133 24.347 27.8863 24.172 28.0164 24.043C28.1465 23.9139 28.3229 23.8414 28.5069 23.8414H28.9363C29.1203 23.8414 29.2967 23.9139 29.4268 24.043C29.5569 24.172 29.63 24.347 29.63 24.5295C29.63 24.712 29.5569 24.887 29.4268 25.0161C29.2967 25.1451 29.1203 25.2176 28.9363 25.2176Z" fill="white"/>
<path d="M27.268 22.2506C27.1309 22.2506 26.9968 22.2102 26.8827 22.1346C26.7687 22.059 26.6798 21.9515 26.6273 21.8258C26.5748 21.7001 26.5611 21.5618 26.5878 21.4283C26.6146 21.2949 26.6806 21.1723 26.7776 21.076L27.0814 20.7747C27.1459 20.7108 27.2224 20.6601 27.3066 20.6255C27.3908 20.591 27.481 20.5732 27.5721 20.5733C27.6632 20.5733 27.7534 20.5911 27.8376 20.6257C27.9218 20.6604 27.9982 20.7111 28.0626 20.775C28.127 20.8389 28.1781 20.9148 28.2129 20.9983C28.2478 21.0818 28.2657 21.1713 28.2657 21.2617C28.2656 21.3521 28.2477 21.4416 28.2128 21.5251C28.1779 21.6086 28.1267 21.6844 28.0623 21.7483L27.7578 22.0497C27.6278 22.1783 27.4517 22.2506 27.268 22.2506Z" fill="white"/>
</svg>
