<svg width="64" height="64" viewBox="0 0 64 64" fill="none" xmlns="http://www.w3.org/2000/svg">
<path d="M63.5674 56.9661L56.3416 51.8048C56.1872 51.6946 56.0055 51.6291 55.8163 51.6154C55.6272 51.6017 55.4379 51.6404 55.2693 51.7272C55.1007 51.814 54.9593 51.9456 54.8605 52.1075C54.7618 52.2695 54.7095 52.4554 54.7096 52.6451V54.7096H48.516V43.3548C48.5162 43.1445 48.4521 42.9392 48.3324 42.7664C48.2126 42.5935 48.043 42.4613 47.8461 42.3875L40.258 39.5426V32C40.258 31.7262 40.1492 31.4636 39.9556 31.27C39.7621 31.0764 39.4995 30.9677 39.2257 30.9677H24.7741C24.5004 30.9677 24.2378 31.0764 24.0442 31.27C23.8506 31.4636 23.7419 31.7262 23.7419 32V39.5426L16.1538 42.3875C15.9569 42.4613 15.7872 42.5935 15.6675 42.7664C15.5478 42.9392 15.4837 43.1445 15.4838 43.3548V54.7096H1.03226C0.758485 54.7096 0.495926 54.8183 0.302341 55.0119C0.108755 55.2055 0 55.4681 0 55.7419V59.8709C0 60.1446 0.108755 60.4072 0.302341 60.6008C0.495926 60.7944 0.758485 60.9031 1.03226 60.9031H54.7096V62.9676C54.7095 63.1573 54.7618 63.3433 54.8605 63.5052C54.9593 63.6671 55.1007 63.7987 55.2693 63.8855C55.4379 63.9723 55.6272 64.011 55.8163 63.9973C56.0055 63.9836 56.1872 63.9181 56.3416 63.8079L63.5674 58.6466C63.7012 58.5511 63.8102 58.4251 63.8855 58.2789C63.9607 58.1328 64 57.9708 64 57.8064C64 57.642 63.9607 57.48 63.8855 57.3338C63.8102 57.1877 63.7012 57.0616 63.5674 56.9661ZM40.258 41.7476L46.4515 44.0701V54.7096H40.258V41.7476ZM25.8064 33.0322H38.1935V54.7096H36.129V51.6128C36.129 50.5177 35.6939 49.4675 34.9196 48.6932C34.1452 47.9188 33.095 47.4838 31.9999 47.4838C30.9048 47.4838 29.8546 47.9188 29.0803 48.6932C28.3059 49.4675 27.8709 50.5177 27.8709 51.6128V54.7096H25.8064V33.0322ZM34.0644 51.6128V54.7096H29.9354V51.6128C29.9354 51.0653 30.1529 50.5402 30.5401 50.153C30.9273 49.7658 31.4524 49.5483 31.9999 49.5483C32.5475 49.5483 33.0726 49.7658 33.4598 50.153C33.8469 50.5402 34.0644 51.0653 34.0644 51.6128ZM17.5483 44.0701L23.7419 41.7476V54.7096H17.5483V44.0701ZM56.7741 60.962V59.8709C56.7741 59.5971 56.6653 59.3345 56.4717 59.141C56.2781 58.9474 56.0156 58.8386 55.7418 58.8386H2.06451V56.7741H55.7418C56.0156 56.7741 56.2781 56.6654 56.4717 56.4718C56.6653 56.2782 56.7741 56.0156 56.7741 55.7419V54.6508L61.1911 57.8064L56.7741 60.962Z" fill="#3358D3"/>
<path d="M33.0322 28.9032V20.4552C33.7209 20.2117 34.3014 19.7325 34.671 19.1024C35.0407 18.4723 35.1756 17.7319 35.0521 17.0119C34.9286 16.2919 34.5545 15.6387 33.996 15.1679C33.4374 14.697 32.7304 14.4388 31.9999 14.4388C31.2694 14.4388 30.5624 14.697 30.0039 15.1679C29.4454 15.6387 29.0713 16.2919 28.9478 17.0119C28.8242 17.7319 28.9592 18.4723 29.3288 19.1024C29.6985 19.7325 30.2789 20.2117 30.9677 20.4552V28.9032H33.0322ZM31.9999 16.5161C32.2041 16.5161 32.4037 16.5766 32.5734 16.6901C32.7432 16.8035 32.8755 16.9647 32.9536 17.1533C33.0317 17.342 33.0522 17.5495 33.0124 17.7497C32.9725 17.95 32.8742 18.1339 32.7298 18.2783C32.5855 18.4226 32.4016 18.521 32.2013 18.5608C32.0011 18.6006 31.7935 18.5802 31.6049 18.502C31.4163 18.4239 31.2551 18.2916 31.1416 18.1219C31.0282 17.9521 30.9677 17.7525 30.9677 17.5484C30.9677 17.2746 31.0764 17.012 31.27 16.8184C31.4636 16.6249 31.7262 16.5161 31.9999 16.5161Z" fill="#3358D3"/>
<path d="M26.8387 28.9032V24.7742C26.8387 24.6139 26.8013 24.4559 26.7297 24.3125C26.658 24.1692 26.554 24.0445 26.4258 23.9484L24.6203 22.594C24.7179 22.2981 24.7698 21.989 24.7741 21.6774C24.7746 20.9854 24.5438 20.3132 24.1185 19.7674C23.6932 19.2216 23.0977 18.8336 22.4266 18.665C21.7555 18.4963 21.0474 18.5568 20.4145 18.8367C19.7817 19.1166 19.2606 19.5999 18.9339 20.2098C18.6072 20.8198 18.4937 21.5214 18.6114 22.2033C18.7291 22.8851 19.0712 23.5081 19.5835 23.9733C20.0957 24.4385 20.7487 24.7191 21.4387 24.7707C22.1288 24.8223 22.8162 24.6419 23.392 24.258L24.7741 25.2903V28.9032H26.8387ZM21.6774 22.7096C21.4732 22.7096 21.2736 22.6491 21.1039 22.5357C20.9341 22.4223 20.8018 22.261 20.7237 22.0724C20.6456 21.8838 20.6251 21.6762 20.665 21.476C20.7048 21.2758 20.8031 21.0918 20.9475 20.9475C21.0918 20.8031 21.2758 20.7048 21.476 20.665C21.6762 20.6251 21.8838 20.6456 22.0724 20.7237C22.261 20.8018 22.4222 20.9341 22.5357 21.1039C22.6491 21.2736 22.7096 21.4732 22.7096 21.6774C22.7096 21.9512 22.6009 22.2137 22.4073 22.4073C22.2137 22.6009 21.9511 22.7096 21.6774 22.7096Z" fill="#3358D3"/>
<path d="M37.1612 24.7742V28.9032H39.2257V25.2903L40.6079 24.258C41.2348 24.6934 41.9959 24.892 42.7556 24.8183C43.5152 24.7445 44.224 24.4033 44.7555 23.8555C45.2869 23.3077 45.6065 22.5889 45.6571 21.8274C45.7078 21.0658 45.4862 20.3111 45.032 19.6977C44.5778 19.0843 43.9205 18.6523 43.1773 18.4786C42.4341 18.3049 41.6533 18.4009 40.9743 18.7494C40.2953 19.098 39.7622 19.6764 39.4701 20.3815C39.178 21.0866 39.1459 21.8726 39.3795 22.5992L37.5741 23.9484C37.4459 24.0445 37.3419 24.1692 37.2702 24.3125C37.1985 24.4559 37.1612 24.6139 37.1612 24.7742ZM42.3225 20.6451C42.5267 20.6451 42.7262 20.7057 42.896 20.8191C43.0657 20.9325 43.198 21.0937 43.2762 21.2824C43.3543 21.471 43.3747 21.6785 43.3349 21.8788C43.2951 22.079 43.1968 22.2629 43.0524 22.4073C42.908 22.5517 42.7241 22.65 42.5239 22.6898C42.3236 22.7296 42.1161 22.7092 41.9275 22.6311C41.7388 22.5529 41.5776 22.4206 41.4642 22.2509C41.3508 22.0811 41.2902 21.8815 41.2902 21.6774C41.2902 21.4036 41.399 21.1411 41.5926 20.9475C41.7862 20.7539 42.0487 20.6451 42.3225 20.6451Z" fill="#3358D3"/>
<path d="M28.387 35.0967H30.4515V37.1612H28.387V35.0967Z" fill="#3358D3"/>
<path d="M33.5483 35.0967H35.6128V37.1612H33.5483V35.0967Z" fill="#3358D3"/>
<path d="M28.387 39.2257H30.4515V41.2903H28.387V39.2257Z" fill="#3358D3"/>
<path d="M33.5483 39.2257H35.6128V41.2903H33.5483V39.2257Z" fill="#3358D3"/>
<path d="M28.387 43.3548H30.4515V45.4193H28.387V43.3548Z" fill="#3358D3"/>
<path d="M33.5483 43.3548H35.6128V45.4193H33.5483V43.3548Z" fill="#3358D3"/>
<path d="M1.92929 27.6542L4.35406 28.4603C4.20321 29.6342 4.12804 30.8165 4.12902 32C4.12841 33.1872 4.20357 34.3733 4.35406 35.5509L1.93032 36.3447C1.41143 36.5167 0.981402 36.8865 0.733774 37.3738C0.486147 37.8612 0.440944 38.4266 0.607999 38.947L2.52696 44.8309C2.60903 45.0907 2.7417 45.3316 2.91733 45.5399C3.09295 45.7482 3.30806 45.9196 3.55026 46.0444C3.79245 46.1691 4.05694 46.2447 4.32848 46.2667C4.60001 46.2888 4.87323 46.2569 5.13238 46.1728L7.55715 45.3842C8.54462 47.1962 9.73076 48.8927 11.0937 50.4422L12.6482 49.0838C11.3809 47.6421 10.2782 46.0637 9.3605 44.3777C9.12577 43.9605 8.75501 43.6365 8.31013 43.4597C7.86525 43.2829 7.37319 43.2641 6.91611 43.4064L4.49341 44.1909L2.57445 38.307L4.99715 37.5132C5.45684 37.3641 5.84935 37.0579 6.10586 36.6483C6.36236 36.2387 6.46649 35.7519 6.39999 35.2732C6.12128 33.0975 6.12128 30.8951 6.39999 28.7194C6.46505 28.242 6.36019 27.7568 6.10375 27.3489C5.84731 26.9409 5.45561 26.6361 4.99715 26.4877L2.57135 25.6929L4.48928 19.7987L6.91611 20.5945C7.37594 20.7375 7.87094 20.718 8.31808 20.5392C8.76521 20.3605 9.13728 20.0334 9.37185 19.6129C10.4202 17.6847 11.7141 15.9006 13.2211 14.305C13.5553 13.9564 13.7562 13.5013 13.7885 13.0194C13.8207 12.5376 13.6824 12.0597 13.3976 11.6697L11.8988 9.60515L16.9083 5.96335L18.4123 8.03818C18.7001 8.42458 19.1131 8.6991 19.5807 8.81489C20.0483 8.93067 20.5417 8.88053 20.9765 8.67302C22.9552 7.72695 25.0492 7.04365 27.2051 6.64051C27.6798 6.55327 28.1091 6.30312 28.4191 5.93321C28.7291 5.56329 28.9003 5.0968 28.9032 4.61419V2.06451H35.0967V4.61419C35.0997 5.0971 35.2711 5.56383 35.5815 5.93378C35.8919 6.30373 36.3218 6.55369 36.7968 6.64051C38.9597 7.04524 41.0603 7.73133 43.0451 8.68128C43.4804 8.88466 43.9729 8.9307 44.4384 8.81154C44.904 8.69238 45.3137 8.41541 45.5978 8.02786L47.0987 5.96335L52.098 9.59999L50.6094 11.6542C50.3216 12.0445 50.1808 12.524 50.2119 13.0081C50.2431 13.4921 50.4442 13.9496 50.7798 14.2998C52.2909 15.9016 53.5882 17.6923 54.6394 19.6273C54.8757 20.0432 55.2474 20.3656 55.6925 20.5408C56.1377 20.7161 56.6294 20.7336 57.0858 20.5904L59.5085 19.8059L61.4275 25.6898L59.0048 26.4836C58.5443 26.6319 58.1509 26.9378 57.8936 27.3475C57.6363 27.7571 57.5315 28.2444 57.5978 28.7236C57.8765 30.8993 57.8765 33.1017 57.5978 35.2774C57.5329 35.7552 57.6382 36.2407 57.8953 36.6487C58.1523 37.0567 58.5447 37.3613 59.0037 37.5091L61.4295 38.3039L59.5116 44.1981L57.0838 43.4054C56.6238 43.2623 56.1286 43.2818 55.6813 43.4606C55.234 43.6393 54.8617 43.9664 54.627 44.387C53.7124 46.0652 52.6139 47.6363 51.3516 49.0714L52.9062 50.4299C54.2707 48.8786 55.457 47.1792 56.4427 45.3635L58.8747 46.1604C59.396 46.328 59.9624 46.2816 60.4495 46.0315C60.9366 45.7814 61.3043 45.348 61.4719 44.8268L63.3929 38.9429C63.5592 38.4233 63.5136 37.8589 63.2659 37.3728C63.0183 36.8866 62.5887 36.5178 62.0706 36.3468L59.6458 35.5406C59.7967 34.3664 59.8719 33.1838 59.8708 32C59.8715 30.8127 59.7963 29.6266 59.6458 28.449L62.0695 27.6552C62.5884 27.4833 63.0185 27.1134 63.2661 26.6261C63.5137 26.1387 63.5589 25.5733 63.3919 25.0529L61.4729 19.1742C61.3903 18.9149 61.2572 18.6744 61.0814 18.4667C60.9055 18.259 60.6904 18.0881 60.4482 17.9639C60.2061 17.8397 59.9418 17.7645 59.6705 17.7428C59.3992 17.7211 59.1263 17.7533 58.8675 17.8374L56.4427 18.624C55.3069 16.5371 53.9055 14.6062 52.2734 12.8795L53.7661 10.815C53.9266 10.5956 54.0423 10.3467 54.1065 10.0826C54.1706 9.81843 54.1819 9.54421 54.1398 9.27567C54.0977 9.00712 54.003 8.74954 53.8611 8.51769C53.7192 8.28584 53.5329 8.0843 53.3129 7.92463L48.3096 4.29832C48.0894 4.13593 47.8391 4.01906 47.5732 3.95455C47.3074 3.89003 47.0313 3.87916 46.7612 3.92257C46.4939 3.96414 46.2375 4.05858 46.0071 4.20037C45.7767 4.34216 45.5768 4.52846 45.4193 4.74838L43.9132 6.81289C41.7692 5.78588 39.4989 5.04658 37.1612 4.61419V2.06451C37.1612 1.51697 36.9437 0.991853 36.5565 0.604682C36.1694 0.217511 35.6442 0 35.0967 0H28.9032C28.3556 0 27.8305 0.217511 27.4433 0.604682C27.0562 0.991853 26.8387 1.51697 26.8387 2.06451L26.8252 4.61109C24.4894 5.04718 22.2209 5.78741 20.0774 6.81289L18.5858 4.7587C18.4273 4.53736 18.2266 4.34962 17.9951 4.20635C17.7636 4.06308 17.5061 3.96712 17.2373 3.92402C16.9685 3.88091 16.6939 3.89153 16.4292 3.95524C16.1646 4.01896 15.9152 4.13451 15.6955 4.29522L10.6828 7.93186C10.2407 8.25438 9.94481 8.73922 9.86003 9.27983C9.77525 9.82044 9.90857 10.3726 10.2307 10.815L11.7192 12.8857C10.0884 14.6125 8.68925 16.5442 7.55715 18.6322L5.12515 17.8353C4.60389 17.6678 4.03743 17.7142 3.55037 17.9643C3.06331 18.2144 2.69556 18.6478 2.52799 19.169L0.606966 25.0529C0.439097 25.5732 0.483935 26.1388 0.731688 26.6262C0.979442 27.1136 1.40998 27.4831 1.92929 27.6542Z" fill="#3358D3"/>
<path d="M53.0869 40.4366C54.1649 37.7548 54.7159 34.8903 54.7096 32C54.7096 25.977 52.3169 20.2007 48.0581 15.9418C43.7992 11.6829 38.0229 9.29031 31.9999 9.29031C25.977 9.29031 20.2007 11.6829 15.9418 15.9418C11.6829 20.2007 9.2903 25.977 9.2903 32C9.28399 34.8903 9.83495 37.7548 10.913 40.4366L12.8289 39.6655C11.8489 37.2289 11.3484 34.6262 11.3548 32C11.3548 26.5245 13.5299 21.2734 17.4016 17.4016C21.2733 13.5299 26.5245 11.3548 31.9999 11.3548C37.4754 11.3548 42.7265 13.5299 46.5982 17.4016C50.4699 21.2734 52.6451 26.5245 52.6451 32C52.6515 34.6262 52.1509 37.2289 51.171 39.6655L53.0869 40.4366Z" fill="#3358D3"/>
</svg>
