<svg width="64" height="60" viewBox="0 0 64 60" fill="none" xmlns="http://www.w3.org/2000/svg">
<path d="M62.9333 31.0714H34.1333V2.14286C34.1333 2.00216 34.1058 1.86283 34.0521 1.73284C33.9985 1.60284 33.92 1.48473 33.8209 1.38524C33.7219 1.28574 33.6043 1.20682 33.4749 1.15298C33.3455 1.09914 33.2067 1.07143 33.0667 1.07143H3.2C2.35161 1.0724 1.53824 1.41136 0.93833 2.01395C0.338424 2.61653 0.000970452 3.43353 0 4.28572V41.7857C0.000970452 42.6379 0.338424 43.4549 0.93833 44.0575C1.53824 44.6601 2.35161 44.999 3.2 45H25.6V53.5714H22.4C22.2599 53.5714 22.1212 53.5991 21.9918 53.653C21.8624 53.7068 21.7448 53.7857 21.6457 53.8852C21.5467 53.9847 21.4681 54.1028 21.4145 54.2328C21.3609 54.3628 21.3333 54.5022 21.3333 54.6429V58.9286C21.3333 59.0693 21.3609 59.2086 21.4145 59.3386C21.4681 59.4686 21.5467 59.5867 21.6457 59.6862C21.7448 59.7857 21.8624 59.8646 21.9918 59.9184C22.1212 59.9723 22.2599 60 22.4 60H41.6C41.7401 60 41.8788 59.9723 42.0082 59.9184C42.1376 59.8646 42.2552 59.7857 42.3543 59.6862C42.4533 59.5867 42.5319 59.4686 42.5855 59.3386C42.6391 59.2086 42.6667 59.0693 42.6667 58.9286V54.6429C42.6667 54.5022 42.6391 54.3628 42.5855 54.2328C42.5319 54.1028 42.4533 53.9847 42.3543 53.8852C42.2552 53.7857 42.1376 53.7068 42.0082 53.653C41.8788 53.5991 41.7401 53.5714 41.6 53.5714H38.4V45H60.8C61.6484 44.999 62.4618 44.6601 63.0617 44.0575C63.6616 43.4549 63.999 42.6379 64 41.7857V32.1429C64 32.0022 63.9724 31.8628 63.9188 31.7328C63.8652 31.6028 63.7866 31.4847 63.6876 31.3852C63.5885 31.2857 63.471 31.2068 63.3415 31.153C63.2121 31.0991 63.0734 31.0714 62.9333 31.0714ZM3.2 3.21429H32V7.5H2.13333V4.28572C2.13366 4.00166 2.24614 3.72932 2.44611 3.52846C2.64608 3.3276 2.9172 3.21461 3.2 3.21429ZM40.5333 57.8571H23.4667V55.7143H40.5333V57.8571ZM36.2667 53.5714H27.7333V45H30.9333V48.2143C30.9333 48.4984 31.0457 48.771 31.2458 48.9719C31.4458 49.1728 31.7171 49.2857 32 49.2857C32.2829 49.2857 32.5542 49.1728 32.7542 48.9719C32.9543 48.771 33.0667 48.4984 33.0667 48.2143V45H36.2667V53.5714ZM61.8667 41.7857C61.8663 42.0698 61.7539 42.3421 61.5539 42.543C61.3539 42.7438 61.0828 42.8568 60.8 42.8571H3.2C2.9172 42.8568 2.64608 42.7438 2.44611 42.543C2.24614 42.3421 2.13366 42.0698 2.13333 41.7857V9.64286H32V32.1429C32 32.2836 32.0276 32.4229 32.0812 32.5529C32.1348 32.6829 32.2134 32.801 32.3124 32.9005C32.4115 33 32.5291 33.0789 32.6585 33.1327C32.7879 33.1866 32.9266 33.2143 33.0667 33.2143H61.8667V41.7857Z" fill="#3358D3"/>
<path d="M4.26667 6.42857C4.85577 6.42857 5.33333 5.94888 5.33333 5.35714C5.33333 4.76541 4.85577 4.28572 4.26667 4.28572C3.67756 4.28572 3.2 4.76541 3.2 5.35714C3.2 5.94888 3.67756 6.42857 4.26667 6.42857Z" fill="#3358D3"/>
<path d="M7.46667 6.42857C8.05577 6.42857 8.53333 5.94888 8.53333 5.35714C8.53333 4.76541 8.05577 4.28572 7.46667 4.28572C6.87756 4.28572 6.4 4.76541 6.4 5.35714C6.4 5.94888 6.87756 6.42857 7.46667 6.42857Z" fill="#3358D3"/>
<path d="M10.6667 6.42857C11.2558 6.42857 11.7333 5.94888 11.7333 5.35714C11.7333 4.76541 11.2558 4.28572 10.6667 4.28572C10.0776 4.28572 9.6 4.76541 9.6 5.35714C9.6 5.94888 10.0776 6.42857 10.6667 6.42857Z" fill="#3358D3"/>
<path d="M29.8667 12.8571C29.8667 12.7164 29.8391 12.5771 29.7855 12.4471C29.7319 12.3171 29.6533 12.199 29.5543 12.0995C29.4552 12 29.3376 11.9211 29.2082 11.8673C29.0788 11.8134 28.9401 11.7857 28.8 11.7857H24.5333C24.3933 11.7857 24.2545 11.8134 24.1251 11.8673C23.9957 11.9211 23.8781 12 23.7791 12.0995C23.68 12.199 23.6015 12.3171 23.5479 12.4471C23.4943 12.5771 23.4667 12.7164 23.4667 12.8571V17.1429H20.2667C20.1266 17.1429 19.9879 17.1706 19.8585 17.2244C19.7291 17.2783 19.6115 17.3572 19.5124 17.4567C19.4134 17.5562 19.3348 17.6743 19.2812 17.8043C19.2276 17.9343 19.2 18.0736 19.2 18.2143V21.4286H16C15.8599 21.4286 15.7212 21.4563 15.5918 21.5101C15.4624 21.564 15.3448 21.6429 15.2457 21.7424C15.1467 21.8419 15.0681 21.96 15.0145 22.09C14.9609 22.22 14.9333 22.3593 14.9333 22.5V26.7857H11.7333C11.5933 26.7857 11.4545 26.8134 11.3251 26.8673C11.1957 26.9211 11.0781 27 10.9791 27.0995C10.88 27.199 10.8015 27.3171 10.7479 27.4471C10.6943 27.5771 10.6667 27.7164 10.6667 27.8571V31.0714H7.46667C7.32659 31.0714 7.18788 31.0991 7.05847 31.153C6.92905 31.2068 6.81146 31.2857 6.71241 31.3852C6.61336 31.4847 6.53479 31.6028 6.48119 31.7328C6.42758 31.8628 6.4 32.0022 6.4 32.1429V35.3571H4.26667V37.5H34.1333V35.3571H29.8667V12.8571ZM8.53333 33.2143H10.6667V35.3571H8.53333V33.2143ZM12.8 28.9286H14.9333V35.3571H12.8V28.9286ZM17.0667 23.5714H19.2V35.3571H17.0667V23.5714ZM21.3333 19.2857H23.4667V35.3571H21.3333V19.2857ZM25.6 35.3571V13.9286H27.7333V35.3571H25.6Z" fill="#3358D3"/>
<path d="M38.4 35.3571H36.2667V37.5H38.4V35.3571Z" fill="#3358D3"/>
<path d="M43.7333 24.6429C44.32 24.6429 44.8954 24.481 45.3967 24.1748C45.8979 23.8686 46.3057 23.4298 46.5755 22.9065C46.8452 22.3832 46.9666 21.7954 46.9262 21.2075C46.8859 20.6196 46.6854 20.0542 46.3467 19.573C46.008 19.0918 45.5442 18.7134 45.0058 18.4792C44.4675 18.2449 43.8754 18.1638 43.2943 18.2448C42.7132 18.3257 42.1654 18.5655 41.7108 18.9381C41.2562 19.3106 40.9124 19.8015 40.7168 20.3571H36.2667V22.5H40.7168C40.938 23.1262 41.3467 23.6683 41.8867 24.052C42.4268 24.4356 43.0718 24.642 43.7333 24.6429ZM43.7333 20.3571C43.9443 20.3571 44.1505 20.42 44.3259 20.5377C44.5014 20.6554 44.6381 20.8228 44.7188 21.0186C44.7995 21.2143 44.8207 21.4298 44.7795 21.6376C44.7383 21.8454 44.6368 22.0363 44.4876 22.1862C44.3384 22.336 44.1483 22.4381 43.9414 22.4794C43.7345 22.5208 43.5201 22.4995 43.3251 22.4184C43.1302 22.3374 42.9636 22.2 42.8464 22.0238C42.7292 21.8476 42.6667 21.6405 42.6667 21.4286C42.667 21.1445 42.7795 20.8722 42.9794 20.6713C43.1794 20.4705 43.4505 20.3575 43.7333 20.3571Z" fill="#3358D3"/>
<path d="M60.8 1.07143C60.1385 1.07226 59.4935 1.27866 58.9534 1.66232C58.4133 2.04598 58.0047 2.58809 57.7835 3.21429H55.4667C55.3128 3.21429 55.1608 3.24773 55.021 3.3123C54.8812 3.37688 54.7569 3.47107 54.6568 3.58841L49.0064 10.21L45.5542 6.7424C45.4552 6.6429 45.3376 6.56398 45.2082 6.51013C45.0788 6.45628 44.9401 6.42857 44.8 6.42857H36.2667V8.57143H44.3582L48.3124 12.5433C48.4115 12.6428 48.5291 12.7217 48.6585 12.7756C48.7879 12.8294 48.9266 12.8571 49.0667 12.8571H54.5835C54.8351 13.572 55.3302 14.1745 55.9813 14.5582C56.6324 14.9418 57.3976 15.0819 58.1416 14.9537C58.8856 14.8255 59.5605 14.4372 60.0471 13.8575C60.5336 13.2778 60.8005 12.544 60.8005 11.7857C60.8005 11.0275 60.5336 10.2937 60.0471 9.71394C59.5605 9.13422 58.8856 8.74594 58.1416 8.61772C57.3976 8.4895 56.6324 8.6296 55.9813 9.01325C55.3302 9.39691 54.8351 9.99941 54.5835 10.7143H51.3859L55.9573 5.35714H57.7835C57.9791 5.91267 58.3229 6.4035 58.7775 6.77598C59.232 7.14846 59.7798 7.38826 60.3608 7.46917C60.9419 7.55008 61.5339 7.46898 62.0722 7.23473C62.6105 7.00049 63.0743 6.62212 63.413 6.14098C63.7516 5.65984 63.9521 5.09445 63.9924 4.50661C64.0328 3.91876 63.9115 3.33108 63.6418 2.80781C63.3721 2.28454 62.9643 1.84581 62.4632 1.53958C61.962 1.23334 61.3866 1.07139 60.8 1.07143ZM57.6 10.7143C57.811 10.7143 58.0172 10.7771 58.1926 10.8949C58.368 11.0126 58.5047 11.1799 58.5855 11.3757C58.6662 11.5715 58.6873 11.7869 58.6462 11.9947C58.605 12.2026 58.5034 12.3935 58.3543 12.5433C58.2051 12.6932 58.015 12.7952 57.8081 12.8366C57.6012 12.8779 57.3867 12.8567 57.1918 12.7756C56.9969 12.6945 56.8303 12.5572 56.7131 12.381C56.5959 12.2048 56.5333 11.9976 56.5333 11.7857C56.5337 11.5017 56.6461 11.2293 56.8461 11.0285C57.0461 10.8276 57.3172 10.7146 57.6 10.7143ZM60.8 5.35714C60.589 5.35714 60.3828 5.29431 60.2074 5.17658C60.032 5.05885 59.8953 4.89151 59.8145 4.69573C59.7338 4.49996 59.7127 4.28453 59.7538 4.07669C59.795 3.86885 59.8966 3.67794 60.0458 3.5281C60.1949 3.37826 60.385 3.27622 60.5919 3.23487C60.7988 3.19353 61.0133 3.21475 61.2082 3.29584C61.4031 3.37694 61.5697 3.51427 61.6869 3.69046C61.8041 3.86666 61.8667 4.07381 61.8667 4.28572C61.8663 4.56978 61.7539 4.84211 61.5539 5.04297C61.3539 5.24383 61.0828 5.35682 60.8 5.35714Z" fill="#3358D3"/>
<path d="M48 6.42857C48.5867 6.42866 49.1621 6.26674 49.6633 5.96051C50.1646 5.65428 50.5724 5.21552 50.8421 4.69221C51.1119 4.1689 51.2332 3.58116 51.1929 2.99326C51.1526 2.40535 50.9521 1.8399 50.6134 1.35871C50.2747 0.877523 49.8108 0.499121 49.2725 0.264867C48.7342 0.030613 48.1421 -0.0504759 47.561 0.0304642C46.9798 0.111404 46.432 0.351258 45.9775 0.723807C45.5229 1.09636 45.179 1.58726 44.9835 2.14286H36.2667V4.28572H44.9835C45.2047 4.91191 45.6133 5.45403 46.1534 5.83768C46.6935 6.22134 47.3385 6.42774 48 6.42857ZM48 2.14286C48.211 2.14286 48.4172 2.2057 48.5926 2.32343C48.768 2.44116 48.9047 2.60849 48.9855 2.80427C49.0662 3.00005 49.0873 3.21548 49.0462 3.42331C49.005 3.63115 48.9034 3.82206 48.7542 3.9719C48.6051 4.12174 48.415 4.22379 48.2081 4.26513C48.0012 4.30647 47.7867 4.28525 47.5918 4.20416C47.3969 4.12306 47.2303 3.98574 47.1131 3.80954C46.9959 3.63335 46.9333 3.4262 46.9333 3.21429C46.9337 2.93023 47.0461 2.65789 47.2461 2.45703C47.4461 2.25617 47.7172 2.14318 48 2.14286Z" fill="#3358D3"/>
<path d="M46.1794 15.7579C45.8538 16.4423 45.7797 17.2204 45.97 17.9544C46.1603 18.6885 46.6029 19.3314 47.2195 19.7694C47.8361 20.2074 48.5869 20.4123 49.3394 20.348C50.0919 20.2836 50.7975 19.9541 51.3315 19.4178C51.8655 18.8814 52.1935 18.1726 52.2575 17.4168C52.3216 16.661 52.1176 15.9067 51.6815 15.2874C51.2455 14.6681 50.6055 14.2235 49.8747 14.0324C49.1438 13.8412 48.3693 13.9157 47.6879 14.2427L45.5542 12.0995C45.4552 12 45.3376 11.9211 45.2082 11.8673C45.0788 11.8134 44.9401 11.7857 44.8 11.7857H36.2667V13.9286H44.3582L46.1794 15.7579ZM50.1333 17.1429C50.1333 17.3548 50.0708 17.5619 49.9536 17.7381C49.8364 17.9143 49.6698 18.0516 49.4749 18.1327C49.28 18.2138 49.0655 18.235 48.8586 18.1937C48.6517 18.1524 48.4616 18.0503 48.3124 17.9005C48.1632 17.7506 48.0617 17.5597 48.0205 17.3519C47.9793 17.144 48.0005 16.9286 48.0812 16.7328C48.1619 16.5371 48.2986 16.3697 48.4741 16.252C48.6495 16.1343 48.8557 16.0714 49.0667 16.0714C49.3495 16.0718 49.6206 16.1847 49.8206 16.3856C50.0205 16.5865 50.133 16.8588 50.1333 17.1429Z" fill="#3358D3"/>
<path d="M53.0996 27.455L56.3849 23.3301C57.0836 23.6185 57.8612 23.6496 58.5805 23.4179C59.2997 23.1862 59.9143 22.7065 60.3156 22.0637C60.7168 21.4209 60.879 20.6563 60.7733 19.905C60.6677 19.1538 60.3011 18.4642 59.7382 17.9581C59.1754 17.4521 58.4526 17.1622 57.6976 17.1396C56.9426 17.1171 56.2039 17.3633 55.6122 17.8349C55.0204 18.3064 54.6136 18.9729 54.4637 19.7165C54.3138 20.4601 54.4304 21.233 54.7929 21.8987L51.754 25.7143H36.2667V27.8571H52.2667C52.4266 27.8571 52.5846 27.821 52.7288 27.7514C52.8729 27.6818 52.9997 27.5805 53.0996 27.455ZM57.6 19.2857C57.811 19.2857 58.0172 19.3486 58.1926 19.4663C58.368 19.584 58.5047 19.7513 58.5855 19.9471C58.6662 20.1429 58.6873 20.3583 58.6462 20.5662C58.605 20.774 58.5034 20.9649 58.3543 21.1148C58.2051 21.2646 58.015 21.3666 57.8081 21.408C57.6012 21.4493 57.3867 21.4281 57.1918 21.347C56.9969 21.2659 56.8303 21.1286 56.7131 20.9524C56.5959 20.7762 56.5333 20.569 56.5333 20.3571C56.5337 20.0731 56.6461 19.8007 56.8461 19.5999C57.0461 19.399 57.3172 19.286 57.6 19.2857Z" fill="#3358D3"/>
</svg>
