<svg width="62" height="62" viewBox="0 0 62 62" fill="none" xmlns="http://www.w3.org/2000/svg">
<path d="M12.2756 51.1913H19.2498C19.6765 51.1913 20.0232 50.8453 20.0232 50.4195V36.8208C20.0232 36.395 19.6765 36.049 19.2498 36.049H12.2756C11.8489 36.049 11.5022 36.395 11.5022 36.8208V50.4195C11.5022 50.8453 11.8476 51.1913 12.2756 51.1913ZM13.0491 37.5926H18.4763V49.6477H13.0491V37.5926ZM23.5258 26.2037C23.0991 26.2037 22.7523 26.5497 22.7523 26.9755V50.4195C22.7523 50.8453 23.0991 51.1913 23.5258 51.1913H30.4999C30.9266 51.1913 31.2734 50.8453 31.2734 50.4195V26.9755C31.2734 26.5497 30.9266 26.2037 30.4999 26.2037H23.5258ZM29.7264 49.6477H24.2992V27.7473H29.7264V49.6477ZM34.7759 32.5156C34.3492 32.5156 34.0024 32.8616 34.0024 33.2874V50.4195C34.0024 50.8453 34.3492 51.1913 34.7759 51.1913H41.75C42.1767 51.1913 42.5235 50.8453 42.5235 50.4195V33.2874C42.5235 32.8616 42.1767 32.5156 41.75 32.5156H34.7759ZM40.9766 49.6477H35.5494V34.0591H40.9766V49.6477ZM46.0261 21.4702C45.5993 21.4702 45.2526 21.8162 45.2526 22.2419V50.4195C45.2526 50.8453 45.5993 51.1913 46.0261 51.1913H53.0002C53.4269 51.1913 53.7737 50.8453 53.7737 50.4195V22.2419C53.7737 21.8162 53.4269 21.4702 53.0002 21.4702H46.0261ZM52.2267 49.6477H46.7995V23.0137H52.2267V49.6477ZM61.7726 57.4581L57.4476 61.7736C57.2968 61.9241 57.0983 62 56.9011 62C56.7038 62 56.5053 61.9241 56.3545 61.7736C56.0528 61.4726 56.0528 60.9838 56.3545 60.6815L59.3594 57.6832H5.09911C4.67241 57.6832 4.32564 57.3372 4.32564 56.9114V2.63626L1.3207 5.63332C1.01905 5.93432 0.529183 5.93432 0.22624 5.63332C-0.0754135 5.33233 -0.0754135 4.84354 0.22624 4.54126L4.55123 0.225745C4.85289 -0.0752482 5.34275 -0.0752482 5.6457 0.225745L9.97069 4.54126C10.2723 4.84225 10.2723 5.33104 9.97069 5.63332C9.81986 5.78382 9.62134 5.85971 9.4241 5.85971C9.22687 5.85971 9.02834 5.78382 8.87752 5.63332L5.87258 2.63626V56.1422H59.3594L56.3545 53.1439C56.0528 52.8429 56.0528 52.3541 56.3545 52.0518C56.6561 51.7508 57.146 51.7508 57.4489 52.0518L61.7739 56.3673C62.0756 56.6683 62.0756 57.1571 61.7726 57.4581ZM15.7627 31.4557C18.1115 31.4557 20.0232 29.5481 20.0232 27.2045C20.0232 26.2217 19.6868 25.3162 19.1234 24.5959L24.8072 18.221C25.4504 18.612 26.2059 18.8371 27.0128 18.8371C28.1344 18.8371 29.1566 18.4011 29.9185 17.691L34.4369 21.0277C34.1597 21.5911 34.0037 22.2252 34.0037 22.8941C34.0037 25.2377 35.9155 27.1453 38.2643 27.1453C40.613 27.1453 42.5248 25.2377 42.5248 22.8941C42.5248 21.7467 42.0659 20.7048 41.3233 19.9395L47.7148 10.9856C48.2614 11.2416 48.8711 11.3843 49.5144 11.3843C51.8632 11.3843 53.7749 9.47677 53.7749 7.13314C53.7749 4.78951 51.8632 2.88194 49.5144 2.88194C47.1656 2.88194 45.2539 4.78951 45.2539 7.13314C45.2539 8.28052 45.7128 9.32241 46.4553 10.0878L40.0639 19.0416C39.5173 18.7857 38.9075 18.6429 38.2643 18.6429C37.1427 18.6429 36.1205 19.079 35.3586 19.789L30.8402 16.4523C31.1174 15.8889 31.2734 15.2548 31.2734 14.5859C31.2734 12.2423 29.3616 10.3347 27.0128 10.3347C24.6641 10.3347 22.7523 12.2423 22.7523 14.5859C22.7523 15.5687 23.0888 16.4742 23.6521 17.1945L17.9684 23.5694C17.3251 23.1784 16.5697 22.9546 15.7627 22.9546C13.4139 22.9546 11.5022 24.8621 11.5022 27.2058C11.5022 29.5494 13.4126 31.4557 15.7627 31.4557ZM49.5131 4.42421C51.0098 4.42421 52.2267 5.63847 52.2267 7.13186C52.2267 8.62524 51.0098 9.8395 49.5131 9.8395C48.0164 9.8395 46.7995 8.62524 46.7995 7.13186C46.7995 5.63847 48.0164 4.42421 49.5131 4.42421ZM38.263 20.1852C39.7596 20.1852 40.9766 21.3994 40.9766 22.8928C40.9766 24.3862 39.7596 25.6005 38.263 25.6005C36.7663 25.6005 35.5494 24.3862 35.5494 22.8928C35.5494 21.3994 36.7663 20.1852 38.263 20.1852ZM27.0128 11.877C28.5095 11.877 29.7264 13.0913 29.7264 14.5846C29.7264 16.078 28.5095 17.2923 27.0128 17.2923C25.5162 17.2923 24.2992 16.078 24.2992 14.5846C24.2992 13.0913 25.5162 11.877 27.0128 11.877ZM15.7627 24.4968C17.2594 24.4968 18.4763 25.7111 18.4763 27.2045C18.4763 28.6979 17.2594 29.9121 15.7627 29.9121C14.266 29.9121 13.0491 28.6979 13.0491 27.2045C13.0491 25.7111 14.266 24.4968 15.7627 24.4968Z" fill="#3358D3"/>
</svg>
