<svg width="36" height="36" viewBox="0 0 36 36" fill="none" xmlns="http://www.w3.org/2000/svg">
<path d="M12.4986 8.45302C12.3952 8.77133 12.497 9.11248 12.7579 9.32222L15.0806 11.1892L14.2988 14.0649C14.2111 14.3877 14.3292 14.7235 14.6002 14.9206C14.8711 15.1172 15.2268 15.1258 15.5069 14.9426L18.0002 13.3104L20.4935 14.9426C20.628 15.0306 20.7798 15.0743 20.9313 15.0743C21.0955 15.0743 21.2594 15.0229 21.4001 14.9206C21.6712 14.7238 21.7894 14.3877 21.7015 14.0649L20.9197 11.1892L23.2423 9.32237C23.5033 9.11269 23.6052 8.77147 23.5017 8.45302C23.3982 8.13451 23.1153 7.9183 22.781 7.90213L19.8045 7.757L18.7467 4.97108C18.628 4.65812 18.3349 4.45584 18.0001 4.45584C17.6654 4.45584 17.3722 4.65805 17.2535 4.97101L16.1957 7.75707L13.2195 7.90213C12.885 7.9183 12.6021 8.13451 12.4986 8.45302ZM16.4639 8.87026C16.7811 8.85479 17.0589 8.65292 17.1715 8.35606L18 6.17392L18.8286 8.35627C18.9414 8.65306 19.2192 8.85479 19.5362 8.87026L21.8675 8.98395L20.0481 10.4462C19.8006 10.6453 19.6945 10.9719 19.7778 11.2782L20.3902 13.5306L18.4372 12.2521C18.3044 12.1652 18.1522 12.1217 18 12.1217C17.8477 12.1217 17.6954 12.1652 17.5625 12.2521L15.6097 13.5306L16.222 11.2783C16.3054 10.9718 16.1993 10.6452 15.9517 10.4462L14.1324 8.98402L16.4639 8.87026ZM17.4375 2.62673V0.562499C17.4375 0.251859 17.6894 0 18 0C18.3107 0 18.5625 0.251859 18.5625 0.562499V2.62673C18.5625 2.93737 18.3107 3.18923 18 3.18923C17.6894 3.18923 17.4375 2.93737 17.4375 2.62673ZM20.863 5.95939C20.6552 5.72856 20.6738 5.37285 20.9046 5.16501L23.2049 3.09374C23.4358 2.88583 23.7914 2.90446 23.9993 3.13537C24.2072 3.3662 24.1885 3.72191 23.9577 3.92976L21.6574 6.00102C21.5499 6.09784 21.4153 6.14551 21.2812 6.14551C21.1274 6.14551 20.9741 6.08279 20.863 5.95939ZM12.0008 3.13537C12.2086 2.90446 12.5642 2.88583 12.7952 3.09374L15.0955 5.16501C15.3263 5.37285 15.345 5.72856 15.1371 5.95939C15.026 6.08272 14.8727 6.14551 14.7189 6.14551C14.5848 6.14551 14.4502 6.09784 14.3427 6.00102L12.0424 3.92976C11.8115 3.72191 11.7929 3.3662 12.0008 3.13537ZM25.2163 9.32222L27.539 11.1892L26.7573 14.0649C26.6695 14.3877 26.7877 14.7235 27.0586 14.9206C27.3294 15.1172 27.6852 15.1257 27.9653 14.9426L30.4586 13.3104L32.952 14.9426C33.0864 15.0306 33.2382 15.0743 33.3898 15.0743C33.554 15.0743 33.7179 15.0229 33.8586 14.9206C34.1295 14.7239 34.2478 14.388 34.1599 14.0649L33.3782 11.1892L35.7007 9.32237C35.9617 9.11276 36.0635 8.77154 35.96 8.45302C35.8566 8.13451 35.5737 7.9183 35.2394 7.90213L32.263 7.757L31.2053 4.97108C31.0865 4.65812 30.7934 4.45584 30.4586 4.45584C30.1238 4.45584 29.8307 4.65805 29.7119 4.97101L28.6542 7.757L25.678 7.90206C25.3434 7.91823 25.0605 8.13451 24.9571 8.45302C24.8536 8.77147 24.9554 9.11269 25.2163 9.32222ZM28.9223 8.87026C29.2396 8.85479 29.5175 8.65292 29.6301 8.35599L30.4586 6.17385L31.287 8.35592C31.3997 8.65292 31.6775 8.85479 31.9947 8.87019L34.326 8.98388L32.5069 10.446C32.2592 10.645 32.153 10.9717 32.2364 11.2781L32.8487 13.5305L30.8958 12.252C30.7629 12.1651 30.6106 12.1216 30.4584 12.1216C30.3061 12.1216 30.1538 12.1652 30.021 12.2521L28.0682 13.5305L28.6805 11.2782C28.7639 10.9719 28.6578 10.6453 28.4102 10.4462L26.5909 8.98388L28.9223 8.87026ZM0.299264 9.32222L2.62198 11.1892L1.8402 14.0649C1.75245 14.3877 1.87064 14.7235 2.14155 14.9206C2.41253 15.1172 2.76823 15.1258 3.04828 14.9426L5.54157 13.3104L8.03494 14.9426C8.16938 15.0306 8.32118 15.0743 8.4727 15.0743C8.63694 15.0743 8.80084 15.0229 8.94153 14.9206C9.21244 14.7239 9.3307 14.388 9.24288 14.0649L8.46109 11.1892L10.7837 9.32237C11.0445 9.1129 11.1464 8.77175 11.043 8.45267C10.9393 8.13437 10.6564 7.91823 10.3224 7.90206L7.34589 7.75693L6.28821 4.97108C6.16945 4.65812 5.87633 4.45584 5.54157 4.45584C5.20675 4.45584 4.91363 4.65805 4.79487 4.97101L3.73719 7.757L0.760926 7.90206C0.426457 7.91823 0.143526 8.13451 0.0401685 8.45267C-0.0635401 8.77126 0.0381998 9.11262 0.299264 9.32222ZM4.00521 8.87026C4.32252 8.85479 4.60039 8.65292 4.71303 8.35599L5.5415 6.17385L6.36991 8.35592C6.48262 8.65292 6.76049 8.85479 7.07766 8.87019L9.40896 8.98388L7.5898 10.446C7.3421 10.645 7.23593 10.9717 7.31932 11.2781L7.93165 13.5305L5.9787 12.252C5.84581 12.1651 5.69359 12.1216 5.54136 12.1216C5.38907 12.1216 5.23678 12.1652 5.10396 12.2521L3.15114 13.5305L3.76348 11.2782C3.8468 10.9719 3.74077 10.6453 3.49314 10.4462L1.67384 8.98388L4.00521 8.87026ZM35.9111 29.878C35.5153 28.5999 34.7047 27.4523 33.6285 26.6463C33.1132 26.2605 32.5521 25.96 31.9603 25.7473C32.7809 25.1032 33.3096 24.1034 33.3096 22.9817C33.3096 21.0434 31.7327 19.4666 29.7946 19.4666C27.8564 19.4666 26.2796 21.0434 26.2796 22.9817C26.2796 24.102 26.807 25.1009 27.626 25.745C26.5284 26.1368 25.556 26.8252 24.8113 27.7527C24.4633 27.2658 24.0618 26.8136 23.6105 26.4054C22.7011 25.5829 21.6338 24.979 20.4845 24.622C21.7033 23.814 22.5091 22.4304 22.5091 20.8617C22.5091 18.3754 20.4863 16.3527 18.0001 16.3527C15.5139 16.3527 13.4911 18.3754 13.4911 20.8617C13.4911 22.4304 14.2968 23.814 15.5157 24.622C14.3662 24.9789 13.299 25.5829 12.3896 26.4054C11.9383 26.8136 11.5368 27.2658 11.1888 27.7526C10.4442 26.825 9.47181 26.1367 8.37412 25.7448C9.19303 25.1007 9.72057 24.1018 9.72057 22.9815C9.72057 21.0432 8.14371 19.4664 6.20559 19.4664C4.2674 19.4664 2.69054 21.0432 2.69054 22.9815C2.69054 24.1031 3.21928 25.103 4.0398 25.7471C3.44793 25.9598 2.88685 26.2603 2.37154 26.6461C1.29529 27.452 0.484674 28.5997 0.0888939 29.8778C-0.0939847 30.4681 0.00733329 31.0672 0.374145 31.5649C0.740887 32.0624 1.28327 32.3364 1.9013 32.3364H9.67719V33.3515C9.67719 34.8119 10.8652 36 12.3256 36H23.6745C25.1348 36 26.3229 34.8119 26.3229 33.3515V32.3367H34.0988C34.7169 32.3367 35.2593 32.0626 35.6259 31.5652C35.9927 31.0675 36.094 30.4683 35.9111 29.878ZM29.7946 20.5916C31.1125 20.5916 32.1846 21.6638 32.1846 22.9817C32.1846 24.2996 31.1125 25.3718 29.7946 25.3718C28.4767 25.3718 27.4045 24.2996 27.4045 22.9817C27.4045 21.6638 28.4767 20.5916 29.7946 20.5916ZM14.6161 20.8617C14.6161 18.9957 16.1342 17.4777 18.0001 17.4777C19.866 17.4777 21.3841 18.9957 21.3841 20.8617C21.3841 22.7271 19.867 24.2447 18.0019 24.2457C18.0013 24.2457 18.0006 24.2457 18 24.2457C17.9995 24.2457 17.9988 24.2457 17.9982 24.2457C16.1331 24.2446 14.6161 22.727 14.6161 20.8617ZM6.20559 20.5913C7.52343 20.5913 8.5956 21.6635 8.5956 22.9814C8.5956 24.2993 7.52343 25.3715 6.20559 25.3715C4.88768 25.3715 3.81551 24.2993 3.81551 22.9814C3.81551 21.6635 4.88768 20.5913 6.20559 20.5913ZM9.75025 31.2113H1.90137C1.64248 31.2113 1.43338 31.1057 1.27975 30.8973C1.12605 30.6889 1.08703 30.4578 1.1636 30.2106C1.85152 27.989 3.87781 26.4965 6.20559 26.4965C7.96639 26.4965 9.57039 27.3473 10.5569 28.7875C10.1669 29.5452 9.89375 30.3619 9.75025 31.2113ZM25.198 33.3515C25.1979 34.1915 24.5145 34.8749 23.6745 34.8749H12.3256C11.4856 34.8749 10.8022 34.1915 10.8022 33.3515V31.8044C11.2094 28.1349 14.2977 25.3716 17.9982 25.3707C17.9988 25.3707 17.9995 25.3707 18.0001 25.3707C18.0007 25.3707 18.0014 25.3707 18.0019 25.3707C21.7023 25.3717 24.7906 28.1349 25.198 31.8044V33.3515ZM34.7204 30.8976C34.5668 31.106 34.3577 31.2116 34.0988 31.2116H26.25C26.1064 30.3621 25.8332 29.5454 25.4433 28.7876C26.4299 27.3475 28.0338 26.4968 29.7945 26.4968C32.1223 26.4968 34.1486 27.9894 34.8365 30.2109C34.9131 30.4581 34.874 30.6891 34.7204 30.8976Z" fill="white"/>
</svg>
