<svg width="36" height="36" viewBox="0 0 36 36" fill="none" xmlns="http://www.w3.org/2000/svg">
<path d="M29.211 15.3056C29.2305 15.1762 29.2305 15.1087 29.2435 14.9906L29.25 14.9231C29.4126 12.1162 28.3851 9.6525 26.3562 7.97625C24.3273 6.3 21.3945 5.52375 18.104 5.79375C11.6662 6.32813 7.34827 10.0519 7.34827 15.0581C7.34827 17.5894 8.44075 20.4131 10.2616 22.6013C11.5166 24.1088 12.1799 25.9369 12.1799 27.8944V29.6438C12.1799 29.9363 12.4465 30.1725 12.7847 30.1837C12.7327 30.33 12.6936 30.4763 12.6936 30.6394C12.6936 31.0219 12.8627 31.365 13.1228 31.635C12.8562 31.905 12.6936 32.2481 12.6936 32.6306C12.6936 33.3956 13.3504 34.0313 14.1958 34.1438C14.4689 35.2013 15.5614 36 16.8685 36H20.1329C21.44 36 22.5325 35.2069 22.8056 34.1438C23.6575 34.0256 24.3078 33.3956 24.3078 32.6306C24.3078 32.2481 24.1387 31.905 23.8786 31.635C24.1452 31.365 24.3078 31.0219 24.3078 30.6394C24.3078 30.4819 24.2753 30.3356 24.2233 30.1894H24.3598C24.711 30.1894 24.9906 29.9475 24.9906 29.6438V25.7456C24.9906 25.5769 25.1467 25.4419 25.3418 25.4419H27.2341C28.5087 25.4419 29.5426 24.5475 29.5426 23.445V21.0544L30.5181 20.9531C30.8887 20.9137 31.2139 20.7225 31.3829 20.4356C31.5585 20.1488 31.552 19.8056 31.396 19.5637L29.211 15.3056ZM20.1329 34.9088H16.8685C16.2767 34.9088 15.7695 34.605 15.5289 34.1719H21.4725C21.2319 34.605 20.7247 34.9088 20.1329 34.9088ZM22.5325 33.0806H14.4689C14.1828 33.0806 13.9487 32.8781 13.9487 32.6306C13.9487 32.3831 14.1828 32.1806 14.4689 32.1806H22.5325C22.8186 32.1806 23.0527 32.3831 23.0527 32.6306C23.0462 32.8781 22.8186 33.0806 22.5325 33.0806ZM23.0462 30.645C23.0462 30.8925 22.8121 31.095 22.526 31.095H14.4624C14.1763 31.095 13.9422 30.8925 13.9422 30.645C13.9422 30.3975 14.1763 30.195 14.4624 30.195H22.526C22.8186 30.195 23.0462 30.3919 23.0462 30.645ZM28.8403 20.0306C28.5217 20.0644 28.2811 20.295 28.2811 20.5706V23.445C28.2811 23.9456 27.8129 24.3506 27.2341 24.3506H25.3483C24.4574 24.3506 23.7355 24.975 23.7355 25.7456V29.0981H13.435V27.9C13.435 25.7119 12.6871 23.6587 11.2825 21.9656C9.60477 19.9519 8.60332 17.37 8.60332 15.0581C8.60332 10.6425 12.466 7.3575 18.2211 6.87937C21.1799 6.6375 23.69 7.28437 25.4783 8.76375C27.2341 10.215 28.125 12.3863 27.9819 14.8669L27.9754 14.9344C27.9689 15.0581 27.9624 15.1088 27.9299 15.3C27.9104 15.4013 27.9299 15.5081 27.9754 15.6037L30.1799 19.89L28.8403 20.0306Z" fill="white"/>
<path d="M18.039 4.31438C18.3902 4.31438 18.6698 4.0725 18.6698 3.76875V0.545625C18.6698 0.241875 18.3902 0 18.039 0C17.6879 0 17.4082 0.241875 17.4082 0.545625V3.76875C17.4082 4.0725 17.6879 4.31438 18.039 4.31438Z" fill="white"/>
<path d="M24.5419 5.83875C24.6395 5.88938 24.75 5.91188 24.854 5.91188C25.0751 5.91188 25.2832 5.81625 25.4003 5.64187L27.2666 2.84625C27.4422 2.5875 27.3381 2.25 27.0325 2.10375C26.7334 1.95187 26.3432 2.04187 26.1741 2.30625L24.3078 5.09625C24.1322 5.355 24.2363 5.68688 24.5419 5.83875Z" fill="white"/>
<path d="M29.8353 10.2431C29.9393 10.2431 30.0499 10.2206 30.1474 10.17L33.3728 8.55563C33.672 8.40375 33.776 8.07188 33.6069 7.81313C33.4314 7.55438 33.0477 7.46437 32.7486 7.61062L29.5231 9.225C29.224 9.37687 29.1199 9.70875 29.289 9.9675C29.4061 10.1475 29.6207 10.2431 29.8353 10.2431Z" fill="white"/>
<path d="M35.3692 15.0581H31.6431C31.2919 15.0581 31.0123 15.3 31.0123 15.6037C31.0123 15.9075 31.2919 16.1494 31.6431 16.1494H35.3692C35.7204 16.1494 36 15.9075 36 15.6037C36 15.3056 35.7204 15.0581 35.3692 15.0581Z" fill="white"/>
<path d="M5.8526 20.97L2.62066 22.5844C2.32153 22.7363 2.21749 23.0681 2.39306 23.3269C2.51012 23.5013 2.72471 23.5969 2.93931 23.5969C3.04335 23.5969 3.1539 23.5744 3.25144 23.5237L6.47688 21.9094C6.77601 21.7575 6.88006 21.4256 6.71098 21.1669C6.5354 20.9081 6.15173 20.8237 5.8526 20.97Z" fill="white"/>
<path d="M4.98772 15.5419C4.98772 15.2381 4.70809 14.9962 4.35694 14.9962H0.63078C0.279624 14.9962 0 15.2381 0 15.5419C0 15.8456 0.279624 16.0875 0.63078 16.0875H4.35694C4.70159 16.0819 4.98772 15.84 4.98772 15.5419Z" fill="white"/>
<path d="M6.5159 9.16875L3.28396 7.55438C2.98483 7.4025 2.59465 7.4925 2.42558 7.75687C2.25 8.01562 2.35405 8.35313 2.65968 8.49938L5.88511 10.1137C5.98266 10.1644 6.09321 10.1869 6.19725 10.1869C6.41835 10.1869 6.62644 10.0912 6.7435 9.91687C6.92558 9.6525 6.82153 9.32062 6.5159 9.16875Z" fill="white"/>
<path d="M10.6647 5.60813C10.7818 5.7825 10.9964 5.87812 11.211 5.87812C11.315 5.87812 11.4256 5.85562 11.5231 5.805C11.8223 5.65312 11.9263 5.32125 11.7572 5.0625L9.8909 2.2725C9.71532 2.00812 9.33165 1.92375 9.03251 2.07C8.72688 2.22188 8.62934 2.55375 8.79841 2.8125L10.6647 5.60813Z" fill="white"/>
<path d="M25.9921 13.4156C25.8295 13.3369 25.6279 13.3256 25.4588 13.3875L25.3483 13.4269C25.0101 13.5394 24.6264 13.3931 24.4964 13.1062C24.4314 12.96 24.4379 12.8138 24.5094 12.6731C24.5809 12.5325 24.7045 12.4256 24.8671 12.375L24.9776 12.3356C25.1532 12.2794 25.2897 12.1556 25.3483 12.0038C25.4068 11.8519 25.3873 11.6831 25.2897 11.5425C24.711 10.7269 23.9176 10.0125 22.9942 9.47813C22.8382 9.38813 22.6431 9.36 22.4675 9.405C22.2854 9.45 22.1423 9.5625 22.0643 9.70875L22.0188 9.80438C21.8757 10.0856 21.466 10.215 21.1539 10.0969C20.8223 9.97313 20.6727 9.63563 20.8158 9.34875L20.8613 9.25313C20.9393 9.10688 20.9328 8.93813 20.8483 8.79188C20.7637 8.64563 20.6142 8.53875 20.4321 8.505C19.3591 8.28 18.2146 8.26313 17.1221 8.44875C16.94 8.4825 16.7775 8.57813 16.6929 8.72438C16.6019 8.865 16.5889 9.03375 16.6604 9.18562L16.6994 9.28125C16.8295 9.57375 16.6669 9.9 16.3288 10.0125C15.9971 10.125 15.6069 9.97875 15.4769 9.69187L15.4314 9.59625C15.3663 9.44437 15.2233 9.32625 15.0412 9.27562C14.8656 9.225 14.6705 9.24187 14.5079 9.32625C13.565 9.82687 12.7457 10.5131 12.1214 11.3119C12.0173 11.4469 11.9848 11.6156 12.0368 11.7675C12.0889 11.925 12.2189 12.0488 12.388 12.1163L12.4986 12.1556C12.6611 12.2175 12.7847 12.3244 12.8432 12.4706C12.9082 12.6113 12.9017 12.7688 12.8367 12.9038C12.6936 13.1794 12.31 13.3256 11.9718 13.1962L11.8613 13.1569C11.6922 13.095 11.4971 13.095 11.328 13.1681C11.159 13.2412 11.0419 13.3706 10.9964 13.5281C10.7363 14.4619 10.7168 15.4519 10.9314 16.3912C10.9704 16.5487 11.0809 16.6837 11.25 16.7625C11.4126 16.8412 11.6077 16.8525 11.7832 16.7906L11.8938 16.7513C12.2384 16.6331 12.6156 16.785 12.7457 17.0719C12.8757 17.3644 12.7132 17.6906 12.375 17.8087L12.2645 17.8481C12.0889 17.91 11.9588 18.0281 11.9003 18.1856C11.8418 18.3375 11.8613 18.5063 11.9653 18.6469C12.5441 19.4625 13.3374 20.1769 14.2608 20.7112C14.4169 20.8012 14.6055 20.8238 14.7876 20.7844C14.9697 20.7394 15.1127 20.6269 15.1908 20.4806L15.2363 20.385C15.3728 20.1038 15.763 19.9688 16.1012 20.0925C16.2637 20.1544 16.3873 20.2613 16.4458 20.4019C16.5108 20.5425 16.5043 20.6944 16.4328 20.835L16.3873 20.9306C16.3158 21.0769 16.3158 21.2456 16.4003 21.3919C16.4848 21.5381 16.6344 21.6394 16.8165 21.6788C17.4082 21.8025 18.013 21.8644 18.6178 21.8644C19.1185 21.8644 19.6257 21.8194 20.1264 21.735C20.3085 21.7012 20.4711 21.6056 20.5556 21.4594C20.6467 21.3188 20.6597 21.15 20.5881 20.9981L20.5426 20.9025C20.4776 20.7619 20.4841 20.61 20.5556 20.4694C20.6272 20.3287 20.7507 20.2219 20.9133 20.1656C21.2449 20.0531 21.6351 20.205 21.7652 20.4862L21.8107 20.5819C21.8822 20.7338 22.0188 20.8463 22.2009 20.8969C22.3764 20.9475 22.5715 20.9306 22.7341 20.8463C23.677 20.3456 24.5029 19.6594 25.1207 18.8606C25.2247 18.7256 25.2572 18.5569 25.1987 18.405C25.1467 18.2475 25.0166 18.1237 24.8475 18.0562L24.737 18.0169C24.5809 17.955 24.4574 17.8481 24.3923 17.7075C24.3273 17.5669 24.3338 17.415 24.3988 17.2744C24.5419 16.9931 24.9386 16.8581 25.2637 16.9819L25.3743 17.0213C25.5434 17.0831 25.7449 17.0831 25.9075 17.01C26.0766 16.9369 26.1936 16.8075 26.2392 16.65C26.4928 15.7163 26.5123 14.7263 26.2977 13.7869C26.2717 13.6294 26.1546 13.4944 25.9921 13.4156ZM25.1337 15.8513C24.3403 15.8006 23.573 16.2056 23.2478 16.8413C23.0397 17.2463 23.0332 17.6962 23.2218 18.1069C23.3259 18.3375 23.4884 18.54 23.69 18.7087C23.3714 19.0406 23.0072 19.3444 22.6105 19.6088C22.1033 19.1025 21.2254 18.9 20.4646 19.1531C19.9899 19.3162 19.6127 19.6256 19.4046 20.0306C19.2876 20.2613 19.2355 20.5031 19.2421 20.745C18.7478 20.7844 18.2406 20.7788 17.7464 20.7169C17.7659 20.475 17.7204 20.2331 17.6163 19.9969C17.4277 19.5862 17.0701 19.26 16.5954 19.0856C15.854 18.81 14.9632 18.9788 14.4364 19.4681C14.0527 19.1925 13.7016 18.8775 13.396 18.5344C13.9877 18.0844 14.2218 17.3475 13.9227 16.6781C13.6236 16.0256 12.9147 15.5981 12.0824 15.6263C12.0368 15.1988 12.0434 14.76 12.1149 14.3325C12.9082 14.3775 13.6756 13.9781 14.0007 13.3425C14.2023 12.9375 14.2153 12.4875 14.0267 12.0712C13.9227 11.8406 13.7601 11.6381 13.5585 11.4694C13.8772 11.1375 14.2413 10.8337 14.638 10.575C15.1452 11.0756 16.0296 11.2781 16.784 11.025C17.5578 10.7606 18.0195 10.1138 18 9.43313C18.5007 9.39375 19.0079 9.39937 19.4957 9.45562C19.4436 10.1306 19.8793 10.8 20.6402 11.0869C21.3815 11.3625 22.2659 11.1938 22.7991 10.7044C23.1828 10.98 23.534 11.295 23.8396 11.6381C23.6315 11.7956 23.4624 11.9981 23.3454 12.2231C23.1438 12.6281 23.1308 13.0781 23.3194 13.4944C23.6185 14.1469 24.3403 14.5744 25.1597 14.5463C25.2117 14.985 25.2052 15.4181 25.1337 15.8513Z" fill="white"/>
<path d="M18.6308 11.655C16.4393 11.655 14.651 13.1963 14.651 15.0975C14.651 16.9931 16.4328 18.54 18.6308 18.54C20.8223 18.54 22.6105 16.9988 22.6105 15.0975C22.6105 13.1963 20.8223 11.655 18.6308 11.655ZM18.6308 17.4431C17.1351 17.4431 15.9126 16.3856 15.9126 15.0919C15.9126 13.7981 17.1286 12.7406 18.6308 12.7406C20.1264 12.7406 21.349 13.7925 21.349 15.0919C21.349 16.3912 20.1264 17.4431 18.6308 17.4431Z" fill="white"/>
</svg>
