<svg width="46" height="46" viewBox="0 0 46 46" fill="none" xmlns="http://www.w3.org/2000/svg">
<path d="M20.0112 6.91999C20.0112 6.48311 20.3648 6.12889 20.8009 6.12889H33.151C33.5871 6.12889 33.9407 6.48311 33.9407 6.91999C33.9407 7.35688 33.5871 7.7111 33.151 7.7111H20.8009C20.3648 7.7111 20.0112 7.35698 20.0112 6.91999ZM13.501 8.60713C13.6552 8.76159 13.8572 8.83882 14.0594 8.83882C14.2616 8.83882 14.4636 8.76159 14.6178 8.60713L17.0384 6.18209C17.3469 5.87317 17.3468 5.3723 17.0384 5.06337C16.7301 4.75444 16.2301 4.75444 15.9217 5.06337L14.0595 6.92909L13.4075 6.27594C13.0991 5.96701 12.5992 5.96701 12.2908 6.27594C11.9824 6.58486 11.9825 7.08573 12.2908 7.39466L13.501 8.60713ZM20.8009 16.1489H33.151C33.5871 16.1489 33.9407 15.7947 33.9407 15.3578C33.9407 14.9209 33.5871 14.5667 33.151 14.5667H20.8009C20.3648 14.5667 20.0112 14.9209 20.0112 15.3578C20.0112 15.7947 20.3648 16.1489 20.8009 16.1489ZM13.501 17.1297C13.6552 17.2842 13.8572 17.3614 14.0594 17.3614C14.2616 17.3614 14.4636 17.2842 14.6178 17.1297L17.0384 14.7047C17.3469 14.3957 17.3468 13.8949 17.0384 13.5859C16.7301 13.277 16.2301 13.277 15.9217 13.5859L14.0595 15.4517L13.4075 14.7985C13.0991 14.4896 12.5992 14.4896 12.2908 14.7985C11.9824 15.1074 11.9825 15.6083 12.2908 15.9172L13.501 17.1297ZM44.8217 31.1636L41.3296 33.1833C40.968 33.3926 40.5659 33.4994 40.1579 33.4994C39.9523 33.4994 39.7453 33.4724 39.541 33.4175C38.9316 33.2539 38.4229 32.8636 38.109 32.3188L38.0134 32.1531L36.2469 33.0567C36.7751 33.8957 36.6987 34.9303 36.2346 35.7297C36.0012 36.1315 35.6678 36.4777 35.2683 36.7168C35.5 37.0967 35.6231 37.5323 35.6214 37.9962C35.6178 38.9577 35.0774 39.8875 34.2445 40.3652C33.7817 40.6305 33.2699 40.7334 32.7575 40.6741C32.7313 41.1054 32.5987 41.5293 32.382 41.902C31.9238 42.6901 31.0802 43.2602 30.11 43.2353C30.0997 43.7011 29.9639 44.1623 29.7303 44.564C29.2828 45.3337 28.4685 45.8982 27.526 45.8982C27.0967 45.8982 26.6408 45.7811 26.1809 45.5128L24.0954 44.2962L23.6897 44.8741C23.1814 45.5979 22.4367 46 21.6203 46C21.5455 46 21.4701 45.9966 21.3942 45.9898C20.4579 45.9057 19.5958 45.3101 19.1814 44.4659C18.3018 44.9213 17.2788 44.7556 16.5232 44.2232C16.0353 43.8793 15.6532 43.3788 15.4788 42.8025C14.7534 42.9614 13.9936 42.7694 13.399 42.3504C12.6585 41.8286 12.162 40.9455 12.2654 39.9849C11.7997 39.936 11.3495 39.7605 10.9675 39.4913C9.90896 38.7452 9.34918 37.2607 10.3277 35.8671L10.3948 35.7715L7.77694 32.4964C7.46047 32.9481 6.9999 33.2724 6.45907 33.4176C6.25494 33.4725 6.04775 33.4994 5.84223 33.4994C5.43417 33.4994 5.03212 33.3927 4.67035 33.1834L1.17841 31.1636C0.0525315 30.5125 -0.334607 29.0651 0.315395 27.9371L6.44406 17.3027C6.6324 16.9759 6.88766 16.7117 7.18231 16.5164V0.791105C7.18231 0.354217 7.53589 0 7.97199 0H38.028C38.4641 0 38.8177 0.354217 38.8177 0.791105V16.5164C39.1123 16.7116 39.3677 16.9758 39.5559 17.3026L45.6846 27.937C46.3346 29.0651 45.9475 30.5124 44.8217 31.1636ZM8.76166 1.58221V16.1382C9.07112 16.1742 9.3783 16.2723 9.66475 16.4381L13.1568 18.4579C13.7007 18.7724 14.0902 19.2819 14.2535 19.8925C14.3552 20.2732 14.3612 20.6638 14.2754 21.036L18.6535 22.6028C20.5002 20.9492 21.8624 20.3617 24.6723 20.9813C27.3066 21.5623 29.5162 21.5676 31.7147 20.988C31.6399 20.6302 31.6489 20.2568 31.7464 19.8924C31.9097 19.2818 32.2992 18.7722 32.8432 18.4578L36.3351 16.438C36.6216 16.2722 36.9288 16.1742 37.2382 16.1382V1.58221H8.76166ZM6.52333 31.5277L12.652 20.8933C12.755 20.7144 12.7821 20.5045 12.728 20.3021C12.6739 20.0998 12.5457 19.9314 12.3671 19.8282L8.87518 17.8084C8.75298 17.7377 8.61922 17.704 8.48725 17.704C8.21797 17.704 7.9559 17.844 7.81188 18.0938L1.68321 28.7282C1.46862 29.1006 1.59645 29.5784 1.96809 29.7933L5.46013 31.8132C5.63879 31.9165 5.84845 31.9436 6.05031 31.8893C6.25227 31.8351 6.42028 31.7067 6.52333 31.5277ZM13.2969 37.96L15.1117 35.3752L15.112 35.3747C15.6635 34.5865 14.9933 34.055 14.8533 33.9564C14.7132 33.8577 13.9866 33.4058 13.433 34.1943L11.6194 36.7772C11.0655 37.566 11.7362 38.0983 11.8762 38.197C12.0162 38.2958 12.7424 38.7479 13.2964 37.9606L13.2969 37.96ZM18.8033 36.4394C19.3571 35.6506 18.6864 35.1182 18.5463 35.0196C18.4062 34.9208 17.6794 34.4684 17.1254 35.2571L16.4041 36.2844C16.404 36.2846 16.4039 36.2847 16.4038 36.2849L16.4035 36.2854L14.0508 39.6363C13.4969 40.4253 14.1677 40.9576 14.3077 41.0563C14.4478 41.1549 15.1747 41.6072 15.7286 40.8187L18.8033 36.4394ZM19.4265 41.8737C19.4271 41.8729 19.4277 41.8721 19.4283 41.8713L21.3867 39.082C21.9404 38.2933 21.2699 37.761 21.1299 37.6622C20.9901 37.5638 20.2642 37.1114 19.7104 37.8977L19.7096 37.8989L17.1745 41.5096L17.174 41.5104C16.6215 42.2986 17.2917 42.8305 17.4318 42.9292C17.5719 43.0279 18.2988 43.4804 18.8525 42.6916L19.4265 41.8737ZM23.05 41.2488C22.91 41.15 22.1836 40.6978 21.6299 41.4858L21.6295 41.4863L20.7201 42.7817C20.4889 43.111 20.4447 43.4358 20.5888 43.7472C20.7543 44.1046 21.1435 44.3789 21.5352 44.414C21.8763 44.4447 22.1666 44.2932 22.3979 43.9639L23.3072 42.6688C23.8608 41.8799 23.1901 41.3475 23.05 41.2488ZM34.511 33.5367L24.746 27.8741C23.8681 27.3662 23.0004 27.7322 21.6572 28.3709C21.5919 28.4019 21.5268 28.4329 21.4614 28.4638C21.3634 28.661 21.2645 28.8727 21.1615 29.093C20.6544 30.1786 20.0795 31.4089 19.0851 31.9466C17.9147 32.5794 16.8702 32.676 16.1441 32.2184C15.8099 32.0076 15.2573 31.4839 15.3113 30.3429L15.5204 25.9335C15.5299 25.7326 15.6155 25.5428 15.7599 25.4028C16.1706 25.0044 16.5391 24.6406 16.8955 24.2888C17.0585 24.128 17.2153 23.9733 17.3684 23.8229L13.5705 22.4637L8.63146 31.034L11.3409 34.4237L12.1412 33.2839C13.1193 31.8905 14.7028 31.9164 15.7614 32.6617C16.106 32.9042 16.3978 33.225 16.601 33.5955C17.521 33.0042 18.6426 33.1527 19.455 33.7252C20.1366 34.2055 20.6115 34.9922 20.6021 35.8634C21.1167 35.8893 21.6191 36.072 22.039 36.3681C22.9757 37.0286 23.5217 38.2671 22.9565 39.5093C23.3157 39.5891 23.6583 39.7427 23.9588 39.9545C24.8605 40.59 25.3995 41.761 24.9355 42.9552L26.9756 44.1454C27.8076 44.6305 28.2795 43.9157 28.3656 43.7675C28.4518 43.6194 28.8393 42.8561 28.0095 42.3705L28.0084 42.3698C28.0084 42.3698 28.0083 42.3697 28.0081 42.3696H28.008L25.3792 40.8363C25.0023 40.6164 24.8747 40.1322 25.0941 39.7546C25.3135 39.3771 25.7969 39.2493 26.1739 39.469L28.8027 41.0025L28.8031 41.0027L28.8034 41.0029C28.804 41.0032 28.8046 41.0036 28.8052 41.0039L29.6272 41.4836C30.4591 41.9686 30.931 41.2539 31.0173 41.1057C31.1034 40.9575 31.4909 40.1943 30.661 39.7086L30.6598 39.7079L30.6596 39.7078C30.6595 39.7077 30.6593 39.7076 30.6591 39.7075L27.4364 37.8276C27.0595 37.6078 26.9319 37.1235 27.1513 36.7459C27.3708 36.3684 27.8542 36.2406 28.2311 36.4604L31.4547 38.3407L31.4549 38.3408C31.4555 38.3412 31.456 38.3415 31.4566 38.3419L32.4883 38.9437C32.8358 39.1465 33.1626 39.1626 33.4599 38.9921C33.8013 38.7964 34.0406 38.3844 34.042 37.9905C34.0433 37.6472 33.8678 37.3704 33.5204 37.1678L32.6871 36.6817C32.6869 36.6816 32.6866 36.6815 32.6865 36.6813L32.6858 36.6809L32.6854 36.6806L29.4937 34.8189C29.1168 34.5991 28.9892 34.1148 29.2086 33.7373C29.4282 33.3597 29.9114 33.232 30.2884 33.4517L33.4801 35.3134C34.3121 35.7975 34.7833 35.0826 34.8694 34.9343C34.9553 34.786 35.3425 34.0219 34.511 33.5367ZM37.2226 30.781L32.4139 22.4368C29.0974 23.3748 26.2361 22.9463 24.3329 22.5265C21.5525 21.9137 20.8713 22.5861 18.004 25.4161C17.7244 25.6921 17.4141 25.9983 17.0832 26.3211L16.8889 30.4183C16.8762 30.6869 16.9281 30.8434 16.9852 30.8794C17.1188 30.9635 17.6036 30.95 18.3349 30.5545C18.8703 30.2649 19.3276 29.2861 19.7311 28.4224C19.8775 28.109 20.029 27.785 20.185 27.4906C20.266 27.3378 20.3949 27.2159 20.5517 27.1433C20.6946 27.0773 20.8374 27.0094 20.9798 26.9416C22.3462 26.2917 23.895 25.5551 25.5364 26.5043L34.932 31.9526L37.2226 30.781ZM44.3168 28.7281L38.1882 18.0938C37.9736 17.7213 37.4966 17.5934 37.1249 17.8084L33.6329 19.8282C33.4543 19.9314 33.3262 20.0998 33.272 20.3021C33.2179 20.5045 33.2449 20.7144 33.348 20.8933L39.4767 31.5278C39.5797 31.7067 39.7478 31.8351 39.9498 31.8893C40.1519 31.9438 40.3613 31.9165 40.5399 31.8132L44.032 29.7934C44.4036 29.5784 44.5315 29.1005 44.3168 28.7281Z" fill="white"/>
</svg>
