<svg width="50" height="50" viewBox="0 0 50 50" fill="none" xmlns="http://www.w3.org/2000/svg">
<path d="M17.5595 20.2381C18.8745 20.2381 19.9405 19.1721 19.9405 17.8571C19.9405 16.5422 18.8745 15.4762 17.5595 15.4762C16.2446 15.4762 15.1786 16.5422 15.1786 17.8571C15.1786 19.1721 16.2446 20.2381 17.5595 20.2381Z" fill="white"/>
<path d="M32.4405 20.2381C33.7554 20.2381 34.8214 19.1721 34.8214 17.8571C34.8214 16.5422 33.7554 15.4762 32.4405 15.4762C31.1255 15.4762 30.0595 16.5422 30.0595 17.8571C30.0595 19.1721 31.1255 20.2381 32.4405 20.2381Z" fill="white"/>
<path d="M36.0952 28.6309C35.9467 28.5805 35.7897 28.5599 35.6333 28.5704C35.4768 28.5808 35.3239 28.622 35.1834 28.6917C35.0429 28.7614 34.9176 28.8582 34.8146 28.9765C34.7116 29.0947 34.633 29.2322 34.5833 29.3809C33.8393 31.2996 32.5174 32.9396 30.8006 34.0742C29.0837 35.2088 27.0568 35.7819 25 35.7143C22.9532 35.7695 20.9395 35.1905 19.2345 34.0567C17.5296 32.923 16.2169 31.2898 15.4762 29.3809C15.4262 29.2324 15.3474 29.0952 15.2443 28.9771C15.1413 28.8591 15.016 28.7625 14.8756 28.6928C14.7352 28.6232 14.5824 28.5819 14.4261 28.5712C14.2697 28.5606 14.1128 28.5809 13.9643 28.6309C13.8158 28.681 13.6786 28.7598 13.5605 28.8628C13.4424 28.9659 13.3458 29.0912 13.2762 29.2316C13.2065 29.372 13.1652 29.5247 13.1546 29.6811C13.144 29.8374 13.1643 29.9943 13.2143 30.1428C14.1382 32.5088 15.7609 34.5372 17.8664 35.9579C19.9719 37.3785 22.4602 38.1241 25 38.0952C27.5599 38.1485 30.0745 37.4144 32.2036 35.9922C34.3328 34.5699 35.9738 32.5281 36.9048 30.1428C36.954 29.9905 36.972 29.8298 36.9577 29.6703C36.9434 29.5108 36.8971 29.3559 36.8215 29.2148C36.7459 29.0736 36.6427 28.9492 36.5179 28.8488C36.3931 28.7485 36.2493 28.6744 36.0952 28.6309Z" fill="white"/>
<path d="M25 0C20.0555 0 15.222 1.46622 11.1108 4.21326C6.99952 6.96029 3.79521 10.8648 1.90302 15.4329C0.0108321 20.0011 -0.484251 25.0277 0.480379 29.8773C1.44501 34.7268 3.82603 39.1813 7.32234 42.6777C10.8187 46.174 15.2732 48.555 20.1227 49.5196C24.9723 50.4842 29.9989 49.9892 34.5671 48.097C39.1352 46.2048 43.0397 43.0005 45.7867 38.8892C48.5338 34.778 50 29.9445 50 25C50 18.3696 47.3661 12.0107 42.6777 7.32233C37.9893 2.63392 31.6304 0 25 0ZM25 47.619C20.5264 47.619 16.1532 46.2925 12.4335 43.807C8.71386 41.3216 5.81472 37.789 4.10274 33.6559C2.39075 29.5228 1.94282 24.9749 2.81558 20.5872C3.68834 16.1996 5.8426 12.1692 9.00593 9.00592C12.1693 5.84259 16.1996 3.68833 20.5872 2.81557C24.9749 1.94281 29.5229 2.39074 33.6559 4.10272C37.789 5.81471 41.3216 8.71385 43.8071 12.4335C46.2925 16.1532 47.619 20.5264 47.619 25C47.619 30.9989 45.236 36.7522 40.9941 40.9941C36.7522 45.236 30.999 47.619 25 47.619Z" fill="white"/>
</svg>
