<svg xmlns="http://www.w3.org/2000/svg" width="276" height="276" fill="none" viewBox="0 0 276 276"><path fill="#3358d3" fill-opacity=".3" d="m94.688 269.641.18-.27a3.67 3.67 0 0 1 3.865-1.109c.61.281 1.13.723 1.503 1.279s.584 1.203.611 1.87a3.6 3.6 0 0 1-.607 1.873 3.6 3.6 0 0 1-1.507 1.276 2.3 2.3 0 0 1-1.026.21 3.79 3.79 0 0 1-3.02-1.499q-.298-.465-.543-.96l-.242-.42a.9.9 0 0 1 0-.39.7.7 0 0 1 0-.24c.145-.589.412-1.14.785-1.62m.694 2.04.483.87a2.33 2.33 0 0 0 2.325.78 2.27 2.27 0 0 0 1.299-1.92 2.27 2.27 0 0 0-.4-1.141 2.3 2.3 0 0 0-.93-.779.86.86 0 0 0-.422 0 2.35 2.35 0 0 0-1.721.72l-.211.27q-.346.462-.574.99zM5.828.03l1.388 1.35H.121V0zm88.497 209.954c.665-2.339 2.537-2.069 3.744-1.889h.483a2.53 2.53 0 0 1 1.963 1.799l.271.63a1.49 1.49 0 0 1 0 1.5 4.47 4.47 0 0 1-2.687 2.369h-.664a3.76 3.76 0 0 1-2.292-.889 3.7 3.7 0 0 1-1.24-2.11.65.65 0 0 1 0-.33c.012-.378.138-.744.362-1.05zm.906 1.26c.574 1.53 1.328 2.04 2.687 1.86a3.6 3.6 0 0 0 1.751-1.8 3.4 3.4 0 0 1-.423-.81c-.301-.69-.452-.96-.875-.99h-.483a8 8 0 0 0-1.027 0c-.664 0-.996.24-1.207 1.02q-.123.314-.302.6s-.151.21 0 .24zm-17.24 0a6 6 0 0 1 1.147-2.459q.328-.448.603-.93c.906-1.68 1.903-3.389 3.02-5.009 1.298-2.16 2.627-4.409 3.774-6.689.3-.649.803-1.184 1.434-1.524a3.34 3.34 0 0 1 2.069-.365c3.019 0 5.857.15 8.575.15 2.113 0 4.257 0 6.31-.15a3.55 3.55 0 0 1 2.226.453 3.5 3.5 0 0 1 1.488 1.706c2.144 3.869 4.469 7.739 6.733 11.488l.936 1.559a3.34 3.34 0 0 1 0 3.72l-.936 1.559c-2.264 3.72-4.589 7.619-6.733 11.488a3.55 3.55 0 0 1-1.393 1.625 3.6 3.6 0 0 1-2.079.534h-.212c-2.748 0-5.707-.15-9.36-.18h-5.707a3.2 3.2 0 0 1-1.862-.347 3.2 3.2 0 0 1-1.338-1.332l-5.405-9.388-2.747-4.739a3.6 3.6 0 0 1-.272-.6v-.24a.6.6 0 0 1 0-.33zm1.418.24q.049.22.151.42l2.748 4.739c1.811 2.999 3.623 6.239 5.405 9.388.18.35.466.634.819.812.353.177.753.24 1.143.178h15.158a2.25 2.25 0 0 0 1.475-.272 2.22 2.22 0 0 0 .97-1.138c2.144-3.929 4.499-7.798 6.763-11.578l.937-1.529a1.97 1.97 0 0 0 0-2.34l-.937-1.529c-2.264-3.78-4.619-7.649-6.763-11.578a2.2 2.2 0 0 0-.849-1.074 2.22 2.22 0 0 0-1.325-.366h-.271c-2.084 0-4.228 0-6.371.18-2.718 0-5.677 0-8.636-.18a2.1 2.1 0 0 0-1.316.211 2.07 2.07 0 0 0-.918.959c-1.178 2.31-2.506 4.559-3.805 6.749a132 132 0 0 0-2.838 4.979c-.211.36-.453.69-.664 1.019a4.8 4.8 0 0 0-.936 1.83zm-33.213 26.994a3.45 3.45 0 0 1 1.387 1.08c.36.473.59 1.031.667 1.62.332 1.109-1.39 3.239-2.205 3.509-.319.06-.647.06-.966 0a3.6 3.6 0 0 1-3.02-1.5l-.21-.3a3.8 3.8 0 0 1-.635-1.41 1.19 1.19 0 0 1 .423-1.169 3.5 3.5 0 0 1 1.839-1.996 3.56 3.56 0 0 1 2.72-.104zm-3.563 2.999c.066.321.211.62.423.87l.242.36a2.32 2.32 0 0 0 2.325.78 4.8 4.8 0 0 0 1.389-1.86v-.15c-.302-.959-.544-1.589-1.148-1.769a2.6 2.6 0 0 0-.906-.15c-.444.01-.874.152-1.235.409a2.2 2.2 0 0 0-.787 1.031 1.4 1.4 0 0 1-.272.33.3.3 0 0 1-.03.09zm-39.251-44.99c2.143 3.869 4.469 7.739 6.733 11.488l.936 1.559a3.34 3.34 0 0 1 0 3.72l-.966 1.589c-2.234 3.719-4.56 7.589-6.703 11.458a3.5 3.5 0 0 1-1.27 1.528 3.55 3.55 0 0 1-1.9.601v-1.349a2.3 2.3 0 0 0 1.186-.423 2.25 2.25 0 0 0 .776-.987c2.144-3.899 4.499-7.768 6.733-11.518l.966-1.589a1.97 1.97 0 0 0 0-2.34l-.935-1.559c-2.265-3.75-4.62-7.619-6.764-11.548-.543-.99-1.057-1.38-1.962-1.41v-1.349a3.55 3.55 0 0 1 1.836.599 3.5 3.5 0 0 1 1.243 1.47zM3.08 135.84c1.419 2.58 3.02 5.159 4.468 7.679l1.661 2.819 1.963 3.299a2.99 2.99 0 0 1 0 3l-2.657 4.559c-.846 1.44-1.66 2.999-2.506 4.289-.453.72-.846 1.47-1.268 2.189s-1.088 1.92-1.661 2.82a2.77 2.77 0 0 1-1.153 1.181 2.8 2.8 0 0 1-1.625.318v-1.349a1.54 1.54 0 0 0 1.57-.84q.846-1.41 1.63-2.789c.423-.75.846-1.5 1.3-2.22.844-1.41 1.66-2.999 2.475-4.259l2.687-4.589a1.49 1.49 0 0 0 0-1.71l-1.963-3.299-1.66-2.819a371 371 0 0 1-4.499-7.739 1.385 1.385 0 0 0-1.54-.839v-1.35a2.73 2.73 0 0 1 1.573.322c.48.262.868.662 1.115 1.148zm196.742 133.801.181-.27a3.67 3.67 0 0 1 3.864-1.109c.61.281 1.131.723 1.503 1.279a3.6 3.6 0 0 1 .611 1.87 3.6 3.6 0 0 1-.607 1.873 3.6 3.6 0 0 1-1.507 1.276 2.3 2.3 0 0 1-1.026.21 3.73 3.73 0 0 1-3.019-1.499 10 10 0 0 1-.574-.96l-.212-.42a.95.95 0 0 1 0-.39.7.7 0 0 1 0-.24 3.9 3.9 0 0 1 .786-1.62m.664 2.01.513.9c.271.33.63.578 1.035.715.406.138.842.16 1.26.065.377-.169.7-.438.934-.776a2.24 2.24 0 0 0 .394-1.144 2.28 2.28 0 0 0-1.328-1.92.9.9 0 0 0-.423 0 2.35 2.35 0 0 0-1.721.72l-.211.27a3.8 3.8 0 0 0-.574.99zM97.374 94.089a3.76 3.76 0 0 1-2.291-.889 3.7 3.7 0 0 1-1.241-2.11.54.54 0 0 1 0-.3c.006-.379.133-.746.362-1.05a.6.6 0 0 0 0-.24 3.3 3.3 0 0 1 .544-1.08l.966.96a3 3 0 0 0-.181.51q-.123.3-.302.57s-.151.21 0 .24c.574 1.56 1.328 2.07 2.687 1.89a2 2 0 0 0 .725-.48l.996.96a3.24 3.24 0 0 1-1.54.87zm44.748 43.821a3.37 3.37 0 0 1-1.907-.454 3.34 3.34 0 0 1-1.324-1.436 807 807 0 0 0-4.982-8.728l3.623 3.63c.876 1.469 1.721 2.999 2.566 4.439a2 2 0 0 0 2.114 1.199h.997l1.358 1.32h-2.445zm-31.07 23.485c-.453.72-.875 1.47-1.268 2.189-.392.72-1.087 1.92-1.66 2.82a3.02 3.02 0 0 1-2.778 1.499H89.283a2.73 2.73 0 0 1-2.718-1.529c-.936-1.65-1.902-3.329-3.02-5.009-1.116-1.68-2.173-3.749-3.26-5.669l-.755-1.29c-.573-.959-1.147-1.919-1.66-2.999a.6.6 0 0 1 0-.39.5.5 0 0 1 0-.36 71 71 0 0 1 3.955-7.138l1.842-3 .755-1.349a97 97 0 0 1 2.022-3.509 2.77 2.77 0 0 1 1.135-1.19 2.8 2.8 0 0 1 1.613-.34h16.003c.57-.074 1.15.038 1.651.319s.896.717 1.126 1.241c1.42 2.579 3.02 5.188 4.469 7.678l1.661 2.819 1.962 3.3a2.98 2.98 0 0 1 0 2.999l-2.687 4.559c-.604 1.5-1.419 2.939-2.264 4.349zm3.986-11.248-1.963-3.299-1.66-2.819a371 371 0 0 1-4.499-7.739c-.393-.719-.695-.839-1.57-.839H89.343a1.454 1.454 0 0 0-1.6.869 80 80 0 0 0-1.993 3.48l-.785 1.349c-.604 1.05-1.238 2.1-1.872 3.15-1.298 2.159-2.657 4.439-3.774 6.778.453.9.996 1.77 1.48 2.64.27.42.543.869.784 1.319a548 548 0 0 0 3.292 5.669l3.019 5.009a1.456 1.456 0 0 0 1.57.84h16.002a1.49 1.49 0 0 0 1.601-.84q.876-1.41 1.63-2.789c.423-.75.846-1.5 1.299-2.22.845-1.41 1.66-2.999 2.475-4.259s1.782-2.999 2.688-4.589a1.495 1.495 0 0 0-.061-1.71zm88.256 64.276h-.664a3.82 3.82 0 0 1-2.3-.892 3.77 3.77 0 0 1-1.263-2.107 1.2 1.2 0 0 1 0-.33 1.67 1.67 0 0 1 .362-1.05.6.6 0 0 1 0-.21c.664-2.339 2.506-2.069 3.744-1.889h.453a2.44 2.44 0 0 1 1.963 1.799q.113.333.302.63a1.5 1.5 0 0 1 0 1.5 4.47 4.47 0 0 1-2.597 2.549m1.147-3.959c-.302-.69-.453-.96-.875-.99h-.484a8 8 0 0 0-1.026 0c-.664 0-.997.24-1.238 1.02a2.3 2.3 0 0 1-.272.6.7.7 0 0 0 0 .24c.574 1.53 1.359 2.07 2.718 1.86a3.56 3.56 0 0 0 1.721-1.8 5 5 0 0 1-.544-.9zm-71.8 26.694a83 83 0 0 1 2.294-3.899 65 65 0 0 0 3.322-5.998 5.44 5.44 0 0 1 2.559-2.59 5.5 5.5 0 0 1 3.631-.41c3.7.21 7.41.21 11.111 0h3.563a1.56 1.56 0 0 1 1.238.9c1.147 1.83 2.234 3.719 3.26 5.549 1.027 1.829 1.872 3.269 3.02 4.859q.484.716.845 1.499c.393.66.725 1.32 1.148 1.89a3.23 3.23 0 0 1 0 3.929c-1.721 2.85-3.382 5.729-5.073 8.608l-.664 1.14c-.695 1.2-1.51 2.61-2.234 4.019a2.6 2.6 0 0 1-1.074 1.12 2.64 2.64 0 0 1-1.523.32h-15.852a3.36 3.36 0 0 1-1.906-.454 3.34 3.34 0 0 1-1.325-1.436c-1.781-3.209-3.653-6.448-5.465-9.598v-.15l-.815-1.349c-.664-1.14-1.359-2.28-1.932-3.51a.5.5 0 0 1 0-.359 6.2 6.2 0 0 1 1.358-3q.285-.51.514-1.05zm1.117 7.469.815 1.35v.179c1.812 3 3.684 6.359 5.495 9.598.17.402.471.735.854.947s.827.291 1.26.223h15.882a1.3 1.3 0 0 0 1.389-.72c.724-1.439 1.57-2.999 2.264-4.079l.664-1.14c1.691-2.999 3.352-5.758 5.103-8.608a1.935 1.935 0 0 0 0-2.459 14 14 0 0 1-1.208-2.04c-.271-.48-.513-.96-.815-1.409-1.026-1.62-1.962-3.3-3.019-4.919-1.057-1.62-2.114-3.69-3.261-5.459v-.42h-.785a19.5 19.5 0 0 0-2.627 0c-3.751.195-7.511.195-11.262 0-2.174 0-3.775 0-4.861 2.279a58 58 0 0 1-3.412 5.999c-.755 1.26-1.51 2.55-2.235 3.839a9 9 0 0 1-.785 1.23 5.3 5.3 0 0 0-1.117 2.34c.393 1.139 1.027 2.249 1.661 3.299zm17.633-6.449a3.48 3.48 0 0 1 2.053 2.7c.332 1.079-1.389 3.239-2.234 3.509a2.4 2.4 0 0 1-.936 0 3.6 3.6 0 0 1-3.02-1.5l-.211-.3a4.4 4.4 0 0 1-.664-1.409 1.2 1.2 0 0 1 .422-1.17 3.54 3.54 0 0 1 3.351-2.115c.47.014.932.121 1.36.315zm-3.593 3c.09.317.244.613.453.869l.241.36a2.31 2.31 0 0 0 2.325.78 4.44 4.44 0 0 0 1.359-1.859v-.15c-.302-.96-.544-1.59-1.147-1.77a2.6 2.6 0 0 0-.936-.15 2.3 2.3 0 0 0-1.229.419 2.25 2.25 0 0 0-.794 1.021q-.091.186-.242.33l-.03.39zm-49.065-87.131a2.9 2.9 0 0 1-1.026.209 3.78 3.78 0 0 1-3.02-1.499q-.298-.465-.543-.96l-.242-.42a1 1 0 0 1 0-.42.5.5 0 0 1 0-.21 4.7 4.7 0 0 1 .815-1.649l.182-.24a3.6 3.6 0 0 1 1.761-1.143 3.6 3.6 0 0 1 2.104.033c.59.266 1.097.685 1.469 1.213.371.527.594 1.144.644 1.786a3.64 3.64 0 0 1-.555 2.029 3.7 3.7 0 0 1-1.589 1.391zm-.574-5.069a.8.8 0 0 0-.422 0 2.37 2.37 0 0 0-1.721.749l-.211.27a4.2 4.2 0 0 0-.574.99l.15.24q.216.45.484.87a2.31 2.31 0 0 0 2.325.81c.367-.179.68-.45.908-.787a2.3 2.3 0 0 0 .39-1.133 2.23 2.23 0 0 0-1.329-1.889zm-53.02 28.703a3.45 3.45 0 0 1 2.205 1.14 3.38 3.38 0 0 1 1.026 2.28 3.7 3.7 0 0 1-1.032 1.973 3.7 3.7 0 0 1-1.987 1.026q-.362.043-.725 0c-1.962 0-2.657-1.59-3.2-2.759a.75.75 0 0 1 0-.36.5.5 0 0 1 0-.3c.845-2.25 1.389-2.94 3.714-2.88zm0 5.159c.876-.15 1.963-.99 1.994-1.799a2.4 2.4 0 0 0-.665-1.29 2.36 2.36 0 0 0-1.238-.72h-.422c-1.148 0-1.299.18-2.054 2.1.544 1.499.967 2.039 2.265 1.829zM55.98 75.854a3.55 3.55 0 0 1-1.44 1.442 3.6 3.6 0 0 1-2.002.417h-.664c-3.382-.18-6.764 0-10.085 0h-1.932a14.2 14.2 0 0 1-3.714 0 1.97 1.97 0 0 1-1.63-1.02c-2.265-3.689-4.379-7.408-6.04-10.587a16 16 0 0 0-.935-1.5 13.4 13.4 0 0 1-1.842-3.57.8.8 0 0 1 0-.27.75.75 0 0 1 0-.36 76 76 0 0 1 3.834-6.898c.785-1.32 1.631-2.729 2.386-4.109l1.087-1.89a35 35 0 0 0 1.298-2.309c.237-.47.613-.856 1.077-1.108a2.6 2.6 0 0 1 1.52-.301h13.195l1.358 1.35H36.897c-.815 0-1.087.15-1.39.689-.301.54-.875 1.59-1.328 2.37s-.724 1.23-1.056 1.86c-.785 1.409-1.63 2.788-2.446 4.138-1.268 2.13-2.597 4.35-3.654 6.599a12.5 12.5 0 0 0 1.631 3c.332.539.694 1.049.996 1.589 1.752 3 3.865 6.868 6.04 10.528.18.33.24.33.784.42 1.093.135 2.198.135 3.291 0q.921-.046 1.842 0h10.357c1.419 0 2.294 0 2.837-1.11 2.356-4.47 4.922-8.998 7.85-13.587a1.434 1.434 0 0 0 0-1.8 30 30 0 0 1-1.66-2.79l-.664-1.14-1.57-2.729-1.087-1.89 3.714 3.69v.24c.241.39.453.78.664 1.17.513.9 1.027 1.83 1.6 2.67a2.72 2.72 0 0 1 0 3.298c-2.898 4.77-5.465 9.178-7.79 13.618zM213.801 226a3.55 3.55 0 0 1-1.392 1.625 3.6 3.6 0 0 1-2.08.534h-.242c-2.717 0-5.706-.15-9.329-.18h-5.707a3.21 3.21 0 0 1-3.231-1.679c-1.751-3-3.563-6.209-5.344-9.298l-2.778-4.829a2.1 2.1 0 0 1-.272-.6v-.24a.6.6 0 0 1 0-.33 5.2 5.2 0 0 1 1.148-2.459q.33-.44.573-.93c.936-1.68 1.933-3.389 3.02-5.009 1.268-2.16 2.596-4.409 3.744-6.689a3.34 3.34 0 0 1 1.45-1.528 3.37 3.37 0 0 1 2.083-.361c2.143 0 4.257 0 6.31.15l1.389 1.349h-7.76a2.1 2.1 0 0 0-1.316.211 2.07 2.07 0 0 0-.918.959c-1.178 2.31-2.506 4.559-3.805 6.749-.966 1.619-1.962 3.299-3.019 4.979a7.4 7.4 0 0 1-.664 1.019 5.2 5.2 0 0 0-.906 1.83l.181.42 2.778 4.799c1.811 2.999 3.593 6.209 5.374 9.328.171.35.452.636.801.815.348.178.745.24 1.132.175h15.187a2.3 2.3 0 0 0 1.472-.279c.444-.257.788-.655.974-1.131 2.144-3.929 4.499-7.798 6.763-11.577l.725-1.2.996.99-.543.929c-2.446 3.81-4.801 7.709-6.915 11.578zm33.817 32.213a3.3 3.3 0 0 1-1.913-.443 3.3 3.3 0 0 1-1.318-1.447 712 712 0 0 0-5.435-9.508l-.15-.24c-.242-.449-.514-.899-.785-1.349a39 39 0 0 1-1.933-3.51.5.5 0 0 1 0-.359 6.25 6.25 0 0 1 1.389-3c.241-.36.483-.72.694-1.08.725-1.319 1.51-2.639 2.265-3.899q.122-.17.211-.36l.997.99c-.755 1.26-1.54 2.55-2.235 3.839q-.36.635-.785 1.23a5.3 5.3 0 0 0-1.117 2.34 43 43 0 0 0 1.812 3.269l.815 1.349v.24c1.781 3 3.654 6.329 5.435 9.538a1.94 1.94 0 0 0 2.113 1.17h15.882c.326.023.652-.05.936-.21l.966.96a2.82 2.82 0 0 1-1.902.6c-5.102-.06-10.628-.12-16.063 0zM33.243 106.717a5.32 5.32 0 0 1 2.483-2.567 5.38 5.38 0 0 1 3.556-.433c3.7.21 7.41.21 11.111 0a22 22 0 0 1 2.808 0h.755a1.52 1.52 0 0 1 1.238.87v.15c1.147 1.8 2.234 3.689 3.291 5.519s1.872 3.299 3.02 4.889c.301.48.573.99.845 1.47q.495.995 1.117 1.919a3.29 3.29 0 0 1 .181 3.929c-1.75 3-3.412 5.729-5.103 8.579l-.664 1.139c-.694 1.2-1.51 2.61-2.234 4.049a2.7 2.7 0 0 1-1.08 1.11 2.7 2.7 0 0 1-1.517.33H37.2a3.37 3.37 0 0 1-1.907-.454 3.34 3.34 0 0 1-1.324-1.436c-1.751-3.179-3.593-6.328-5.405-9.477v-.27l-.785-1.32a37 37 0 0 1-1.962-3.539.75.75 0 0 1 0-.36 6.5 6.5 0 0 1 1.358-3q.405-.527.725-1.109c.695-1.32 1.48-2.61 2.265-3.87a62 62 0 0 0 2.928-5.998zm-5.193 11.787a5.24 5.24 0 0 0-1.147 2.37c.543 1.109 1.207 2.219 1.841 3.269l.785 1.35v.24a757 757 0 0 1 5.436 9.508 2.02 2.02 0 0 0 2.113 1.199H52.99a1.205 1.205 0 0 0 1.358-.69c.755-1.439 1.57-2.999 2.265-4.079l.665-1.139c1.69-3 3.381-5.789 5.102-8.638a1.91 1.91 0 0 0 0-2.43 20 20 0 0 1-1.208-2.04c-.271-.479-.513-.959-.815-1.409-.996-1.62-1.962-3.299-3.019-4.919s-2.114-3.689-3.23-5.489v-.24h-.786a26 26 0 0 0-2.597 0c-3.75.21-7.51.21-11.262 0-2.174 0-3.804 0-4.86 2.25a61 61 0 0 1-3.443 6.178c-.725 1.26-1.51 2.55-2.234 3.839a10 10 0 0 1-1.027.99zM9.602 59.507c4.62-7.798 9.058-15.626 13.738-23.485l3.02-5.399a18 18 0 0 1-1.662-2.7c-.21-.389-.422-.809-.664-1.199-1.449-2.46-3.02-4.979-4.317-7.468-2.446-4.2-4.952-8.518-7.488-12.807l3.864 3.839c1.63 2.79 3.231 5.579 4.801 8.308l4.318 7.468c.241.39.453.81.694 1.23a17 17 0 0 0 1.66 2.64H35.9l1.329 1.35h-3.02c-2.232.119-4.47.119-6.702 0l-3.02 5.428A8149 8149 0 0 1 10.78 60.197a.926.926 0 0 0 0 1.14c3.231 5.278 6.371 10.737 9.39 16.016l4.197 7.259c.755 1.32 1.54 2.639 2.325 3.929l.906 1.59h34.36l.937-1.62c.785-1.29 1.54-2.58 2.294-3.9 1.42-2.399 2.808-4.828 4.197-7.258 1.691-3 3.442-5.998 5.224-8.998l.996.99c-1.721 3-3.382 5.819-5.043 8.698l-4.196 7.258c-.755 1.29-1.51 2.61-2.295 3.9l-.936 1.59 3.503 5.998c3.411 5.999 6.974 11.997 10.507 17.996l.845 1.5a19 19 0 0 0 1.903 2.999c.155.188.278.401.362.63 11.353.21 22.887.21 34.239 0 .085-.229.207-.442.363-.63a22 22 0 0 0 1.932-2.999l.815-1.5c.483-.78.936-1.62 1.419-2.429l.997 1.019-1.238 2.1-.815 1.47a21.3 21.3 0 0 1-2.054 3.299c-.211.27-.271.54 0 1.05a3007 3007 0 0 1 16.335 28.074 1.69 1.69 0 0 0 1.691.869h23.159l1.389 1.35H133.94c-.37.055-.747.055-1.117 0l-3.019 5.489a4754 4754 0 0 1-13.739 23.575.9.9 0 0 0 0 1.109c3.231 5.279 6.371 10.708 9.391 15.987l4.227 7.288 2.445 4.17.785 1.349h34.361l2.325-4.019 3.653-6.299c3.291-5.728 6.703-11.637 10.175-17.366a2.984 2.984 0 0 0-.181-3.719l-4.197-7.108 3.805 3.749 1.57 2.669c.398.641.693 1.339.875 2.07h2.295l1.359 1.349h-3.684a5.2 5.2 0 0 1-.664 1.68c-3.472 5.729-6.884 11.638-10.175 17.336-1.208 2.1-2.416 4.229-3.654 6.329l-2.294 3.989 3.442 5.999a1395 1395 0 0 0 10.537 17.996l.816 1.5a20 20 0 0 0 1.932 2.999c.146.19.258.403.332.63 11.383.21 22.917.21 34.27 0a3 3 0 0 1 .332-.63c.733-.94 1.38-1.944 1.932-2.999.272-.51.544-1.02.846-1.5 2.445-4.169 4.861-8.368 7.277-12.507l.996.989a1260 1260 0 0 1-7.096 12.208l-.815 1.439a24 24 0 0 1-2.053 3.33c-.212.24-.302.51 0 1.019a3278 3278 0 0 1 16.335 28.074c.154.303.401.55.704.706s.649.213.987.164h31.914c.42-.003.837.057 1.238.18l.242-.45c.302-.54.604-1.08.936-1.619l1.087-1.86.996.99-.906 1.529-.906 1.62-.271.48q.435.435.755.96l1.66 2.999h-1.57l-1.298-2.219a1.87 1.87 0 0 0-.781-.918 1.88 1.88 0 0 0-1.182-.252h-32.096c-.37.056-.747.056-1.117 0l-2.023 3.509h-1.57l2.416-4.169a3.5 3.5 0 0 1-.574-.72 6314 6314 0 0 0-16.335-28.074 3 3 0 0 1-.241-.57h-34.27a2.6 2.6 0 0 1-.212.57 3117 3117 0 0 0-12.953 22.195l-2.807 4.799-.937 1.68-.241.42q.435.435.755.96l1.66 2.999h-1.57l-1.268-2.219a1.92 1.92 0 0 0-.8-.915 1.95 1.95 0 0 0-1.193-.255H133.88c-.37.056-.747.056-1.117 0l-2.023 3.509h-1.571l2.416-4.169a3.5 3.5 0 0 1-.574-.72c-6.22-10.768-11.383-19.676-16.334-28.074a3 3 0 0 1-.242-.57h-34.24q-.09.298-.241.57a6275 6275 0 0 0-12.802 21.955l-3.02 5.039-.905 1.62-.272.48c.298.281.553.604.755.96l1.66 2.999h-1.42l-1.268-2.219a1.92 1.92 0 0 0-.8-.915 1.95 1.95 0 0 0-1.192-.255H28.775c-.36.058-.727.058-1.087 0L25.665 276h-1.6l2.415-4.169a5 5 0 0 1-.574-.72 3240 3240 0 0 0-16.334-28.074 2.6 2.6 0 0 1-.212-.57H.12v-1.349h9.24a2.1 2.1 0 0 1 .332-.63 20 20 0 0 0 1.933-3l.815-1.499c3.563-5.999 7.126-12.238 10.568-18.206l3.442-5.999-.845-1.41c-.785-1.349-1.6-2.699-2.386-4.079l-4.227-7.288c-3.02-5.279-6.039-10.708-9.36-15.987a5 5 0 0 1-.272-.57H.12v-1.349h9.24q.074-.298.212-.57c4.62-7.859 9.058-15.717 13.768-23.605l3.02-5.429a5.4 5.4 0 0 1-.575-.75 3267 3267 0 0 0-16.334-28.044 2.4 2.4 0 0 1-.212-.6H0v-1.349h9.24c.073-.227.186-.44.332-.63a22 22 0 0 0 1.932-2.999l.815-1.5c3.563-5.999 7.126-12.207 10.598-18.206l3.412-5.999-.906-1.56c-.785-1.29-1.57-2.609-2.325-3.929a899 899 0 0 1-4.197-7.288c-3.02-5.249-6.038-10.708-9.39-15.987a5 5 0 0 1-.272-.57H0v-1.35h9.24c.03-.43.153-.85.362-1.229m118.932 96.879 3.02-5.489a3.8 3.8 0 0 1-.574-.75 3306 3306 0 0 0-16.335-28.044 2.5 2.5 0 0 1-.241-.599h-34.24a2.5 2.5 0 0 1-.241.599 3227 3227 0 0 0-12.863 22.046l-3.02 4.949-.875 1.559-.302.54c.298.281.553.605.755.96a2624 2624 0 0 0 15.278 26.274 7.2 7.2 0 0 1 .876 2.07h34.541c.035-.201.107-.394.212-.57a1507 1507 0 0 0 13.979-23.545zm-12.56 85.421c4.952 8.399 10.145 17.337 16.335 28.074.154.303.401.55.704.706s.648.213.986.164h31.915c.42-.005.838.055 1.238.18l.211-.39c.333-.57.634-1.14.966-1.679l2.778-4.799a4949 4949 0 0 1 12.984-22.226c.272-.509.211-.779 0-1.019a21.5 21.5 0 0 1-2.054-3.33l-.815-1.439c-3.563-5.999-7.095-12.208-10.537-17.996l-3.442-5.999h-34.421l-3.472 5.999c-3.412 5.998-6.945 11.997-10.508 17.996l-.815 1.439a21.6 21.6 0 0 1-2.053 3.33c-.212.18-.332.6-.03.989zm-35.659-1.259c11.353.21 22.887.21 34.24 0a2.1 2.1 0 0 1 .362-.63 17.7 17.7 0 0 0 1.902-3l.846-1.499c3.532-5.999 7.095-11.998 10.507-17.996l3.503-5.999-.785-1.32-2.446-4.169a581 581 0 0 1-4.227-7.318c-3.02-5.249-6.039-10.678-9.36-15.957a1.7 1.7 0 0 1-.272-.57H80.074a6.2 6.2 0 0 1-.695 1.68c-3.472 5.729-6.884 11.608-10.145 17.336l-3.683 6.329-2.295 3.989 3.442 5.999a1399 1399 0 0 0 10.538 17.996c.301.48.573.99.845 1.499a19.7 19.7 0 0 0 1.902 3c.135.192.236.405.302.63zm-56.1-22.735a2000 2000 0 0 1-10.567 18.206c-.272.48-.544.959-.785 1.439a22 22 0 0 1-2.084 3.33c-.18.21-.302.51 0 1.019a6382 6382 0 0 1 16.335 28.074 1.58 1.58 0 0 0 1.66.87H60.69c.42-.008.837.053 1.237.18l.272-.45.906-1.619 3.02-5.069a4134 4134 0 0 1 12.831-21.956c.272-.509.212-.779 0-1.019a21.5 21.5 0 0 1-2.053-3.33l-.815-1.439c-3.563-5.999-7.095-12.208-10.537-17.996l-3.443-5.999h-34.39zm.332-60.797L10.81 180.621a.894.894 0 0 0 0 1.109c3.2 5.279 6.34 10.708 9.36 15.987l4.227 7.288c.785 1.38 1.6 2.73 2.385 4.08l.875 1.439h34.33l2.326-4.019a428 428 0 0 0 3.653-6.329c3.291-5.698 6.703-11.607 10.175-17.336a2.985 2.985 0 0 0-.18-3.719c-4.53-7.648-9.24-15.747-15.279-26.274a1.94 1.94 0 0 0-1.992-1.17H28.775a4.5 4.5 0 0 1-1.087 0zm-.301-59.627c-3.442 5.999-7.005 11.997-10.598 18.206-.272.48-.544.96-.785 1.47a21.5 21.5 0 0 1-2.084 3.299c-.211.27-.271.54 0 1.05a6410 6410 0 0 1 16.335 28.074 1.61 1.61 0 0 0 1.66.869H60.69c.421.001.84.072 1.237.21l.302-.51c.272-.539.574-1.049.876-1.589l3.02-4.949c4.287-7.349 8.574-14.727 12.892-22.045.272-.51.211-.78 0-1.05a21.4 21.4 0 0 1-2.053-3.299l-.936-1.68c-3.563-5.999-7.096-12.177-10.538-17.996l-3.442-5.999h-34.33zm80.798 10.468H89.766a3.05 3.05 0 0 1-1.888-.323 3 3 0 0 1-1.313-1.387l-5.344-9.238-2.808-4.859a6 6 0 0 1-.272-.63v-.21a.6.6 0 0 1 0-.33v-.18a6.2 6.2 0 0 1 1.147-2.46c.212-.3.423-.6.605-.899a50 50 0 0 1 3.019-5.009c1.117-1.62 1.48-2.55 2.234-3.839l.996.99c-.664 1.2-1.358 2.37-2.052 3.539-.967 1.62-1.933 3.27-2.839 4.949l-.664 1.05c-.44.536-.76 1.16-.936 1.83q.049.205.15.39l2.81 4.858 5.343 9.268a1.88 1.88 0 0 0 1.963 1.02h15.157a2.25 2.25 0 0 0 1.483-.284 2.22 2.22 0 0 0 .963-1.156c.513-.9 1.056-1.799 1.57-2.729l.996.99c-.453.809-.936 1.589-1.359 2.399a3.58 3.58 0 0 1-1.475 1.747 3.62 3.62 0 0 1-2.238.503zm-60.387-43.91c-1.963 0-2.657-1.56-3.2-2.73a.74.74 0 0 1 0-.36.65.65 0 0 1 0-.33c.965-2.58 1.448-3 3.833-3 .857.08 1.648.489 2.205 1.14a3.32 3.32 0 0 1 1.026 2.25 3.7 3.7 0 0 1-1.037 1.969 3.75 3.75 0 0 1-1.982 1.03 3 3 0 0 1-.996.03zm2.505-3.18a2.2 2.2 0 0 0-.664-1.29 2.18 2.18 0 0 0-1.237-.72h-.423c-1.148 0-1.299.18-2.023 2.07.634 1.41 1.057 1.95 2.355 1.71s1.811-1.08 1.842-1.77zM168.42 183.74q-.328.448-.604.93a187 187 0 0 1-2.808 4.889c-1.298 2.189-2.657 4.469-3.804 6.778a3.46 3.46 0 0 1-1.413 1.467 3.5 3.5 0 0 1-1.999.423h-12.923a14 14 0 0 1-3.532 0 2.09 2.09 0 0 1-1.631-1.05 71 71 0 0 1-3.019-5.249c-.906-1.739-1.993-3.449-3.02-5.129-.302-.479-.573-.989-.845-1.499a14 14 0 0 0-1.117-1.89 3.28 3.28 0 0 1-.181-3.929c1.721-2.819 3.381-5.699 5.042-8.548l.725-1.2c.724-1.26 1.509-2.609 2.234-4.019a2.6 2.6 0 0 1 1.07-1.126 2.6 2.6 0 0 1 1.527-.314h15.851a3.46 3.46 0 0 1 1.967.436c.597.336 1.08.843 1.385 1.454a355 355 0 0 0 3.713 6.538l1.842 3.21.846 1.409a19.3 19.3 0 0 1 1.932 3.66q.022.15 0 .3v.18a6.2 6.2 0 0 1-1.389 2.279zm-1.963-5.999c-.301-.48-.603-.959-.875-1.439l-1.872-3.24c-1.238-2.159-2.506-4.349-3.714-6.538a1.97 1.97 0 0 0-2.113-1.17H141.97a1.265 1.265 0 0 0-1.358.69c-.725 1.44-1.51 2.819-2.265 4.109l-.694 1.2c-1.691 2.849-3.352 5.729-5.073 8.548a1.91 1.91 0 0 0 0 2.429q.665 1 1.208 2.07c.272.48.513.96.815 1.41a115 115 0 0 1 3.02 5.188c.936 1.71 2.023 3.51 3.019 5.189.211.33.272.33.815.45 1.003.128 2.017.128 3.02 0h12.349c1.479 0 2.325 0 2.838-1.11 1.177-2.369 2.536-4.648 3.865-6.868.936-1.59 1.902-3.209 2.778-4.859l.664-1.05c.44-.525.759-1.139.936-1.799a22 22 0 0 0-1.6-3.09zm-133.214 49.4a5.4 5.4 0 0 1 2.49-2.552 5.44 5.44 0 0 1 3.549-.448c3.7.21 7.41.21 11.111 0h3.563a1.58 1.58 0 0 1 1.238.9c1.147 1.8 2.234 3.689 3.291 5.519 1.057 1.829 1.872 3.269 3.02 4.859.301.48.573.99.845 1.499q.495.983 1.117 1.89a3.29 3.29 0 0 1 .181 3.929 401 401 0 0 0-5.042 8.548l-.725 1.2a90 90 0 0 0-2.234 4.019 2.64 2.64 0 0 1-2.597 1.44H37.2a3.37 3.37 0 0 1-1.907-.454 3.34 3.34 0 0 1-1.324-1.436c-1.751-3.179-3.593-6.358-5.405-9.508v-.24a31 31 0 0 1-.785-1.349 33 33 0 0 1-1.962-3.509.75.75 0 0 1 0-.36 6.5 6.5 0 0 1 1.358-3q.394-.519.725-1.08a63 63 0 0 1 2.265-3.899 65 65 0 0 0 2.928-5.848zm-5.193 11.787a5 5 0 0 0-1.147 2.34c.543 1.109 1.207 2.219 1.841 3.269.242.45.514.9.785 1.35v.269c1.842 3 3.654 6.299 5.436 9.508.17.402.47.735.853.947s.827.291 1.26.223H52.99c.785 0 1.087-.18 1.358-.72.755-1.439 1.57-2.999 2.265-4.079l.695-1.2c1.69-2.999 3.351-5.728 5.072-8.548a1.94 1.94 0 0 0 0-2.459 17 17 0 0 1-1.208-2.04c-.271-.48-.513-.959-.815-1.409-.996-1.62-1.962-3.3-3.019-4.919-1.057-1.62-2.084-3.69-3.23-5.459v-.42h-.786a19 19 0 0 0-2.597 0c-3.751.195-7.51.195-11.262 0-2.174 0-3.804 0-4.86 2.279-1.058 2.28-2.235 4.17-3.413 5.999-.755 1.26-1.54 2.55-2.264 3.839q-.47.707-1.027 1.35zM3.14 255.934c1.42 2.58 3.02 5.159 4.439 7.679l1.69 2.819 1.963 3.329a2.99 2.99 0 0 1 0 3l-1.449 2.489h-1.57l1.842-3.209a1.49 1.49 0 0 0 0-1.71l-1.963-3.299-1.691-2.819c-1.48-2.52-3.02-5.099-4.469-7.709-.392-.75-.724-.84-1.54-.84v-1.379a2.8 2.8 0 0 1 1.576.484c.463.316.82.764 1.022 1.285zm147.436-71.774h-.725c-1.963 0-2.657-1.59-3.2-2.759a.7.7 0 0 1 0-.36.53.53 0 0 1 0-.3c.966-2.58 1.449-3.18 3.804-3a3.42 3.42 0 0 1 2.234 1.14 3.38 3.38 0 0 1 1.027 2.28 3.7 3.7 0 0 1-1.114 2.113 3.76 3.76 0 0 1-2.177 1.006zm1.117-4.409a2.36 2.36 0 0 0-1.238-.72h-.423c-1.147 0-1.328.18-2.053 2.1.664 1.379 1.087 1.919 2.355 1.709s1.963-.99 1.993-1.799a2.13 2.13 0 0 0-.815-1.17zM46.347 117.694a3.4 3.4 0 0 1 1.387 1.062c.36.468.59 1.023.666 1.608.333 1.11-1.388 3.269-2.204 3.539-.319.06-.646.06-.966 0a3.7 3.7 0 0 1-1.692-.386 3.7 3.7 0 0 1-1.327-1.114 2 2 0 0 0-.212-.3 3.7 3.7 0 0 1-.634-1.439 1.22 1.22 0 0 1 .423-1.17 3.52 3.52 0 0 1 1.88-1.679 3.56 3.56 0 0 1 2.528-.001zm-3.562 3c.076.316.22.613.422.87l.242.36a2.31 2.31 0 0 0 2.325.749 4.7 4.7 0 0 0 1.388-1.829v-.15c-.301-.96-.543-1.62-1.147-1.8a3.6 3.6 0 0 0-.936 0 2.24 2.24 0 0 0-1.22.435 2.2 2.2 0 0 0-.773 1.035l-.271.33a.21.21 0 0 1-.182.21zM3.532 75.704C5.677 79.603 8 83.472 10.266 87.22l.936 1.56a3.34 3.34 0 0 1 0 3.719l-.966 1.59c-2.235 3.719-4.56 7.588-6.703 11.457a3.5 3.5 0 0 1-1.273 1.516 3.53 3.53 0 0 1-1.898.584v-1.2a2.13 2.13 0 0 0 1.963-1.41c2.144-3.899 4.499-7.768 6.733-11.517l.966-1.59a1.94 1.94 0 0 0 0-2.31l-.936-1.56c-2.264-3.748-4.59-7.648-6.763-11.547a2.2 2.2 0 0 0-.766-1.01 2.24 2.24 0 0 0-1.197-.43v-1.319c.64.049 1.253.274 1.77.65s.92.889 1.16 1.48zm0-60.317c2.627 4.949 5.193 9.358 7.82 13.467a2.81 2.81 0 0 1 0 3 161 161 0 0 0-2.657 4.558l-2.506 4.29c-.453.719-.846 1.439-1.268 2.189a92 92 0 0 1-1.66 2.82A2.81 2.81 0 0 1 .482 47.21v-1.35a1.52 1.52 0 0 0 1.57-.87q.847-1.35 1.63-2.79l1.299-2.219c.845-1.41 1.66-2.82 2.476-4.259.815-1.44 1.782-3 2.687-4.559a1.52 1.52 0 0 0 0-1.71c-2.657-4.139-5.223-8.547-7.88-13.556a2.1 2.1 0 0 0-.801-.847 2.1 2.1 0 0 0-1.132-.293v-1.35a3.4 3.4 0 0 1 1.783.654c.519.383.917.905 1.146 1.506zm183.909 248.436c.634-1.05 1.268-2.07 1.842-3l.755-1.319 2.053-3.54a2.775 2.775 0 0 1 2.778-1.529h16.003a2.8 2.8 0 0 1 1.636.344c.497.279.896.703 1.141 1.215 1.389 2.58 3.02 5.159 4.439 7.679l1.69 2.819 1.963 3.329a2.99 2.99 0 0 1 0 3c-.513.81-.966 1.649-1.449 2.489h-1.6c.634-1.08 1.237-2.159 1.872-3.209a1.435 1.435 0 0 0 0-1.68l-1.963-3.329-1.691-2.819a273 273 0 0 1-4.468-7.709c-.393-.75-.695-.87-1.57-.84H194.84c-.319-.053-.646 0-.931.152-.284.152-.51.394-.64.688a137 137 0 0 0-2.022 3.539l-.755 1.29a35 35 0 0 1-1.872 3 71 71 0 0 0-3.895 7.018c.453.9.966 1.8 1.479 2.639l.785 1.32h-1.57a5 5 0 0 0-.392-.66c-.544-.929-1.147-1.919-1.631-2.999a.5.5 0 0 1 0-.36.5.5 0 0 1 0-.36 71 71 0 0 1 3.775-6.988zm-105.164 0 1.842-3 .724-1.319 2.053-3.54a2.77 2.77 0 0 1 1.122-1.18 2.8 2.8 0 0 1 1.596-.349h16.063a2.76 2.76 0 0 1 2.778 1.559c1.419 2.58 3.019 5.159 4.438 7.679l1.691 2.819 1.963 3.329a2.99 2.99 0 0 1 0 3c-.514.81-.967 1.649-1.45 2.489h-1.6c.634-1.08 1.238-2.159 1.872-3.209a1.49 1.49 0 0 0 0-1.71l-1.963-3.299-1.691-2.819c-1.479-2.52-3.019-5.099-4.468-7.709-.393-.75-.695-.87-1.57-.84H89.675a1.52 1.52 0 0 0-1.6.84c-.695 1.17-1.359 2.34-2.023 3.509l-.755 1.32c-.604 1.05-1.238 2.1-1.872 3-1.298 2.189-2.657 4.439-3.774 6.778.453.9.996 1.8 1.48 2.639l.784 1.32h-1.57l-.362-.66a31 31 0 0 1-1.66-2.999.5.5 0 0 1 0-.36.5.5 0 0 1 0-.36 71 71 0 0 1 3.743-6.748zm-50.454-94.39c.695-1.2 1.51-2.609 2.235-4.019a2.6 2.6 0 0 1 1.073-1.12 2.65 2.65 0 0 1 1.523-.32h15.852a3.43 3.43 0 0 1 1.97.43c.598.337 1.08.846 1.381 1.46a362 362 0 0 0 3.714 6.539l1.842 3.209.845 1.41a20 20 0 0 1 1.933 3.659c.03.097.03.202 0 .3v.18a5.8 5.8 0 0 1-1.148 2.459q-.328.449-.603.93c-.876 1.65-1.873 3.299-2.809 4.889-1.298 2.189-2.656 4.469-3.804 6.778a3.45 3.45 0 0 1-3.412 1.89h-12.8a13.5 13.5 0 0 1-3.472 0 2.09 2.09 0 0 1-1.63-1.05 71 71 0 0 1-3.02-5.249c-.906-1.739-1.963-3.449-3.02-5.129-.301-.479-.573-.989-.845-1.499a19 19 0 0 0-1.147-1.89 3.225 3.225 0 0 1 0-3.929c1.69-2.819 3.351-5.669 5.042-8.548zM27.356 182.3q.68.99 1.207 2.07c.272.48.514.96.816 1.41a115 115 0 0 1 3.02 5.188 128 128 0 0 0 3.018 5.189c.212.33.272.33.815.45 1.002.133 2.018.133 3.02 0h12.44c1.449 0 2.294 0 2.808-1.109 1.177-2.37 2.536-4.649 3.864-6.869.937-1.59 1.903-3.209 2.808-4.859q.3-.545.665-1.05a5 5 0 0 0 .905-1.799 19.3 19.3 0 0 0-1.75-3.3 36 36 0 0 1-.876-1.439l-1.842-3.24c-1.268-2.159-2.506-4.349-3.744-6.538a1.95 1.95 0 0 0-.854-.947 1.97 1.97 0 0 0-1.26-.223h-15.88c-.816 0-1.088 0-1.36.69-.754 1.47-1.6 2.999-2.294 4.109l-.694 1.2c-1.691 2.849-3.352 5.729-5.073 8.548a1.91 1.91 0 0 0 .242 2.669z"/></svg>